<svg viewBox="0 0 86 86" fill="none" xmlns="http://www.w3.org/2000/svg">
<path d="M15.2515 59.4608C11.2501 52.7099 9.85046 44.7305 11.3153 37.0207C12.7802 29.3109 17.0089 22.4009 23.2074 17.588C29.406 12.775 37.1482 10.3901 44.9806 10.881C52.8129 11.3718 60.1968 14.7047 65.7459 20.2539C71.2951 25.8031 74.628 33.1869 75.1188 41.0193C75.6097 48.8516 73.2248 56.5938 68.4118 62.7924C63.5989 68.991 56.6889 73.2196 48.9791 74.6845C41.2693 76.1494 33.29 74.7497 26.539 70.7483V70.7483L15.3859 73.9061C14.9289 74.0398 14.4444 74.048 13.9832 73.9301C13.5219 73.8121 13.1009 73.5722 12.7643 73.2355C12.4276 72.8989 12.1877 72.4779 12.0698 72.0166C11.9518 71.5554 11.96 71.0709 12.0937 70.614L15.2515 59.4608Z" stroke="#15A54F" stroke-width="2" stroke-linecap="round" stroke-linejoin="round"/>
<path d="M51.0962 61.8126C47.56 61.8214 44.0569 61.1315 40.7882 59.7823C37.5195 58.4332 34.5496 56.4515 32.0492 53.951C29.5487 51.4505 27.567 48.4806 26.2178 45.2119C24.8687 41.9432 24.1787 38.4402 24.1876 34.904C24.1965 32.4151 25.1914 30.0312 26.9545 28.2745C28.7175 26.5177 31.105 25.5313 33.5938 25.5313V25.5313C34.0045 25.528 34.4084 25.6355 34.7631 25.8424C35.1178 26.0493 35.4102 26.348 35.6095 26.7071L39.5399 33.5602C39.7737 33.9768 39.8936 34.4476 39.8877 34.9253C39.8818 35.4029 39.7503 35.8706 39.5063 36.2813L36.3485 41.5555C37.966 45.1537 40.8464 48.0342 44.4446 49.6516L49.7188 46.4938C50.1295 46.2499 50.5972 46.1183 51.0749 46.1124C51.5525 46.1065 52.0233 46.2265 52.4399 46.4602L59.2931 50.3907C59.6521 50.59 59.9508 50.8823 60.1577 51.2371C60.3646 51.5918 60.4721 51.9957 60.4688 52.4063C60.46 54.8925 59.4708 57.2748 57.716 59.036C55.9611 60.7971 53.5823 61.7949 51.0962 61.8126V61.8126Z" stroke="#15A54F" stroke-width="2" stroke-linecap="round" stroke-linejoin="round"/>
</svg>
