<svg xmlns="http://www.w3.org/2000/svg" viewBox="0 0 305 305"><defs><style>.cls-1{fill:#b2b2b2;}.cls-2{fill:none;stroke:#b2b2b2;stroke-miterlimit:10;}</style></defs><g id="Camada_2" data-name="Camada 2"><g id="Camada_1-2" data-name="Camada 1"><path class="cls-1" d="M149.9,205.83a57.33,57.33,0,0,1-51.26-31.59,5,5,0,1,1,8.93-4.5,47.55,47.55,0,0,0,89.38-14,5,5,0,0,1,9.88,1.58,57.35,57.35,0,0,1-48,47.77A58.18,58.18,0,0,1,149.9,205.83Z"/><path class="cls-1" d="M126.35,128.36c.13,3.55-.58,8.19-4.66,10.92a12.24,12.24,0,0,1-5.91,1.86c-5.35.42-8.18-3-9.3-7.88a35.22,35.22,0,0,1-.89-9,17.5,17.5,0,0,1,2.68-9,11.18,11.18,0,0,1,7.77-5c2.76-.36,5.28.26,7.08,2.51,1.53,2,1.77,5.08,1.72,7.5a.76.76,0,0,1-.71.84l-5.6,1.09a.87.87,0,0,1-1-.9,14.17,14.17,0,0,0-.16-2.62c-.11-.65-.31-1.37-1-1.57a1.53,1.53,0,0,0-.59,0c-1,.16-1.74,1.63-2.11,2.4-1.31,3.21-1,7.51-.46,10.86.16,1,.7,3.69,1.88,4.08,1.9.67,3.39-.87,3.8-2.77l-1.74.6a.88.88,0,0,1-.82-.09.83.83,0,0,1-.39-.74l-.09-5.72a.89.89,0,0,1,.66-.91c2.13-.66,3-.94,3.88-1.17C124.22,122.48,126.21,124.53,126.35,128.36Zm-17.92-8a0,0,0,0,1-.05,0v0c-.14,0-.11.15-.11.19a.18.18,0,0,0,.13-.06A0,0,0,0,0,108.43,120.32Zm2.93,12.41a.67.67,0,0,1-.09-.3s0,0-.1,0l-.3.05c0,.22,0,.4,0,.44a.42.42,0,0,0,.08.16l.17,0a.2.2,0,0,0,.22,0A.61.61,0,0,0,111.36,132.73Zm.41-12.5.26,0a1.13,1.13,0,0,1,.59-.27l-.71,0A.44.44,0,0,0,111.77,120.23Zm0-1c0,.09.29.18.39.21s.14,0,.19.06l.05-.24a4.46,4.46,0,0,0-.51-.36s0,.09-.06.14A.18.18,0,0,0,111.8,119.28Zm3.54-4.07h.09l0-.1-.08,0Zm.45,21.63-.26,0,0,.24.08,0c.06,0,.06,0,.1,0l.17,0Zm0-21.48.07.17.35-.06a.46.46,0,0,0-.13-.25s-.08.06-.17.07A.4.4,0,0,0,115.81,115.36Zm1.75-2.17a.17.17,0,0,1,.06.08l.13,0,.07-.1c0-.05,0-.09.11-.15l-.4,0Zm.19,8.56.26,0a.14.14,0,0,0,0-.14s0-.08-.06-.12S117.74,121.67,117.75,121.75Zm.51-8.36s-.12.11-.22.26l.15.11.48-.08s.08-.06.08-.06l0-.08c-.08,0-.18,0-.19-.1s0-.1.06-.15A.85.85,0,0,1,118.26,113.39Zm.39,1.28,0-.13.07-.1a.82.82,0,0,0-.36,0c-.09,0-.17.07-.15.16l.23.09A.45.45,0,0,1,118.65,114.67Zm.2,24.44-.24-.09s-.13.06-.17.07a.24.24,0,0,0-.2.12v0a.05.05,0,0,0,.05,0l.48-.08Zm-.15-23,0,.13h.09C118.89,116.15,118.89,116.11,118.7,116.09Zm.72.56-.35.06a.46.46,0,0,0-.33.14c.14,0,.56.17.65.16a1.38,1.38,0,0,1,.34-.1c.13-.07.16-.12.15-.2S119.73,116.6,119.42,116.65Zm-.27-1.12a.22.22,0,0,1-.16.11.11.11,0,0,0-.08.11c0,.08.06.08.11.07l.26,0s0,0,0-.14S119.24,115.51,119.15,115.53Zm.57,2.41a.67.67,0,0,1,.2-.17.13.13,0,0,0,.12-.06l0-.13-.1-.07a1.18,1.18,0,0,1-.19-.06c0,.23-.21.34-.47.39l.11.16c.06.08.1.07.19.06S119.69,118,119.72,117.94Zm-.2,1c-.13,0-.16.07-.15.16l.44-.07S119.65,118.89,119.52,118.91Zm.2-1.51.08-.1,0-.13c0-.09-.07-.12-.2-.1s-.08.06-.12.06h0l0,.18A.79.79,0,0,1,119.72,117.4Zm.09-2.2c0,.13.19.06.17-.07l0-.14-.18,0Zm0,.35a.55.55,0,0,0,.55.32c.08,0,.13,0,.16-.08l.13,0s-.1-.11-.19-.1-.15-.07-.16-.15a.14.14,0,0,1-.11-.12s0-.09-.1-.07a2.55,2.55,0,0,0-.25.08S119.82,115.51,119.82,115.55Zm.39,3.21c-.16.07-.24.13-.23.21s.09,0,.14,0l.14,0s.07-.1.11-.11S120.31,118.78,120.21,118.76Zm-.11-5a.22.22,0,0,0,.26.18l.17,0c0-.05,0-.05,0-.09s0,0,0,0,0,0,0-.14-.06-.08-.25-.14a.54.54,0,0,1-.15.16C120.14,113.67,120.1,113.67,120.1,113.72Zm.39,2.93c.05,0,.05,0,0-.05s0-.18-.07-.17a.26.26,0,0,0-.07.15S120.44,116.61,120.49,116.65Zm.34,1.2a.18.18,0,0,0-.19-.06c0,.1,0,.18,0,.18S120.84,117.94,120.83,117.85Zm.19-.75-.1,0a.19.19,0,0,0-.12.07l-.18,0a1.26,1.26,0,0,0,.34.12C121,117.23,121,117.19,121,117.1Zm-.07-2.85s0,0,.08-.06v-.09l0,0Zm.25,10.25-.22,0v.08s0-.05.08-.05A.24.24,0,0,0,121.2,124.5Zm0-10.92s.1.07.25.14c0,0,0,0,0-.09l0-.18s-.1,0-.18,0S121.19,113.54,121.2,113.58Zm1.39,14.76a.77.77,0,0,1-.27,0l0,.14h.22C122.6,128.43,122.6,128.39,122.59,128.34Zm-.26-15.26s.09,0,.18,0l.15-.2h-.09s-.14,0-.23,0l0,0Zm.85,11.23c-.05,0-.14,0-.22,0a.4.4,0,0,0-.35.33.51.51,0,0,0,.27,0,1.74,1.74,0,0,0,.34-.14Zm.43,3.2v-.36a5.15,5.15,0,0,1,0-.53l-.2-.15a.79.79,0,0,0,.07-.37.15.15,0,0,0-.07-.12s0-.17,0-.4l-.13,0s-.08.06-.11.11l-.08.1c.14.29.21.42.17.47s0,.09,0,.22l.23,1.4s0,.09,0,.18l.26,1.57a.19.19,0,0,0,.2.1c.08,0,.12-.07.19-.17l-.05-.35a4.67,4.67,0,0,1-.26-1l-.08-.48s0-.09,0-.13A.17.17,0,0,1,123.61,127.51Zm-.45-2.48,0-.18-.09,0,0,.17Z"/><path class="cls-1" d="M148.11,120l0,.13h0a39.64,39.64,0,0,1,.15,4.72l-.15-.11c-.1-.08-.16-.11-.16-.16l-.39.07a.2.2,0,0,0,0,.13v.05a.29.29,0,0,1,.23,0l.26,0c0,.09.11.12.24.14l-.09,1.32-.27,0v0l.26,0a2.5,2.5,0,0,1-.1.73c0,.14-.18,0-.16.12l.14.06a19,19,0,0,1-.94,3.56h0l-.23.26.11.11-.47.93a9.54,9.54,0,0,1-7.27,5.35,8.24,8.24,0,0,1-7.59-2.38l0-.09-.08,0a1.37,1.37,0,0,1-.28-.32,12.75,12.75,0,0,1-2.51-4.15l0-.09a.14.14,0,0,1,0-.14s-.06-.08-.15-.11v.09a20.82,20.82,0,0,1-.77-2.79,3,3,0,0,0,.09-1.35l.06-.19,0-.26a1,1,0,0,1-.1-.3l0-.31c-.05,0-.06-.12-.07-.16l-.14-.87a.86.86,0,0,1,0-.32.9.9,0,0,0-.15-.37c0-.05-.06-.09-.11-.12,0-.4,0-.89,0-1.34,0-4.6.67-9.86,4.1-13.24a8.68,8.68,0,0,1,4.63-2.33,8.78,8.78,0,0,1,8.8,3.44c1.76,2.58,2.85,5.67,3.24,10.26Zm-20.17,1.47a.4.4,0,0,0-.07-.21c-.11.15-.19.25-.17.34s0,0,.1.07a.24.24,0,0,1,.14,0A.4.4,0,0,1,127.94,121.43Zm0,.54-.09,0,0,.17h.09Zm.62,5.72-.17,0a.09.09,0,0,0-.08.1s.06.08.11.11.1,0,.19.06a.19.19,0,0,1,0-.14A.12.12,0,0,0,128.52,127.69Zm-.05-1.38h-.08l.18,1.09h.08Zm1.34,1.08-.21,0v0h.23Zm.84.17-.09,0s-.09,0-.18,0c-.26,0-.29.41-.28.49a.67.67,0,0,0,.13.25l.39-.06.11-.15Zm-.51,1a.66.66,0,0,0,.21.14l-.06-.35-.12.11S130.14,128.54,130.14,128.59Zm.1.61s.09,0,.15.06.06.13,0,.17,0,.18.07.17a.28.28,0,0,1,.17-.07l0-.13c-.15-.07-.25-.14-.22-.23s0-.18-.17-.2,0,0,0,.05a.11.11,0,0,0,0,.09S130.2,129.2,130.24,129.2Zm.15.87a1.15,1.15,0,0,0,.36.56l-.12.11a0,0,0,0,0,0,0l.09,0a.28.28,0,0,1,.17-.07l-.09-.52a1.78,1.78,0,0,0-.08-.48l-.17,0c0,.05,0,.05,0,.09s0,0-.08.06A.14.14,0,0,0,130.39,130.07Zm.39,1.32,0,.17c0-.05,0-.09.07-.1s.08-.06.08-.1Zm.79,2.33a.46.46,0,0,0-.08-.17s-.05-.07-.06-.12l-.13,0c0,.05-.09,0-.14,0a.34.34,0,0,1,.21-.12,4.94,4.94,0,0,0-.07-.93c-.23,0-.32-.08-.33-.13l0-.21c0-.09,0-.14-.07-.17l.09.79a.34.34,0,0,1,.23.05c-.32.28-.28.23-.24.49a1,1,0,0,0,.08.21.78.78,0,0,1,.15.33l.23,0c-.08.06-.12.11-.16.12s0,.05,0,.09l0,0a.05.05,0,0,0,.05,0S131.58,133.81,131.57,133.72Zm0,.4-.1,0-.17,0s0,0-.08.06l0,.26.13,0s0,0,.08-.06.08-.06.13-.06Zm1.28-9.38-.11-.12c0,.1,0,.13.13.21S132.91,124.73,132.87,124.74Zm.22-15.88c.18,0,.26,0,.31,0s0,0,0,0,0,.09.06.08a.17.17,0,0,0,.14,0,.31.31,0,0,0,.16-.11s0,0-.05,0a.19.19,0,0,0-.06-.08Zm.57,17.4s-.07.15,0,.14Zm.9-17.46.22,0,.19-.2-.44.07Zm.36,5.76-.31,0,.13.2a.57.57,0,0,0,.24-.13A.33.33,0,0,0,134.92,114.56Zm.27-5.73-.26,0v0h-.05v0a.34.34,0,0,0,.34.17.26.26,0,0,0,.16-.12C135.27,109,135.21,109,135.19,108.83Zm1.1,23.67c0-.17-.31-.26-.36-.25s0-.14,0-.32l-.22,0c-.45.25-.9.51-.79.93a.58.58,0,0,1,.38.12s.09,0,.15.07a.55.55,0,0,0,.28.09A.68.68,0,0,0,136.29,132.5Zm4.7-9.85s.13,0,.12-.07a.32.32,0,0,1,.06-.19c.09,0-.15-.06-.28,0a52.33,52.33,0,0,0-.71-5.74,16.42,16.42,0,0,0-.74-2.61h0l.05,0,.26,0a.26.26,0,0,0-.12-.2c-.12.07-.2.12-.23.22a4.47,4.47,0,0,0-.52-1,1.42,1.42,0,0,0-1.87-.72c-1.33.62-1.73,3-1.85,4.28a36.65,36.65,0,0,0,.49,9.81c.19,1.18.69,3.42,1.94,3.93a1.3,1.3,0,0,0,.64.08c1.57,0,2.11-1.33,2.33-2.71a22.39,22.39,0,0,0,.26-5s0,0,.09,0A.05.05,0,0,0,141,122.65Zm-3.53,11.81s-.05,0-.06-.08l-.16.11a.25.25,0,0,0,.23.06Zm0-26.14.3,0v-.08l-.31,0Zm.57,0c.14,0,.23,0,.26.19s.16.15.42.11c.08,0,.12-.07.07-.11s-.07-.12,0-.23a2.23,2.23,0,0,0,.43-.11c.09,0,.12-.07.12-.11a.24.24,0,0,0,0-.14.67.67,0,0,1,.25-.13c.08,0,.16-.07.23-.22s-.1,0-.18,0a.43.43,0,0,1-.28,0s0,.09,0,.18a.17.17,0,0,1,0,.13s-.08.06-.15.16a.41.41,0,0,1-.24.18l-.13,0s0,0-.08.06c-.21.07-.32,0-.29-.14l0-.13A.87.87,0,0,0,138.05,108.27Zm.18-.56a.34.34,0,0,0,.29.13c.09,0,.25-.09.38-.11l.29-.14-.1-.07v0c-.09,0-.14,0-.19,0l-.17,0a1.43,1.43,0,0,1-.41,0C138.25,107.57,138.21,107.62,138.23,107.71ZM141.3,133l-.1-.07-.31.05a1.54,1.54,0,0,0-.73.48l.8,0a.42.42,0,0,1,.16-.12.33.33,0,0,0,.21-.12Zm-.92-25,.21,0v-.09l-.22,0Zm.78,8.33.16-.11-.07-.39a.76.76,0,0,0-.45-.07c-.05,0,0,.06,0,.1s0,.09,0,.14l-.15.16c-.08,0-.16.11-.15.16s.11.11.2.14l.35,0A.51.51,0,0,1,141.16,116.31Zm0,18.35-.15-.06-.13,0a.36.36,0,0,0-.27.23.74.74,0,0,0,.42.1s.08,0,.16-.11Zm-.11-.92s-.09,0-.09,0l-.13,0c-.17.08-.2.17-.19.21s0,.14.06.13,0,0,.05,0a.33.33,0,0,0,.16-.07l.18,0Zm-.3-14.67,0,.09a2.43,2.43,0,0,1,.27,0,.57.57,0,0,0,.26,0,.17.17,0,0,0,.09-.06l0-.09a.52.52,0,0,0-.37-.07C140.83,119,140.71,119,140.71,119.07Zm.13.78,0,.13s0,0,.1,0,0,0,.1.08.07-.11.2-.17l.19-.17-.13-.24C141.16,119.62,141,119.75,140.84,119.85Zm.1.61c-.06.19,0,.28.05.31a.17.17,0,0,1,.08-.06.14.14,0,0,0,.08-.06A.33.33,0,0,0,140.94,120.46Zm.53,1.57a.68.68,0,0,0,.18,0,7.1,7.1,0,0,0,.83-.41l-.57-.17a.91.91,0,0,1-.24-.1l-.24-.09c-.11.11-.16.11-.16.11a.55.55,0,0,1,0,.28l.06.35A.37.37,0,0,1,141.47,122Zm.06,2a.75.75,0,0,0,.21.23.48.48,0,0,0,.37.07.4.4,0,0,0,.33-.18l0-.18a1.9,1.9,0,0,1-.58,0,1.24,1.24,0,0,1-.49,0l0,.22A1,1,0,0,0,141.53,124Zm0,.63h-.05s0,0,0,.09.05,0,.06.08.07-.1.15-.16A.16.16,0,0,1,141.5,124.67Zm.12,1a1.62,1.62,0,0,1,.75-.3c.09,0,.13,0,.18,0l.18,0a2,2,0,0,0,.58-.27l0-.13,0,0-.48.08a1.2,1.2,0,0,1-.36,0h-.18a.33.33,0,0,0-.25.13.79.79,0,0,0-.23.22c-.1-.08-.14-.07-.19-.06l0-.18A.64.64,0,0,0,141.62,125.68Zm0-2.51-.11.15a3.32,3.32,0,0,0,.63-.28h-.09s-.09,0-.18,0A.55.55,0,0,0,141.65,123.17Zm.83-1c0-.08,0-.13-.07-.12a.13.13,0,0,0-.09,0c-.22,0-.49,0-.62.32a.35.35,0,0,0,.38.12C142.16,122.46,142.5,122.31,142.48,122.18Zm-.69-5.57h.08a.21.21,0,0,1,.13-.07s0,0-.1-.07l-.15-.07Zm.2,10.26a.13.13,0,0,0-.09,0,.1.1,0,0,1-.11-.07.45.45,0,0,0,0,.14S141.91,126.93,142,126.87Zm-.05-8a.5.5,0,0,0-.17.07s.11.08.15.07l.13,0v0l0-.06S142,118.9,141.94,118.91Zm.5,1.94a.38.38,0,0,1-.28-.32c0-.09,0-.17-.18-.28,0,0,0,0-.08.06a.21.21,0,0,1-.12.06.09.09,0,0,1,0,.13.44.44,0,0,0,0,.18.68.68,0,0,0,.16.16.73.73,0,0,0,.39.2C142.41,120.94,142.44,120.89,142.44,120.85Zm.12-1.41.14,0,0-.22-.13,0Zm.28,6.62V126l-.26,0v.08Zm-.17-2.43.13.24a.21.21,0,0,0,.1-.19A.3.3,0,0,0,142.67,123.63Zm1.76,7.5a1.76,1.76,0,0,0-.62-.26,3.49,3.49,0,0,1-.46-.06c-.09,0-.1-.07-.11-.16l-.11-.07-.09,0H143c-.17,0-.25.09-.23.22a.66.66,0,0,1,0,.32s.1.07.15.06.1.08.14.07.1.07.12.16v.09a2.82,2.82,0,0,0,.7.15A2.18,2.18,0,0,0,144.43,131.13Zm-1.63-8.6,0,.22.3-.09A.69.69,0,0,0,142.8,122.53Zm0-2.82.31,0a.71.71,0,0,0-.15-.34c0,.09,0,.13-.06.19S142.82,119.66,142.83,119.71Zm.07,6.7a.34.34,0,0,0,.39-.07l-.11-.16a.6.6,0,0,1-.16.16A.23.23,0,0,0,142.9,126.41Zm.07-5.83c.11.07.14,0,.08-.06s-.05-.08-.06-.12a.37.37,0,0,0,0,.14Zm.15,8.25a.14.14,0,0,1-.1,0l0,.22a.17.17,0,0,0,.14-.2Zm.53,4.88-.18,0a.16.16,0,0,0-.14.2c0,.05.06.08.1.08l.1.07c0-.05.12-.06.25-.09A.19.19,0,0,0,143.65,133.71Zm.14-11.43-.26,0c0,.14,0,.22.18.29l.22,0c0-.09,0-.17-.08-.17S143.8,122.32,143.79,122.28Zm.09,10.68.15-.16s-.12-.2-.13-.25-.07.06-.19.17-.13.06-.12.11a.1.1,0,0,0,.1.07A.23.23,0,0,1,143.88,133Zm1.44-5.43-.06-.35a.64.64,0,0,0-.23-.05c0,.05,0,.1-.07.1s0,0-.07.11a.24.24,0,0,1-.16.11l-.28,0,0-.13c.17-.08.29-.14.28-.18l0-.18-.26,0a3.77,3.77,0,0,0-.54.23l.05.3c0,.13.07.17.08.26l.26,0a1.61,1.61,0,0,0,.63-.28A.47.47,0,0,0,145.32,127.53Zm0-.8s0,0,0-.13a.23.23,0,0,0-.16-.16c-.09,0-.14-.06-.15-.1a.38.38,0,0,1,.09-.24.38.38,0,0,0,.1-.24,1.2,1.2,0,0,0-.29-.4l-.48.07.1.08.05.26a.91.91,0,0,1,0,.32.44.44,0,0,1-.18-.24s-.1-.07-.28-.09a.62.62,0,0,0,0,.54.93.93,0,0,0,.4,0,1.38,1.38,0,0,1,.4,0,.84.84,0,0,0-.06.45.86.86,0,0,0,.48-.07A.06.06,0,0,1,145.28,126.73Zm-.82,1.3a2.72,2.72,0,0,0-.48-.19l0,.18.15.06ZM144,125c0,.09.05.09.05.09s.06,0,.06.07l.39-.06a.25.25,0,0,0,.19,0c.08,0,.11-.15.08-.32a2.35,2.35,0,0,0-.41,0C144.2,124.76,144,124.76,144,125Zm.2-.39c.17-.07.2-.12.19-.21s-.14-.06-.32,0Zm-.12-1.59c0,.09.06.13.1.12l.13,0c0-.1.06-.19,0-.27s0-.14.22-.26c0,0,0,0-.05,0h0a0,0,0,0,1-.05,0A1,1,0,0,0,144.09,123Zm.12,10.59-.12.11.15.1C144.27,133.7,144.26,133.61,144.21,133.58Zm0-9.8a.17.17,0,0,0,0,.1c0,.09.07.12.2.14a1,1,0,0,1,.19-.21.58.58,0,0,0-.33-.12C144.21,123.78,144.21,123.78,144.17,123.78Zm.34-.68,0,.18a.47.47,0,0,1,.24,0l.07-.1v0C144.77,123.1,144.68,123.07,144.51,123.1Zm.05-2.65c.05,0,.13-.06.35-.1a.25.25,0,0,1,.29.13l-.22.31a1.09,1.09,0,0,0,.62,0c-.19-.11-.25-.19-.13-.25a.78.78,0,0,1,.19-.21c-.46-.06-.73-.1-1-.11l-.07.1C144.6,120.4,144.56,120.41,144.56,120.45Zm.14,1.1h.09l.07-.11-.1,0Zm.08-1.67a.34.34,0,0,1,.34.13c.11-.16.09-.24-.05-.31a.24.24,0,0,1-.16.11A.24.24,0,0,0,144.78,119.88Zm.43,10.54a.33.33,0,0,0,.17-.08l.13,0-.12-.2a1.9,1.9,0,0,0-.5.26A.39.39,0,0,0,145.21,130.42Zm0-7.89v-.09l-.35.06v.09Zm-.27.54c0,.08.07.12.11.11s.12-.1.11-.15Zm.73,7.44h-.05s-.13,0-.13,0a.2.2,0,0,0-.14,0c-.09,0-.17.08-.21.08s0,0-.08.06l-.09,0s.1.07.15.1l.11.12,0,.13s0,.05,0,.1l.35-.06a.4.4,0,0,0,.12-.38Zm-.45-6.59,0-.13-.13,0,0,.13Zm1.11,0c0-.14.1-.19.09-.24a.93.93,0,0,1-.45.25.63.63,0,0,1-.23,0,1.23,1.23,0,0,1-.24-.09s0,.05-.07.1a.15.15,0,0,1-.13.06l0,.22a1.94,1.94,0,0,1,.44,0,.81.81,0,0,0,.31,0A.26.26,0,0,0,146.38,123.87Zm-.56.94a.41.41,0,0,1,.23,0,.63.63,0,0,0,0-.23.25.25,0,0,1-.07-.17.1.1,0,0,1,.07-.1l-.09,0s0,0,0,0c.07.17,0,.27-.22.26a.74.74,0,0,0-.38.2.3.3,0,0,1,.14,0A.7.7,0,0,0,145.82,124.81Zm.61-3.9h-.09s-.05,0-.14,0-.08,0-.08.06l-.13,0a.2.2,0,0,0-.19.21c.13,0,.18,0,.21-.12.06.08.1.07.06.08v.08l-.65.42a1,1,0,0,0,.11.39c.07.17.19.06.23,0l.18,0a.52.52,0,0,1,.23,0,1.54,1.54,0,0,1,.34.17l-.12.11s0,0-.05,0l-.09,0a.31.31,0,0,0-.24.13.67.67,0,0,1-.21.12l-.21,0c.1.07.16.15.16.19a.63.63,0,0,0,.17.2.17.17,0,0,0,.2.14.72.72,0,0,0,.44-.07c-.15-.06-.18-.28-.18-.28h-.09c-.17,0-.27,0-.28,0v0l.29-.14a1.05,1.05,0,0,0,.25-.09c.08-.06.17-.07.2-.16a1.25,1.25,0,0,0,.2-.17c-.18,0-.23,0-.29-.09l0-.17h-.08c-.05,0-.05,0-.06-.08a.15.15,0,0,1,0-.14l.12-.1s-.1,0-.2-.11-.14-.06-.15-.11.15-.16.37-.19a1.23,1.23,0,0,1-.2-.1c-.05,0-.1-.08-.1-.12l.21,0a.85.85,0,0,0,.53,0,.19.19,0,0,1,0-.14.16.16,0,0,0,0-.13c0-.13-.39-.17-.47-.15a.5.5,0,0,1-.05.23A.25.25,0,0,1,146.43,120.91Zm-.7,4.5-.17-.24a.17.17,0,0,0-.12-.16,1.22,1.22,0,0,0,.13.47.13.13,0,0,1,.12-.06Zm.14-3c0-.05,0-.09,0-.17l-.3,0,0,.18Zm-.34-2.63c0,.09,0,.09.07.13l.1.07a.34.34,0,0,0,.05-.23Zm.22,6.23,0-.22-.13,0,0,.21Zm-.16.12.13.24c.12-.06.16-.11.14-.2a.15.15,0,0,1-.14,0A.35.35,0,0,0,145.59,126.15Zm.08.52a.14.14,0,0,0,.1,0l.14.07q.1-.22.24-.18c.1.08.23,0,.39-.06a.11.11,0,0,1,0-.08l-.06,0A2.73,2.73,0,0,1,145.67,126.67Zm.26,3h-.09l-.06.14.09,0Zm-.14-4.45.43-.08s.08,0,.08,0a.1.1,0,0,1,.07-.11c-.13,0-.26,0-.31,0l-.26,0Zm0-4.44c0,.09.06.12.16.15l.22,0c.07-.1.06-.15.06-.15s.08-.06.07-.14A.67.67,0,0,0,145.82,120.74Zm1.74,4.9c-.09,0-.19,0-.29-.13a.38.38,0,0,0-.24-.09c-.08,0-.08,0-.08.06h0a.93.93,0,0,1-.55-.09,1.51,1.51,0,0,0,.38-.15s.16-.07.25-.08a1.56,1.56,0,0,0,.08.21l.17,0s.13,0,.13-.07l0,0,0-.13c-.09,0-.22,0-.28-.08a.26.26,0,0,1-.24-.1c.15-.16.27-.27.36-.28a1.9,1.9,0,0,0-.35-.21.91.91,0,0,0-.53,0l.44.24s-.07.1-.12.11-.16.11-.19.16-.05.28-.36.55l-.07.15a1.61,1.61,0,0,0,.54,0l.55,0,0,.13c0,.05-.13.06-.21.08.08,0,0,0-.16.11a.5.5,0,0,0,.41.07l.07-.15A1.76,1.76,0,0,0,147.56,125.64Zm-1.45,1.23V127l.22,0,0-.09Zm.23-.76a.34.34,0,0,0,.21-.08s-.05,0-.14,0l-.26,0A.34.34,0,0,1,146.34,126.11Zm.22,3.28c-.05,0-.18,0-.35,0a.17.17,0,0,1,.06.08l.1.12a.43.43,0,0,0,.17-.07A.31.31,0,0,0,146.56,129.39Zm.19-.25c-.06,0-.14,0-.27,0l-.26.05.24.09a.41.41,0,0,1,.23.1A.32.32,0,0,1,146.75,129.14Zm0-1.17a.3.3,0,0,0-.28-.13l0,.18Zm-.28-8h.31v0l-.32,0Zm1.18,3.12c-.18,0-.27,0-.33-.08.16-.12.19-.21.09-.28a.34.34,0,0,1-.12-.21c0,.13-.05.23-.23.26l-.26,0c-.13,0-.22,0-.25.08a.84.84,0,0,1,.35,0,.73.73,0,0,0,.2.1A.43.43,0,0,0,147.63,123Zm.07,4.24c-.09,0-.19,0-.23,0a.27.27,0,0,1-.22,0,.41.41,0,0,1,.08-.32,1.31,1.31,0,0,1-.29.13,1,1,0,0,0-.38.16l0,.26.52-.09C147.44,127.37,147.61,127.29,147.7,127.28Zm-.51.44c-.05,0-.1,0-.23,0a.33.33,0,0,0-.22,0l.25.18c.07-.11.07-.11.12-.11S147.14,127.73,147.19,127.72Zm0,1a.31.31,0,0,1-.22-.23s-.08.06-.06.15,0,.09,0,.13Zm0,.9-.22,0,0,.13.22,0Zm.16-8.3-.37-.07a.35.35,0,0,0,.44.24c.09,0,.13,0,.13-.07h.08A.6.6,0,0,0,147.35,121.34Zm-.37-1.15c0,.09.08.17.12.16l.25-.08s0,0-.06-.09v-.08a.35.35,0,0,0-.17.07Zm.25,4s0,0,0,0l-.05,0-.12.11Zm.37-2.12a.79.79,0,0,1-.12-.2s-.06-.09-.2-.11-.15.16-.19.17-.08.1-.07.14l.1,0v0l.22,0C147.48,122.12,147.57,122.11,147.6,122.06Zm-.16,1.73-.31,0,0,.08.3,0Zm-.24-3.9.61-.1v-.09l-.61.1Zm.43,1.27a.14.14,0,0,0,0-.1l0,0h-.31C147.4,121.11,147.45,121.14,147.63,121.16Zm.32-3-.45,0-.07.1s0,0,0,.1a.8.8,0,0,1,.34-.1A.4.4,0,0,1,148,118.2Zm-.13,5.48-.26,0a.08.08,0,0,0,0,.13.19.19,0,0,1,.06.08s0,0,0-.05,0,0,0-.09Zm-.24-3.36.27,0C147.69,120.17,147.61,120.18,147.58,120.32Zm.72,2.21c-.31,0-.4,0-.31,0-.18,0-.5,0-.11.15a.31.31,0,0,0,.27,0S148.23,122.63,148.3,122.53Zm-.57,3,0,.13h.09l0-.13Zm.35-4.39-.21,0v.09l.22,0Zm0,1.61a.13.13,0,0,0,0,.09c0,.05,0,.05,0,.1l.09,0,0,0C148.27,122.89,148.12,122.78,148.08,122.79Z"/><path class="cls-1" d="M170.64,116.28l0,.13h0a39.64,39.64,0,0,1,.15,4.72l-.15-.11c-.1-.07-.15-.11-.16-.15l-.39.06a.22.22,0,0,0,0,.14v0c.09,0,.18,0,.23,0l.26,0c0,.08.11.11.25.14l-.1,1.31-.26,0v0l.26,0a2.61,2.61,0,0,1-.1.74c0,.13-.17,0-.16.11l.14.07a19.94,19.94,0,0,1-.93,3.55h-.05l-.22.26.1.12-.47.92a9.54,9.54,0,0,1-7.27,5.35,8.21,8.21,0,0,1-7.59-2.38l0-.08h-.08a2,2,0,0,1-.28-.31,12.8,12.8,0,0,1-2.51-4.16l0-.09a.15.15,0,0,1,0-.14s-.06-.08-.15-.11v.09a21.09,21.09,0,0,1-.77-2.78,3,3,0,0,0,.09-1.36l.06-.19,0-.26a.67.67,0,0,1-.09-.3l-.05-.3a.33.33,0,0,1-.08-.17l-.14-.87a1.08,1.08,0,0,1,0-.31,1,1,0,0,0-.15-.38s-.05-.08-.11-.12c0-.4,0-.88,0-1.34,0-4.6.67-9.86,4.1-13.24A9.07,9.07,0,0,1,167.44,106c1.76,2.57,2.85,5.66,3.24,10.25Zm-20.16,1.46a.54.54,0,0,0-.08-.21c-.11.15-.19.25-.17.34s.05,0,.1.07a.2.2,0,0,1,.14,0A.46.46,0,0,1,150.48,117.74Zm0,.55h-.09l0,.17h.09Zm.62,5.71-.17,0a.09.09,0,0,0-.07.1s.05.08.1.12a1.08,1.08,0,0,0,.19.06.23.23,0,0,1,0-.14C151.15,124.07,151.1,124,151.05,124Zm0-1.38h-.09l.18,1.09h.08Zm1.34,1.08-.22,0v0h.23Zm.83.18h-.09s-.09,0-.18,0c-.26,0-.29.41-.28.5a.7.7,0,0,0,.13.24l.4-.06.11-.15Zm-.5,1a.42.42,0,0,0,.2.14l-.06-.34-.12.1S152.67,124.85,152.68,124.9Zm.1.61s.08,0,.14.06.07.13,0,.18,0,.17.07.17a.3.3,0,0,1,.17-.08l0-.13c-.15-.06-.25-.14-.22-.23s0-.17-.17-.2,0,0,0,0a.13.13,0,0,0,0,.1S152.73,125.52,152.78,125.51Zm.14.87a1.17,1.17,0,0,0,.36.57l-.12.11s0,0,0,0l.09,0a.3.3,0,0,1,.17-.08l-.09-.52a1.5,1.5,0,0,0-.08-.48l-.17,0s0,0,0,.09,0,0-.08.06A.15.15,0,0,0,152.92,126.38Zm.39,1.32,0,.18s0-.1.07-.11.09,0,.08-.1Zm.79,2.33a.47.47,0,0,0-.07-.16c-.05,0-.06-.08-.07-.13l-.13,0s-.09,0-.14,0a.39.39,0,0,1,.21-.12,5,5,0,0,0-.07-.93c-.23-.05-.32-.08-.33-.12l0-.22c0-.09,0-.13-.07-.17l.09.79a.41.41,0,0,1,.23.05c-.31.28-.28.23-.23.49a.47.47,0,0,0,.07.21.76.76,0,0,1,.15.34.63.63,0,0,1,.23.05c-.08,0-.12.11-.16.11s0,.05,0,.1l0,0s0,.05.05,0S154.11,130.12,154.1,130Zm0,.4-.09,0-.18,0s0,0-.08.06l0,.26.13,0s0,0,.08-.06.08,0,.13-.06Zm1.28-9.38-.11-.12c0,.1,0,.13.13.21S155.45,121,155.4,121.05Zm.22-15.88c.18,0,.26,0,.32,0a0,0,0,0,1,.05,0s0,.09,0,.08a.2.2,0,0,0,.14,0,.31.31,0,0,0,.16-.12s0,0-.05,0a.19.19,0,0,0-.06-.08Zm.57,17.41s-.07.14,0,.13Zm.9-17.47.22,0,.19-.21-.44.07Zm.36,5.76-.3,0,.12.21a.85.85,0,0,0,.25-.13A.46.46,0,0,0,157.45,110.87Zm.27-5.73-.26,0v0h-.05v0a.35.35,0,0,0,.34.17c.09,0,.12-.07.16-.12C157.8,105.35,157.74,105.28,157.72,105.14Zm1.1,23.67c0-.17-.31-.26-.35-.25s0-.14,0-.31l-.22,0c-.45.26-.9.51-.79.94a.55.55,0,0,1,.38.11.26.26,0,0,1,.15.07.49.49,0,0,0,.28.09A.67.67,0,0,0,158.82,128.81Zm4.7-9.85s.13,0,.12-.06a.29.29,0,0,1,.06-.19.57.57,0,0,0-.28,0,50,50,0,0,0-.71-5.74,16.73,16.73,0,0,0-.74-2.61h0l.05,0,.26,0a.29.29,0,0,0-.12-.21c-.12.07-.2.13-.23.22a4.47,4.47,0,0,0-.52-1,1.42,1.42,0,0,0-1.87-.72c-1.33.62-1.73,3.06-1.84,4.28a36.2,36.2,0,0,0,.48,9.81c.19,1.18.7,3.42,1.94,3.94a1.43,1.43,0,0,0,.64.07c1.57,0,2.11-1.33,2.33-2.71a21.82,21.82,0,0,0,.26-5c.05,0,.05,0,.09,0S163.52,119,163.52,119ZM160,130.77s-.05,0-.06-.08l-.16.12a.29.29,0,0,0,.24.05Zm0-26.13.31,0,0-.09-.3,0Zm.57,0c.14,0,.24,0,.26.18s.16.15.42.11c.09,0,.12-.07.07-.1s-.06-.13,0-.23a2.78,2.78,0,0,0,.43-.12c.09,0,.12-.06.12-.11a.24.24,0,0,0,0-.14.85.85,0,0,1,.25-.13c.08,0,.16-.07.23-.21s-.09,0-.18,0a.43.43,0,0,1-.28,0,.21.21,0,0,0,0,.18.24.24,0,0,1,0,.14c-.05,0-.08.05-.16.16a.35.35,0,0,1-.24.17l-.13,0s0,0-.08.06c-.21.08-.32,0-.29-.13l0-.13A.82.82,0,0,0,160.58,104.59Zm.18-.57c.11.12.2.15.29.13s.25-.08.38-.1l.29-.14-.1-.08v0a.2.2,0,0,1-.19,0l-.17,0a1.43,1.43,0,0,1-.41,0C160.78,103.88,160.74,103.93,160.76,104Zm3.07,25.32-.1-.08-.31.05a1.54,1.54,0,0,0-.73.48l.8,0a.31.31,0,0,1,.16-.11.33.33,0,0,0,.21-.13Zm-.92-25,.22,0,0-.09-.22,0Zm.78,8.32.16-.11-.07-.39a.69.69,0,0,0-.45-.06c-.05,0,0,0,0,.09s0,.09,0,.14l-.16.16c-.08.06-.16.11-.15.16s.11.11.2.15l.35-.06A.51.51,0,0,1,163.69,112.62Zm0,18.36-.15-.07-.13,0a.36.36,0,0,0-.27.23.85.85,0,0,0,.42.11s.08-.06.16-.12Zm-.11-.92s-.08,0-.09,0l-.13,0c-.17.07-.2.16-.19.21s0,.13.06.12,0,0,.05,0a.25.25,0,0,0,.16-.07l.18,0Zm-.3-14.68,0,.09a2.43,2.43,0,0,1,.27,0,.61.61,0,0,0,.27,0,.17.17,0,0,0,.08-.06l0-.08a.48.48,0,0,0-.37-.08C163.36,115.27,163.24,115.34,163.24,115.38Zm.13.79,0,.13s.06,0,.1,0,0,0,.1.07.07-.1.2-.17l.19-.16-.13-.25C163.69,115.94,163.49,116.06,163.37,116.17Zm.1.61c-.06.19,0,.27.05.3a.17.17,0,0,1,.08-.06.11.11,0,0,0,.08,0A.28.28,0,0,0,163.47,116.78Zm.53,1.57s.09,0,.18,0a6.48,6.48,0,0,0,.83-.4l-.57-.18a1.54,1.54,0,0,1-.24-.09l-.24-.1c-.11.11-.16.12-.16.12a.53.53,0,0,1,0,.27l.06.35A.48.48,0,0,1,164,118.35Zm.06,2a.79.79,0,0,0,.22.23.47.47,0,0,0,.37.08.43.43,0,0,0,.32-.19l0-.17a2.23,2.23,0,0,1-.58,0,1.08,1.08,0,0,1-.49,0l0,.22A.77.77,0,0,0,164.06,120.35Zm0,.63H164s0,.05,0,.09.06,0,.06.08.07-.1.15-.16A.16.16,0,0,1,164,121Zm.12,1a1.62,1.62,0,0,1,.75-.3.21.21,0,0,1,.18,0l.18,0a2,2,0,0,0,.58-.28l0-.13,0,0-.48.08a1.39,1.39,0,0,1-.36,0l-.18,0a.33.33,0,0,0-.24.13,1,1,0,0,0-.24.22c-.1-.07-.14-.07-.19-.06l0-.17A.61.61,0,0,0,164.15,122Zm0-2.51-.11.15a2.61,2.61,0,0,0,.63-.28h-.09s-.09,0-.18,0A.55.55,0,0,0,164.18,119.48Zm.83-1c0-.08,0-.13-.07-.12a.13.13,0,0,0-.09,0c-.22,0-.49,0-.62.33a.37.37,0,0,0,.38.11C164.69,118.77,165,118.63,165,118.49Zm-.69-5.57h.09a.17.17,0,0,1,.12-.07s0,0-.1-.07l-.15-.06Zm.2,10.26a.22.22,0,0,0-.09,0,.08.08,0,0,1-.1-.07.36.36,0,0,0,0,.14S164.44,123.24,164.52,123.18Zm-.05-8a.25.25,0,0,0-.16.07c.05,0,.1.07.14.06l.13,0v0l0,0S164.56,115.21,164.47,115.23Zm.5,1.93a.37.37,0,0,1-.28-.31c0-.1,0-.18-.18-.29,0,0,0,0-.08.06s-.12.06-.12.06a.09.09,0,0,1,0,.14.42.42,0,0,0,0,.18.77.77,0,0,0,.16.15.67.67,0,0,0,.4.2C164.94,117.25,165,117.2,165,117.16Zm.12-1.41.14,0,0-.22-.13,0Zm.28,6.62v-.09l-.26,0v.09Zm-.17-2.43.13.25a.24.24,0,0,0,.1-.2A.39.39,0,0,0,165.2,119.94Zm1.76,7.5a1.76,1.76,0,0,0-.62-.26,2.35,2.35,0,0,1-.46-.06c-.09,0-.1-.07-.11-.16l-.11-.07-.09,0h-.09c-.17,0-.25.09-.23.22a.64.64,0,0,1,0,.32.26.26,0,0,0,.15.07c.06.08.1.07.14.06s.1.07.12.16v.09a2.91,2.91,0,0,0,.7.15A2.18,2.18,0,0,0,167,127.44Zm-1.63-8.6,0,.22.3-.09A1,1,0,0,0,165.33,118.84Zm0-2.82.31,0a.69.69,0,0,0-.15-.33c0,.08,0,.13-.05.18S165.36,116,165.36,116Zm.07,6.7a.32.32,0,0,0,.39-.06l-.11-.16a.8.8,0,0,1-.16.16A.19.19,0,0,0,165.43,122.72Zm.08-5.83c.1.07.13,0,.08-.06s-.06-.08-.07-.12a.37.37,0,0,0,0,.14Zm.14,8.26a.23.23,0,0,1-.1,0l0,.21a.19.19,0,0,0,.15-.2Zm.53,4.88-.18,0a.16.16,0,0,0-.14.2.1.1,0,0,0,.1.07l.1.07c0-.05.12-.06.26-.08S166.32,130.05,166.18,130Zm.14-11.44-.26,0c0,.13,0,.21.18.28l.22,0c0-.08,0-.17-.07-.16S166.33,118.64,166.32,118.59Zm.09,10.68.16-.16s-.13-.2-.13-.24-.08,0-.2.16-.12.07-.12.11a.1.1,0,0,0,.1.07A.27.27,0,0,1,166.41,129.27Zm1.44-5.42-.06-.35a.39.39,0,0,0-.23,0s0,.09-.07.1,0,0-.07.1a.29.29,0,0,1-.16.12l-.28,0,0-.13c.17-.07.29-.14.28-.18l0-.18-.26,0a3.62,3.62,0,0,0-.54.22l.05.31c0,.13.07.16.08.25l.27,0a2,2,0,0,0,.62-.28A.5.5,0,0,0,167.85,123.85Zm0-.8s0,0,0-.14a.22.22,0,0,0-.16-.15c-.09,0-.14-.07-.15-.11a.35.35,0,0,1,.1-.24.39.39,0,0,0,.09-.24,1.17,1.17,0,0,0-.29-.4l-.48.08.1.07.05.26a.88.88,0,0,1,0,.32.35.35,0,0,1-.17-.24s-.1-.07-.29-.09a.64.64,0,0,0,0,.55,1.41,1.41,0,0,0,.4,0,1.08,1.08,0,0,1,.4,0,.86.86,0,0,0-.06.46,1,1,0,0,0,.48-.08A.05.05,0,0,1,167.81,123.05Zm-.82,1.29a2.72,2.72,0,0,0-.48-.19l0,.18.15.06Zm-.45-3c0,.08.06.08.06.08s.05,0,.05.08l.4-.07s.13,0,.18,0,.11-.15.08-.33a2.14,2.14,0,0,0-.41,0C166.73,121.08,166.5,121.07,166.54,121.29Zm.2-.4c.17-.07.21-.12.19-.21s-.14-.06-.32,0Zm-.12-1.58c0,.08.06.12.1.11l.14,0a.32.32,0,0,0,0-.27c-.05,0,0-.14.22-.26,0,0,0,0-.05,0h0a0,0,0,0,1-.05,0A1,1,0,0,0,166.62,119.31Zm.12,10.58-.12.11.15.11C166.8,130,166.79,129.93,166.74,129.89Zm0-9.79a.13.13,0,0,0,0,.09c0,.09.07.12.2.15a.66.66,0,0,1,.19-.21.53.53,0,0,0-.33-.13C166.74,120.09,166.74,120.09,166.7,120.1Zm.34-.68,0,.17a.45.45,0,0,1,.23,0l.07-.1v0C167.31,119.42,167.21,119.39,167,119.42Zm.06-2.65a1.36,1.36,0,0,1,.34-.11.24.24,0,0,1,.29.14l-.22.3a1,1,0,0,0,.62,0c-.19-.1-.25-.18-.13-.25a1,1,0,0,1,.19-.21c-.45-.06-.73-.1-1-.11l-.07.1C167.13,116.71,167.09,116.72,167.1,116.77Zm.13,1.09h.09l.07-.1-.09,0Zm.09-1.67a.33.33,0,0,1,.33.13c.11-.16.09-.24-.05-.31a.26.26,0,0,1-.16.12A.16.16,0,0,0,167.32,116.19Zm.42,10.54a.28.28,0,0,0,.17-.07l.13,0-.12-.2a2.3,2.3,0,0,0-.5.26A.39.39,0,0,0,167.74,126.73Zm0-7.89v-.08l-.35,0,0,.09Zm-.27.54c0,.09.07.12.11.12s.12-.11.11-.15Zm.73,7.44h0c-.05,0-.13,0-.14,0a.17.17,0,0,0-.14,0,.93.93,0,0,0-.21.08s0,0-.08,0l-.09,0s.1.07.15.11l.11.11,0,.14s0,0,0,.09l.34-.06a.4.4,0,0,0,.12-.38Zm-.45-6.59,0-.13-.14,0,0,.13Zm1.11,0c0-.13.1-.19.09-.24a1.08,1.08,0,0,1-.45.26,1.12,1.12,0,0,1-.23-.06.67.67,0,0,1-.24-.09s0,0-.07.1a.19.19,0,0,1-.13.07l0,.21a1.53,1.53,0,0,1,.44,0,1.13,1.13,0,0,0,.32,0A.24.24,0,0,0,168.91,120.18Zm-.56.95a.3.3,0,0,1,.23.05.68.68,0,0,0,0-.24.25.25,0,0,1-.07-.16.08.08,0,0,1,.07-.1h-.09s0,0,0,0c.07.17,0,.27-.22.26a.75.75,0,0,0-.37.2.26.26,0,0,1,.13,0A.69.69,0,0,0,168.35,121.13Zm.61-3.91-.09,0s-.05,0-.13,0-.09,0-.08.06l-.14,0a.21.21,0,0,0-.19.21c.14,0,.18,0,.21-.12.06.08.1.07.06.08v.09L168,118a1,1,0,0,0,.11.38c.07.17.19.06.23.05l.18,0a.47.47,0,0,1,.23.06,1.48,1.48,0,0,1,.34.16l-.12.11s0,0-.05,0h-.08a.31.31,0,0,0-.25.13.57.57,0,0,1-.2.12l-.22,0c.1.07.16.15.16.19a.54.54,0,0,0,.17.2.19.19,0,0,0,.2.15.8.8,0,0,0,.44-.07.41.41,0,0,1-.18-.29l-.09,0c-.17,0-.27,0-.27,0v0l.29-.14a1.05,1.05,0,0,0,.25-.09c.08,0,.17-.07.2-.16a1.25,1.25,0,0,0,.2-.17c-.18,0-.23,0-.29-.09l0-.17h-.08c-.05,0-.05,0-.06-.08a.16.16,0,0,1,0-.13l.12-.11s-.1,0-.2-.1-.14-.07-.15-.11.15-.16.37-.2a.56.56,0,0,1-.19-.1c-.05,0-.11-.07-.11-.12l.22,0a.93.93,0,0,0,.53,0,.14.14,0,0,1,0-.14.18.18,0,0,0,0-.14c0-.13-.38-.16-.47-.15a.55.55,0,0,1-.05.24A.24.24,0,0,1,169,117.22Zm-.7,4.5-.17-.24a.19.19,0,0,0-.11-.16c0,.26.07.44.12.47s.08-.05.12-.06Zm.14-3s0-.09,0-.17l-.31.05v.18Zm-.34-2.63c0,.09,0,.09.07.13l.1.07a.29.29,0,0,0,.05-.23Zm.22,6.24,0-.22-.13,0,0,.22Zm-.16.11.13.25c.12-.07.16-.12.14-.2a.2.2,0,0,1-.14,0A.35.35,0,0,0,168.12,122.46Zm.08.52a.14.14,0,0,0,.1,0l.14.07c.07-.15.15-.2.24-.17s.23,0,.39-.07a.11.11,0,0,1,0-.08l-.05,0A3.19,3.19,0,0,1,168.2,123Zm.26,3h-.08l-.07.15.09,0Zm-.14-4.45.43-.07a.14.14,0,0,0,.08-.06.11.11,0,0,1,.08-.1c-.14,0-.27,0-.32,0l-.26,0Zm0-4.44a.2.2,0,0,0,.16.16l.22,0c.07-.1.06-.15.06-.15s.08,0,.07-.14A.67.67,0,0,0,168.35,117.05Zm1.74,4.91c-.08,0-.18-.06-.29-.13a.4.4,0,0,0-.24-.1c-.08,0-.08,0-.08.06h0a1.13,1.13,0,0,1-.55-.09,3.16,3.16,0,0,0,.38-.15,1.37,1.37,0,0,1,.25-.09,1.94,1.94,0,0,0,.08.21l.18,0s.13,0,.12-.06l0,0,0-.13c-.09,0-.22,0-.28-.09a.26.26,0,0,1-.24-.1.91.91,0,0,1,.36-.28,1.9,1.9,0,0,0-.35-.21,1,1,0,0,0-.53,0l.44.24s-.07.1-.11.11-.16.12-.2.17-.05.27-.36.55l-.06.14a1.55,1.55,0,0,0,.53,0l.55,0,0,.13a.31.31,0,0,1-.21.08c.09,0,0,0-.16.12a.54.54,0,0,0,.41.06l.07-.14A2.16,2.16,0,0,0,170.09,122Zm-1.45,1.22v.09l.22,0v-.09Zm.23-.75a.42.42,0,0,0,.21-.08s-.05,0-.13,0l-.27.05A.29.29,0,0,1,168.87,122.43Zm.23,3.27c-.06,0-.19,0-.36,0a.17.17,0,0,1,.06.08l.11.12a.33.33,0,0,0,.16-.07A.58.58,0,0,0,169.1,125.7Zm.18-.25c-.05,0-.14,0-.27,0l-.26,0,.24.09a.61.61,0,0,1,.24.1A.29.29,0,0,1,169.28,125.45Zm0-1.16a.31.31,0,0,0-.29-.14l0,.19Zm-.29-8.06h.31v0l-.32,0Zm1.18,3.12c-.18,0-.27,0-.33-.08.16-.12.19-.21.09-.28a.34.34,0,0,1-.12-.21c0,.13-.05.24-.23.27l-.26,0c-.13,0-.22,0-.25.09a.72.72,0,0,1,.35,0,.53.53,0,0,0,.2.1A.43.43,0,0,0,170.16,119.35Zm.07,4.24a.78.78,0,0,1-.23,0,.33.33,0,0,1-.22,0,.42.42,0,0,1,.08-.33,2.37,2.37,0,0,1-.29.14,1,1,0,0,0-.38.15l0,.26.52-.09A3.6,3.6,0,0,0,170.23,123.59Zm-.51.44c-.05,0-.1,0-.23,0a.33.33,0,0,0-.22,0l.25.18c.07-.1.07-.1.12-.11S169.67,124,169.72,124Zm0,1a.36.36,0,0,1-.22-.24s-.08.06-.06.15,0,.09,0,.14Zm0,.9-.22,0,0,.13.22,0Zm.16-8.31-.37-.07a.35.35,0,0,0,.44.24c.09,0,.13,0,.13-.07h.08A.6.6,0,0,0,169.88,117.65Zm-.37-1.15c0,.09.08.17.12.16l.25-.08s0,0,0-.08l0-.09a.4.4,0,0,0-.16.07Zm.25,4s0,0,0,0l-.05,0-.11.11Zm.37-2.12a1.28,1.28,0,0,1-.12-.2s-.06-.08-.2-.1-.15.16-.19.16-.08.1-.07.15l.1,0v0l.22,0C170,118.44,170.1,118.42,170.13,118.37ZM170,120.1l-.31.05,0,.09.3,0Zm-.24-3.9.61-.1V116l-.61.1Zm.43,1.27a.13.13,0,0,0,0-.09l0,0h-.31C169.93,117.42,170,117.46,170.16,117.47Zm.33-3H170l-.08.1s0,.05,0,.09a.8.8,0,0,1,.34-.1A.49.49,0,0,1,170.49,114.51Zm-.14,5.48-.26,0s0,.1,0,.13a.19.19,0,0,1,.06.08s0,0,0,0,0,0,0-.09Zm-.23-3.36.26,0C170.23,116.48,170.14,116.49,170.12,116.63Zm.72,2.21c-.32,0-.41,0-.32,0-.18,0-.5,0-.11.15a.34.34,0,0,0,.27,0S170.76,118.94,170.84,118.84Zm-.58,3,0,.13.09,0,0-.13Zm.35-4.4-.21,0v.09l.22,0Zm0,1.61a.13.13,0,0,0,0,.09s0,0,0,.1l.09,0,0,0C170.81,119.2,170.65,119.09,170.61,119.1Z"/><path class="cls-1" d="M174.74,130.64l-2.94-27.22a.86.86,0,0,1,.57-.94l4.18-1.76A21,21,0,0,1,183,99.18a8.75,8.75,0,0,1,8.42,5,22.25,22.25,0,0,1,1.9,11.55,19.22,19.22,0,0,1-4.09,10.33,11.8,11.8,0,0,1-6,3.94c-1,.25-1.93.49-2.89.65l-4.53.74A.86.86,0,0,1,174.74,130.64ZM174,112.1l-.05-.31c0-.22-.07-.7-.11-1.19a2.32,2.32,0,0,0,0-.44,7.31,7.31,0,0,0,.06-1c0-.14-.19-.37-.31-.53l.15,3.91s0-.1.08-.06.09,0,.08-.06A2.2,2.2,0,0,0,174,112.1Zm.08-9.37.1.08,0-.06-.14-.06Zm1.07,13.65a2.08,2.08,0,0,0-.58-.26l.06.35.26,0A.28.28,0,0,0,175.18,116.38Zm-.39,6.38v-.05s0,0-.05,0v-.05C174.55,122.66,174.7,122.77,174.79,122.76Zm1-19.72a.71.71,0,0,0-.47-.15.17.17,0,0,1-.08.06l-.09,0v0s0,.09.05.08l0,.09A3.88,3.88,0,0,0,175.77,103Zm.16,23.42h.23l0,0-.27,0Zm1.09,1.21a1.18,1.18,0,0,0-.13-.25c0-.08-.11-.16-.08-.25l-.39.06a1,1,0,0,1-.36,0,.13.13,0,0,1,.06.12.19.19,0,0,0,.07.12,2.23,2.23,0,0,1,.22.51.76.76,0,0,0,.27.31.63.63,0,0,1,.21-.39C177,127.81,177,127.71,177,127.67Zm.07,1.47-.28,0a.51.51,0,0,0-.21.08.31.31,0,0,1-.21.08c-.09,0,.24.1.37.07s.17,0,.21-.08S177,129.14,177.09,129.14Zm.54-2.69c0-.22-.36-.3-.45-.28s-.33.14-.3.32v.08s.05,0,.06.08c.17,0,.34-.1.47-.12A1,1,0,0,1,177.63,126.45ZM178.2,102l-.27,0c-.05.19-.09.24-.07.37s.24.1.37.07l0-.13S178.23,102.23,178.2,102Zm.84,17.76c0-.09-.11-.16-.21-.19l-.26,0c-.07.1-.06.15,0,.14s.07.12.07.17.08-.06.17-.08A.66.66,0,0,1,179,119.78Zm.29-12.22.08.79h0a1.1,1.1,0,0,1-.47.43,2.55,2.55,0,0,1,.42.65c0,.09.11.12.2.15l1,10.34-.35.06c-.16.16-.27.27-.26.31l0,.22a.61.61,0,0,0,.14.29.43.43,0,0,0,.48.19h0l.21,1.81c2.53-.91,3.83-2.29,4.42-4.44a20.67,20.67,0,0,0,.67-3,19.45,19.45,0,0,0,.09-3.28c.06.08.11.12.15.11a.26.26,0,0,0,.24.1c.13,0,.43-.12.39-.38,0-.09-.21-.19-.62-.21a1,1,0,0,0-.14.24,9.93,9.93,0,0,0-1.38-4.38c-.76-1.31-1.82-1.27-3.31-.75C180.59,107.08,179.92,107.33,179.33,107.56Zm.55,17.85c.06-.14,0-.22-.21-.19l0,.18A.29.29,0,0,0,179.88,125.41Zm.84-21.93.48,0,0-.36-.47.08Zm2.76-2c0-.09,0-.13-.07-.17s-.06-.08-.07-.16l-.31,0c-.08,0-.11.1-.09.23a.39.39,0,0,0,.18.29C183.32,101.63,183.49,101.55,183.48,101.51Zm.11-.73,0-.09s0,0-.06-.08v-.09c-.09,0-.14,0-.18,0a.13.13,0,0,0-.1,0,1.15,1.15,0,0,0-.25.35.8.8,0,0,0,.31,0Zm.68,26.87c0-.09-.07-.13-.11-.12a.17.17,0,0,0-.08.06s-.08.06-.12.06l.13,0A.43.43,0,0,0,184.27,127.65Zm1.41-20.37c-.14,0-.23,0-.3.09a.72.72,0,0,0,.28,0s.08,0,.07-.1S185.72,107.27,185.68,107.28Zm.91,3.08-.06-.35a.14.14,0,0,0-.06-.08.22.22,0,0,1-.09,0,.43.43,0,0,1-.29.18.38.38,0,0,1-.19-.06c.11.12.17.2.14.29s.15.11.43.15Zm.26-2.51-.1-.07-.27,0c-.13,0-.21.08-.19.21a0,0,0,0,1,.06,0l.05,0,.26,0S186.73,108,186.85,107.85Zm-.38-2.31,0-.17h-.09l0,.18Zm1.26,6.06-.38-.12a.49.49,0,0,0-.06-.12s-.07-.13-.13-.21a.46.46,0,0,0-.47-.18h-.09s0,0,0,0,.1.07.2.1.05,0,.06.08a.18.18,0,0,1,0,.14s0,.05,0,.09.31.49.57.45c.09,0,.13,0,.17-.07l.13,0A.19.19,0,0,0,187.73,111.6Zm.1-3.73c0-.05,0-.09-.1-.07s-.18,0-.19-.06l-.1-.08s0-.08-.11-.11l-.17,0a.22.22,0,0,0-.16.11s0,.1-.11.15c.32,0,.51.1.55.36C187.54,108.23,187.87,108.09,187.83,107.87Zm-.35,10.66a.63.63,0,0,0-.23,0l0,.18c.09,0,.09,0,.16-.12S187.48,118.58,187.48,118.53Zm.36-4.89s0,0-.05,0l-.22,0-.07.1s0,0,.09,0,0,0,.14,0S187.85,113.73,187.84,113.64Zm.19-3.75a.24.24,0,0,0-.14,0,.23.23,0,0,0-.18,0,.4.4,0,0,0-.14.24c0,.18.13.21.29.09l.14-.2S188,109.94,188,109.89Zm.57-4.74c0-.05-.06-.08-.07-.17l0-.22a1.52,1.52,0,0,1-.63.24c-.08.06-.11.15-.19.21l-.06.19c0,.26.3.22.43.2C188.35,105.55,188.64,105.41,188.6,105.15Zm-.75,13.19-.08.1s0,0,.11.07S187.91,118.42,187.85,118.34Zm.48-5.27,0-.18c-.05,0-.1-.07-.11-.11a.23.23,0,0,0-.18,0l-.17.07c0,.14,0,.22.09.26a.19.19,0,0,0,.06.08l.21,0C188.25,113.13,188.28,113.07,188.33,113.07Zm0,3.61-.19-.1c-.05,0-.08.06-.13.07a.11.11,0,0,1-.08,0l0,.09.11.12A.77.77,0,0,0,188.38,116.68Zm.39-10.22a.32.32,0,0,0-.28,0l-.16.11a.09.09,0,0,1,.1.08l.11.11Zm-.28,6-.14,0v0l.09,0Zm.31,1.88c0-.05,0-.09-.06-.08s-.05,0-.1,0l-.26,0a.37.37,0,0,0,.18.24h.08l0,0h0l0,0h0Zm-.13-1.06s-.08.06-.13.07a.19.19,0,0,0-.08.06,1.44,1.44,0,0,1,.21.19A.27.27,0,0,0,188.67,113.23Zm.53,4.08s-.14-.07-.29-.13-.3-.22-.25-.14a.52.52,0,0,0-.11.38c0,.08.21.23.33.12A.41.41,0,0,1,189.2,117.31Zm-.46-5.25L189,112l0-.13s0-.08,0-.13a.82.82,0,0,0-.34.15c.06.08.06.08.07.12A.11.11,0,0,0,188.74,112.06Zm.12,4.23.43-.07s0-.09-.06-.08,0-.08,0-.08a.24.24,0,0,1-.19,0v0s0,0,0,0-.11-.11-.24-.14,0,0-.08.06,0,.09,0,.1a.17.17,0,0,0,0,.13c0,.05,0,.09.11.12Zm.55-2.1,0-.13a.16.16,0,0,1-.15-.11l-.11-.12-.17,0a.23.23,0,0,0-.1.2c0,.08,0,.17,0,.22s.35,0,.48-.08Zm0-6.93c-.1-.08-.15-.07-.16-.16a.38.38,0,0,0-.23.22.16.16,0,0,0,.2.15A.78.78,0,0,0,189.39,107.26Zm0,.71,0-.17c-.05-.08-.1-.12-.11-.16a.26.26,0,0,0-.1.24C189.15,108,189.2,108,189.37,108Zm.68,10.72,0-.13-.11-.12s-.1-.07-.14-.06l-.35.06c-.08,0-.12.1-.1.19s.13.25.39.21A2.57,2.57,0,0,0,190.05,118.69Zm-.17-9.28,0-.21c-.05,0-.14,0-.27,0s-.16.08-.15.16.05,0,.11.12a.51.51,0,0,0,.22,0C189.8,109.47,189.83,109.42,189.88,109.41Zm.36,6.07s-.05,0-.09,0-.09,0-.09,0a6.3,6.3,0,0,1-.29-.9h0s-.09,0-.09,0h0a.21.21,0,0,0-.16.07c.06.12.07.17.12.2a.14.14,0,0,1,.06.12c0,.09,0,.09-.05.19s0,.05,0,.1l.09.57c0,.12.11.15.35.25l.13,0a.37.37,0,0,1,.05-.28A.38.38,0,0,0,190.24,115.48Zm0,.9,0-.26-.09,0,0,.26Zm.17-1.14c-.08,0-.12.06-.16.07l.1.07v0l0,0S190.34,115.24,190.38,115.24Zm.53-.63c0-.08-.18-.24-.48-.19l-.09,0a0,0,0,0,1,0,0l0,.3c.1,0,.15.07.24.06s0,0,.16-.08S190.91,114.66,190.91,114.61Zm-.16,5.31,0-.17-.26,0v.09c0,.05,0,.05,0,.09Zm0-9.94,0-.13c-.05,0-.09,0-.18,0h0l0,0C190.59,110,190.7,110,190.78,110Zm.65,3.47a.11.11,0,0,0-.15-.1l-.07.1S191.3,113.48,191.43,113.45Z"/><path class="cls-1" d="M143.94,171.54l-6.62.77a.79.79,0,0,1-1-.69l-1.06-5.3-6.47,2.09-.5,4.15a.86.86,0,0,1-.8.76L121,174a.92.92,0,0,1-1-1c.52-3.52,1.17-7.16,1.82-10.7.49-2.64,1.12-5.24,1.8-7.81.93-3.49,1.94-7,3-10.44a1,1,0,0,1,.6-.6c.94-.29,1.88-.62,2.87-.87a9.35,9.35,0,0,1,2.54-.34c1.73-.07,2.9,1.21,3.73,2.63.47.92.9,2,1.28,2.92.13.34,1,2.64,1.61,4.7l5.44,18A.9.9,0,0,1,143.94,171.54Zm-19.59-4.83v.09l.14.07C124.58,166.77,124.53,166.73,124.35,166.71Zm1.22,2.08.3-.12,0-.18s-.1-.08-.14-.07a.48.48,0,0,1-.19-.11.7.7,0,0,1-.66.47c0,.05.22.34.44.31,0,0,.08-.05.12-.1S125.49,168.89,125.57,168.79Zm-.11,1.35s-.24-.15-.32-.14a.19.19,0,0,0-.2.2s.13,0,.26,0Zm-.27-2,.32.09.08,0,0-.22c0-.09-.1-.12-.28-.1s0,.05-.08.06,0,0,0,0Zm.22-16.43c0,.09.23.46.31.45a1.84,1.84,0,0,0-.08-.7C125.68,151.4,125.4,151.65,125.41,151.74Zm.76,18.36a.22.22,0,0,0-.2-.2c-.17.11-.25.16-.24.21l.28.14C126.09,170.15,126.13,170.1,126.17,170.1Zm-.42-17.29.06.48.17,0-.06-.53Zm.65,14.33a.33.33,0,0,0-.06.23s0,0,.09,0,0,0,0-.05S126.5,167.22,126.4,167.14Zm1.63-.9a.7.7,0,0,1-.12-.26.64.64,0,0,1-.12-.25,2.85,2.85,0,0,0-.55-.16.41.41,0,0,0-.4.41.61.61,0,0,0,.63.37.17.17,0,0,0,.12-.06Zm-.69,3.23-.1-.07s-.08,0-.08,0h-.09a.29.29,0,0,1-.17.06c.1.08.14.08.19.12a.47.47,0,0,1,.18,0C127.36,169.61,127.35,169.56,127.34,169.47Zm0-10.18-.17,0a1.61,1.61,0,0,0,0,.41.25.25,0,0,0,.16.24.7.7,0,0,0,.09-.36Zm.25-14.65.18,0,0-.27-.17,0Zm.34,1.73a.14.14,0,0,1-.1,0l.07.57a1.11,1.11,0,0,1,.16-.55Zm1.72,10.16a1.49,1.49,0,0,0,.41-.67,1.71,1.71,0,0,0,0-.36c0-.13.13-.41.33-1l-.23-.06a.61.61,0,0,0-.19.2.72.72,0,0,1-.2.2c-.06.32-.07.59-.13.81s-.1.33-.14.33a.24.24,0,0,1-.11.19.79.79,0,0,0-.1.33c0-.1-.08.41-.19,1a5.7,5.7,0,0,0-.11.63,1.58,1.58,0,0,1-.31.75,1.53,1.53,0,0,0-.3.83,1,1,0,0,0,0,.41,2,2,0,0,1-.19.64,2.5,2.5,0,0,0-.16.56c0,.17.08.3.12.29a.2.2,0,0,0,.22,0c0-.05.08-.1.12-.15a2.75,2.75,0,0,0,.17-.78,1.84,1.84,0,0,1,.23-.73c0-.09.06-.23.22-.43l.11-.5c0,.08.29-1.33.49-2Zm-.79,8.5-.48.05,0,.22.48-.05Zm-.12-13.24s0,0,.08,0,.14,0,.17-.06l-.23-.07s0,0,0,.1Zm4.73,8.17-.51-2.08c-.17-.69-.34-1.38-.55-2.07-.29-.9-.57-1.8-.9-2.7l-1.32,7.32Zm-3.07-7.2c.18.37.32.4.65.19l.09-.37a.7.7,0,0,0-.16-.2A.59.59,0,0,0,130.41,152.76Zm.17-4.65.1,0,0-.13h-.05Zm.1,5.37-.09.37.09,0,.09-.37Zm.46-5.17.07.22.22,0s.09,0,.18,0a.39.39,0,0,0-.12-.25.24.24,0,0,0-.17.06Zm1.66-2.5.15.11a.61.61,0,0,0,.05-.36c-.13,0-.22,0-.23,0Zm.28-.66h.14l-.05-.35H133Zm.14.74.1.12v-.08l-.11-.17Zm.55-.2-.49,0,0,.17s0,0,.06.13l.18,0c0-.05,0-.1.11-.19S133.73,145.7,133.77,145.69Zm-.27,16.4-.21,0v.09l.21,0Zm.18,3-.05-.08-.13.06.06.08Zm.16-7.8.26,0s0-.08-.1-.12a.48.48,0,0,1-.18,0Zm.07-10.85.09.08.57-.07c.05,0,.09-.05.17-.11-.14-.07-.24-.1-.25-.24l.07-.14a1.46,1.46,0,0,1-.38.14C134.05,146.15,134,146.25,133.91,146.48Zm.45,11.86-.35,0v.09l.35,0ZM134,147.53a.33.33,0,0,0,.23.06c.09,0,.13,0,.23.07s.08-.1.07-.15,0,0,0-.09a.67.67,0,0,0-.41-.08A.16.16,0,0,0,134,147.53Zm.5,14.93a.63.63,0,0,0-.3.16l.18,0,.1.08A.32.32,0,0,0,134.53,162.46Zm.12-6.91-.22,0C134.49,155.7,134.66,155.64,134.65,155.55Zm0-2.27.14.07.08,0-.09-.08Zm.1,8.52h.14v-.09h-.14Zm.09-13s-.08.05-.07.14.05.08.1.12l.26,0a.33.33,0,0,0,.16-.19.22.22,0,0,0-.25-.2C135.06,148.74,135,148.76,134.89,148.81Zm.07,12h-.13l0,.18.13,0Zm.16-1.31H135l0,.14.1,0Zm0,.54-.08.1C135.1,160.17,135.14,160.12,135.09,160.08Zm.06-2.9a.28.28,0,0,0-.1.28l.27,0c-.12.1-.16.19,0,.31l.39-.05v-.13h0C135.66,157.3,135.47,157.19,135.15,157.18Zm-.09,1.88.16.2a.59.59,0,0,1,.26-.07s.18,0,.31,0,.29-.17.28-.26l-.66.08A.94.94,0,0,0,135.06,159.06Zm.34,5.56-.13,0,0,.17h.13Zm.2-9.71v-.09s0,0,0,0h-.31l0,.18Zm.14,5.05a1.26,1.26,0,0,0-.26,0l-.08.1a.13.13,0,0,1,0,.1l.31.05c0-.05,0-.09,0-.1S135.76,160.05,135.74,160Zm.15-1.44-.06-.09-.3,0,0,.18.24.15v-.05c.05,0,.05,0,.09-.05H136C135.94,158.6,135.89,158.56,135.89,158.52Zm-.24-6.64V152l.3,0v-.09Zm.12,11a1.06,1.06,0,0,0,.45.08c.17-.15.28-.29.27-.38s-.05-.09-.15-.16-.14,0-.14-.07l-.24.29A.76.76,0,0,1,135.77,162.84Zm.19,2,.44-.05v-.14l-.62.08C135.91,164.78,136,164.82,136,164.87Zm0-6.54.26,0,0-.22c-.05,0-.1,0-.14,0a.18.18,0,0,0-.14,0,.28.28,0,0,0-.18.29A.32.32,0,0,1,136,158.33Zm-.15,2.95,0,.22.18,0,0-.22Zm.08-8.86a.58.58,0,0,0,0,.14l.06.08.26,0C136.21,152.48,136.11,152.4,135.93,152.42Zm.51,14.22-.31,0,0,.18.31,0Zm-.17-9.41s.06.08.14.07l.08-.14s-.1,0-.27,0C136.22,157.19,136.22,157.19,136.27,157.23Zm.25-2v-.09l-.27-.06v.09Zm.68,5.83a.39.39,0,0,1-.11-.25.58.58,0,0,1-.12-.25.94.94,0,0,0-.73-.14s.1.08.14.07.24.15.36.36l0,.26Zm-.81-2.39h-.09l.15.51a1.26,1.26,0,0,0,.13-.46c-.05,0-.1,0-.14,0A.05.05,0,0,1,136.39,158.64Zm.07,5.15c0,.17.12.25.3.32l0-.35Zm.61,3.75-.27-.1a.77.77,0,0,1-.23-.06l.08.3Zm-.23-10.38c.13,0,.26,0,.25-.12S137,157,137,157h-.09a.1.1,0,0,0-.08.09Zm.89.79-.44.05c-.48.41-.45.32-.43.45s.17.29.48.7l.61-.07c.05,0,.09-.06.17-.07-.1-.12-.2-.2-.33-.18a.75.75,0,0,1-.47-.21c.17-.07.3-.13.33-.22a.75.75,0,0,1,.24-.29C137.83,158,137.78,157.94,137.73,158Zm-.83-.31a.67.67,0,0,0,.69-.12.53.53,0,0,0-.37-.14l-.35.05Zm0-.8c.18,0,.22-.07.2-.2ZM137,167.1l.27,0c0-.13-.11-.12-.29-.15Zm0-3.47v.09l.22,0v-.08Zm.51-3.26s-.06-.08-.15-.16a.2.2,0,0,1-.13.06s0,0,0,0a2.61,2.61,0,0,1,.27.06Zm-.25,8.57.48-.06c0-.09-.1-.16-.2-.24a.76.76,0,0,1-.21.15Zm1.2,1.9a1,1,0,0,1-.18-.42l-.44.05a2.18,2.18,0,0,0,.55.51s0,0,0-.09A.05.05,0,0,1,138.48,170.84Zm-.26-4.55-.31,0s0,.13.06.13.1.07.15.11,0,0,.07-.14S138.22,166.34,138.22,166.29Zm0-2.4a.45.45,0,0,0,.44.35c.13,0,.22,0,.25-.07s.09,0,.26-.08A.13.13,0,0,0,139,164l-.19-.11c-.05,0-.06-.17-.09-.39,0,.14-.07.19-.2.2Zm3.65,6.2c-.14-.43-.22-.77-.3-1s-.15-.61-.29-1a1.19,1.19,0,0,1-.2-.2c-.06-.13-.11-.17-.12-.21s0-.18.19-.33c-.28-.11-.43-.22-.4-.36a.91.91,0,0,0-.2-.91.57.57,0,0,1-.16-.29c0-.09,0-.18.11-.19s0-.27-.16-.56l-.27.3a2.64,2.64,0,0,1-.29.25l-.14-.07,0-.44c0-.17.11-.23.37-.26l.19.11,0-.35a3.41,3.41,0,0,0-.68-.15c-.27,0-.81.32-.78.58a.24.24,0,0,0,.1.13c-.09,0,0,0,.19.11-.07.09-.06.18,0,.3a.78.78,0,0,1,.19.12c.09,0,.1.07.1.07a.45.45,0,0,1-.3.13c-.26,0-.38.13-.37.26s0,.27-.05.32c.13-.06.31,0,.28.1a.1.1,0,0,1-.08.1s0,0,0,0a.13.13,0,0,1,0,.13.35.35,0,0,0-.06.19l0,.39c.19.07,1,.24.55.52a1.64,1.64,0,0,0,.53,0,.44.44,0,0,0,.22-.07l.26,0,.07.61h0v0h0l.15.11c.05,0,.05.09.14.12a.12.12,0,0,0,.1.08.33.33,0,0,0,.15.11c0,.09.07.22.09.39a.59.59,0,0,0,.35.32.16.16,0,0,1,0,.13v.09c0,.13.36.45.49.43A.23.23,0,0,0,141.86,170.09Zm-3.11-9.15.26,0v0l-.27,0Zm1.31,3.27.18,0v-.09l-.18,0Z"/><path class="cls-1" d="M165.14,153.19a11.57,11.57,0,0,1-1,2.07.84.84,0,0,0,.07-.54,2.28,2.28,0,0,0-.1-.52,1.61,1.61,0,0,1-.1-.44c0-.13,0-.22.07-.23h-.05a1.25,1.25,0,0,0-.09-.43.76.76,0,0,1,.12-.51c-.18,0-.24-.1-.2-.2s0-.17-.07-.21l.35,3.07a8.11,8.11,0,0,1-2.36,2.63h0a21.85,21.85,0,0,1-4.48,2.39,15.11,15.11,0,0,1-2,.72c-.13.06-.26.08-.39.13s-.21.07-.34.09h0c0-.08-.05-.08-.1-.07s-.21.07-.2.15,0,.05.05,0l-1.34.34.65,7.83a.77.77,0,0,1-.78,1l-5.39.63a.88.88,0,0,1-1-.82l-.2-3.31.09.08a1.14,1.14,0,0,0,.41-.31l-.14-.07-.22,0-.16.15-.18-2.33.13,0a.1.1,0,0,0-.1-.07l-.05,0-1.45-20.86a.79.79,0,0,1,.61-.87c6.84-2.27,7.87-2.61,8.91-2.87a9.87,9.87,0,0,0,1.17-.27l1.18-.18h0c4.76-.34,7.74,2.74,8.8,7.19A11.91,11.91,0,0,1,165.14,153.19Zm-19.07-4.62h.08l0-.22H146Zm.05,15.29.14.12a.39.39,0,0,0,.25-.17C146.36,163.7,146.1,163.73,146.12,163.86Zm0-.76.26,0v-.13l-.27,0Zm.44,1.15a.67.67,0,0,0-.43.05l.23.1a.19.19,0,0,1,.13-.05A.1.1,0,0,0,146.6,164.25Zm-.38-18.94h.09l0-.13h-.09Zm.23,20.29-.22,0,0,.14.22,0Zm.12-.9c-.14-.08-.24-.15-.25-.24a.2.2,0,0,0,0,.14.17.17,0,0,1,0,.13Zm-.12,2.81,0,0-.12.06v0Zm.78-7.78.22,0a.11.11,0,0,0,0-.08c-.09,0-.1-.08-.15-.12l0,.14S147.23,159.68,147.23,159.73Zm.59,1.62c0,.22-.08.41-.11.59s-.08.41-.07.54a.18.18,0,0,0,.06.13c.05,0,.1.08.06.12a.18.18,0,0,0-.1.28c.07.17.08.3,0,.35s0,0-.08.1a0,0,0,0,0,0,0,.13.13,0,0,0-.08.14.18.18,0,0,0,.06.13s.1.08,0,.18,0,0-.08,0h-.05c.11.12.16.2.13.34s-.11.55,0,.67,0,.22,0,.22a1.55,1.55,0,0,0,.07,1,.34.34,0,0,0-.15.2.75.75,0,0,0-.15.24v.13a5.66,5.66,0,0,1,.06.84,5,5,0,0,0,0,.85.34.34,0,0,1,0,.22.29.29,0,0,0-.06.19,2.66,2.66,0,0,0,.4,1.19,2,2,0,0,0,.63,0,3,3,0,0,1,.58,0Zm-.33-4.36s.06.08.11.16l.07-.14a.15.15,0,0,0,0-.14l-.22,0Zm.39.66a.79.79,0,0,0,.3-.08,1.09,1.09,0,0,1,.3-.12s-.14-.07-.24-.15a.49.49,0,0,0-.23-.06.62.62,0,0,0-.25.11c-.08.1-.16.16-.2.21.14,0,.18.06.14.07A.31.31,0,0,0,147.88,157.65Zm0,.81-.17-.34h-.09l.17.34Zm0,.08-.09,0-.11.14.09,0Zm0,2.28h-.09l0,.26h.09Zm.71-3.78a.5.5,0,0,0-.24-.19.25.25,0,0,1-.16-.16.46.46,0,0,1-.24.16c0,.05,0,.05-.09.06a.9.9,0,0,1,.51.16Zm.17,3-.05-.08-.25.11v.09Zm.44-1.61-.26,0,0,.22.26,0Zm1.46,6.05-.07.15a.73.73,0,0,0,.13.34Zm.07.62,0,.45a.2.2,0,0,0,0,.13c0,.05,0,.09,0,.1.11.16.12.21.07.21s-.08,0-.08.05a.77.77,0,0,0,.24.55ZM154.53,154a9.48,9.48,0,0,0,3.05-2,3.28,3.28,0,0,0,.88-2c.07-1.74-1-4.24-3-3.61l-3.39,1.11.38,7.07A21,21,0,0,0,154.53,154Zm-1.65,16.38-.06-.13h-.09l.06.13Zm1.17-14,0-.22-.13,0,0,.22Zm.22,4.11-.27,0,0,.18.27,0Zm.22-1.09-.29-.19s-.19.25-.18.33l.24.11ZM155,158l-.38-.22,0,.3Zm1.29-.77c.08,0,.18,0,.31,0l0,.22.27,0a.33.33,0,0,0,.12-.06.82.82,0,0,0-.41-.13s0-.09,0-.13-.06-.08-.11-.12A.27.27,0,0,0,156.28,157.21Zm.41.88.35,0,.67,0V158l0,0s0,0-.06-.08h0l0,0-.17.06-.18,0-.13-.34A1.09,1.09,0,0,0,156.69,158.09Zm.55.87c.11-.19.18-.29.17-.38a.34.34,0,0,0-.06-.17s-.1-.07-.15-.11,0,0-.08,0h0c-.05,0,0,0,0,0a.1.1,0,0,0-.08.05l0,.44A.35.35,0,0,1,157.24,159Zm.13-1.88-.3,0a.61.61,0,0,0,.34.32A.26.26,0,0,0,157.37,157.08Zm.43,2.48a.27.27,0,0,0-.16-.16c-.13,0-.21.12-.2.2Zm0-.4h.09a.25.25,0,0,0,0-.18l0-.13c-.22,0-.34.08-.33.21S157.71,159.17,157.84,159.16Zm-.05-1.15a.33.33,0,0,0,0,.35l.17,0s0-.05.09-.05S157.93,158.08,157.79,158Zm.38-1s0,0,0,0v-.09a0,0,0,0,1-.05,0l-.24.21Zm0,2.18c-.12.06-.2.11-.19.25l.22,0A.2.2,0,0,0,158.15,159.21Zm.47-3.61-.36,0s-.08.06-.08.1h0c-.08.06-.08.1-.07.15s0,.13.06.12h0a.33.33,0,0,0,.23.06.27.27,0,0,0,.25-.16Zm-.49-.43v.08l.26,0v-.08Zm.14-8.33c.1.12.23.06.22,0a.11.11,0,0,1,.08-.05l-.32,0S158.22,146.84,158.27,146.84Zm.42,11.64-.34.13,0,.13.34-.13Zm.15-3.26.39-.09c0-.14-.2-.2-.33-.19Zm.53-2.38a.91.91,0,0,0-.53-.29Zm.08-1.92a.42.42,0,0,0,.14-.33.4.4,0,0,1-.22,0l-.16.15c-.08.1-.12.15-.07.18Zm-.28-.5.31,0s0-.14-.06-.17,0,0-.1,0l-.17,0Zm.3,5.61-.18-.06-.06.22.18,0Zm0-9,.13,0,0-.13-.13,0Zm.16,1,.06.53a.72.72,0,0,0,.34-.17C160,148.32,159.93,148.15,159.65,148.05Zm.73,3.21c-.19-.11-.28-.15-.29-.19s-.22,0-.25.07l-.09.06A1.81,1.81,0,0,0,160.38,151.26Zm0-2.23a.69.69,0,0,0-.11-.2,1.22,1.22,0,0,1-.16.15,0,0,0,0,0,0,.05H160a1.13,1.13,0,0,0-.24.21l.45,0C160.32,149.18,160.4,149.08,160.39,149Zm-.16,2.47-.19-.16-.17.11.29.15Zm.12,2.92-.44.05v.09l.44-.05Zm0-3.91-.35,0,0,.22C160.19,150.75,160.31,150.64,160.3,150.51Zm.45-4.45-.17,0v.09l.17,0Zm.23,3.48c-.1-.16-.16-.29-.21-.28l-.09,0-.08.06a.16.16,0,0,0,.19.15Zm2.86,1.23a.73.73,0,0,0-.22-.38.14.14,0,0,0,0,.18.21.21,0,0,1,0,.18l-.3,0c.05.09,0,.14-.08.15s.14,0,.28,0a.43.43,0,0,0,.22,0s0,0,.08-.1A.17.17,0,0,0,163.84,150.77Zm-.05.31-.14,0,.12,1,.13,0Z"/><path class="cls-1" d="M188.48,150.47a12.31,12.31,0,0,1-1,2.07.92.92,0,0,0,.07-.54,1.86,1.86,0,0,0-.11-.52,1.72,1.72,0,0,1-.09-.44c0-.13,0-.22.06-.23h0a1.36,1.36,0,0,0-.1-.44.74.74,0,0,1,.12-.5c-.18,0-.23-.11-.2-.2s0-.17-.07-.21l.36,3.07a8.45,8.45,0,0,1-2.36,2.63h0a21.62,21.62,0,0,1-4.48,2.39,14.41,14.41,0,0,1-2,.73c-.12.06-.26.07-.38.13s-.22.07-.35.09h0c0-.09-.06-.08-.1-.08s-.21.07-.2.16,0,0,0,0l-1.33.33.64,7.84a.77.77,0,0,1-.77,1l-5.4.63a.87.87,0,0,1-1-.82l-.21-3.31.1.08a1.14,1.14,0,0,0,.41-.31l-.15-.08-.22,0-.15.15-.19-2.33.13,0a.1.1,0,0,0-.09-.08l0,0-1.46-20.86a.81.81,0,0,1,.61-.87c6.85-2.26,7.88-2.6,8.91-2.86a11.67,11.67,0,0,0,1.17-.27l1.18-.18h0c4.77-.33,7.75,2.75,8.8,7.2A11.92,11.92,0,0,1,188.48,150.47Zm-19.08-4.62h.09l0-.22h-.09Zm0,15.29.15.11a.4.4,0,0,0,.25-.16C169.7,161,169.43,161,169.45,161.14Zm0-.76.27,0,0-.14-.26,0Zm.45,1.14a.76.76,0,0,0-.44.06l.24.1a.21.21,0,0,1,.12-.06A.09.09,0,0,0,169.94,161.52Zm-.39-18.93h.09v-.14h-.09Zm.24,20.29-.22,0V163l.22,0Zm.11-.91c-.14-.07-.24-.15-.25-.23a.16.16,0,0,0,0,.13.14.14,0,0,1,0,.14Zm-.11,2.82,0,0-.13.06v0Zm.78-7.78.22,0a.17.17,0,0,0-.06-.08c-.09,0-.09-.08-.14-.12v.13C170.56,157,170.56,157,170.57,157Zm.59,1.62c0,.22-.09.41-.11.59a3.46,3.46,0,0,0-.07.54.13.13,0,0,0,.06.12c.05,0,.1.08.06.13s-.16.2-.1.28.08.3,0,.35,0,.05-.08.1,0,0,0,0-.08.1-.07.14a.16.16,0,0,0,.06.13s.1.07,0,.18,0,0-.08,0h0c.1.12.16.2.13.34s-.12.54,0,.67,0,.21,0,.22a1.42,1.42,0,0,0,.07,1,.3.3,0,0,0-.16.19,1.47,1.47,0,0,0-.15.24l0,.14a4.37,4.37,0,0,1,.05.83,6.36,6.36,0,0,0,0,.85.45.45,0,0,1,0,.23.37.37,0,0,0-.07.18c0,.14.16,1,.41,1.2a2,2,0,0,0,.62,0,3,3,0,0,1,.58,0Zm-.33-4.37c0,.05,0,.09.1.17l.08-.14a.19.19,0,0,0,0-.14l-.22,0Zm.39.67a.89.89,0,0,0,.3-.08,1,1,0,0,1,.29-.12l-.24-.15a.41.41,0,0,0-.23-.07.72.72,0,0,0-.25.12c-.08.1-.16.15-.2.2.14,0,.19.07.15.08A.42.42,0,0,0,171.22,154.93Zm0,.8-.18-.33h-.08l.17.33Zm0,.09h-.09L171,156l.1,0Zm-.05,2.27h-.09l0,.27h.09Zm.72-3.77a.58.58,0,0,0-.25-.19.25.25,0,0,1-.15-.16.49.49,0,0,1-.25.16s0,.05-.08.05a1,1,0,0,1,.51.17Zm.17,3-.06-.08-.25.12v.09Zm.43-1.6-.26,0,0,.22.26,0Zm1.47,6.05-.08.14a1,1,0,0,0,.13.34Zm.07.62,0,.44a.22.22,0,0,0,0,.14s0,.09,0,.09c.11.17.11.21.07.22a0,0,0,0,0-.08.05.77.77,0,0,0,.24.55Zm3.86-11.08a9.58,9.58,0,0,0,3.06-2,3.4,3.4,0,0,0,.88-2c.06-1.74-1-4.24-3-3.61l-3.38,1.11.38,7.06A20.64,20.64,0,0,0,177.86,151.31Zm-1.64,16.37-.06-.12h-.09l.06.12Zm1.17-14,0-.22-.13,0,0,.22Zm.21,4.11-.26,0,0,.18.26,0Zm.23-1.09-.29-.19s-.19.24-.18.33l.23.11Zm.49-1.48-.38-.23,0,.31Zm1.29-.78a2.82,2.82,0,0,0,.31,0l0,.22.26,0a.31.31,0,0,0,.13-.06.79.79,0,0,0-.42-.13s0-.09,0-.14,0-.08-.1-.12S179.6,154.39,179.61,154.48Zm.42.89.35,0,.67,0v-.09l0,0c-.05,0-.05,0-.05-.09h-.05l0,0-.17.06-.17,0-.13-.34A1,1,0,0,0,180,155.37Zm.54.87c.11-.19.19-.29.18-.38a.35.35,0,0,0-.07-.17s-.09-.08-.14-.12,0,.05-.08.06h-.05a0,0,0,0,0,0,0,.17.17,0,0,0-.08.06l.05.44A.33.33,0,0,1,180.57,156.24Zm.14-1.89-.31,0c.11.17.21.29.35.32A.28.28,0,0,0,180.71,154.35Zm.42,2.49a.23.23,0,0,0-.15-.16.2.2,0,0,0-.2.2Zm0-.41h.09c0-.05,0-.1,0-.19v-.13c-.22,0-.35.09-.33.22S181,156.45,181.17,156.43Zm0-1.15a.35.35,0,0,0,0,.36l.18,0s0-.05.08-.05S181.27,155.36,181.13,155.28Zm.37-1c0-.05,0-.05-.05,0v-.09a.05.05,0,0,1-.05,0l-.24.21Zm0,2.18c-.13.06-.21.11-.19.24l.21,0C181.55,156.61,181.54,156.53,181.49,156.49Zm.47-3.61-.36,0s-.09,0-.08.1h-.05a.14.14,0,0,0-.07.14c0,.09,0,.14.06.13h0a.31.31,0,0,0,.22.07c.14,0,.22-.07.25-.16Zm-.5-.44v.09l.27,0v-.09Zm.14-8.33c.1.13.23.07.22,0a.19.19,0,0,1,.08-.06l-.31-.05C181.55,144,181.56,144.12,181.6,144.11Zm.43,11.65-.34.13V156l.34-.13Zm.15-3.27.39-.09c0-.13-.2-.19-.33-.18Zm.52-2.37a.89.89,0,0,0-.52-.29Zm.09-1.92a.47.47,0,0,0,.14-.33.34.34,0,0,1-.23,0l-.16.15c-.07.1-.11.15-.06.19Zm-.28-.5.31,0s0-.13-.07-.17-.05,0-.09,0l-.18,0Zm.3,5.61-.19-.07-.06.23.18,0Zm0-9H183v-.13h-.13Zm.17,1.05.06.53a.7.7,0,0,0,.34-.18A.59.59,0,0,0,183,145.33Zm.73,3.21c-.19-.12-.29-.15-.29-.19s-.22,0-.26.07l-.08.06A1.79,1.79,0,0,0,183.72,148.54Zm0-2.23a.8.8,0,0,0-.12-.21.72.72,0,0,1-.16.15.05.05,0,0,0,0,.05h0a.88.88,0,0,0-.24.2l.45,0C183.65,146.45,183.73,146.36,183.73,146.31Zm-.16,2.46-.2-.15-.16.11.28.14Zm.12,2.93-.44.05v.09l.44-.06Zm-.06-3.91-.35,0,0,.22C183.53,148,183.65,147.92,183.63,147.79Zm.46-4.46-.18,0v.09l.18,0Zm.23,3.49c-.11-.17-.17-.29-.21-.29l-.1,0-.08.05a.17.17,0,0,0,.2.16Zm2.85,1.22a.75.75,0,0,0-.22-.37.12.12,0,0,0,0,.17c0,.09,0,.14,0,.19l-.31,0c.06.08,0,.13-.07.14s.14,0,.27.06a.7.7,0,0,0,.23,0s0-.05.07-.1A.15.15,0,0,0,187.17,148Zm0,.32-.13,0,.12,1,.13,0Z"/><rect class="cls-2" x="0.5" y="0.5" width="304" height="304" rx="5.33"/><line class="cls-2" x1="7.26" y1="296.89" x2="101.54" y2="205.83"/><line class="cls-2" x1="297.03" y1="7.94" x2="209.41" y2="109.17"/><line class="cls-2" x1="6.38" y1="6.13" x2="99.79" y2="106.57"/><line class="cls-2" x1="297.03" y1="295.98" x2="198.41" y2="201.68"/></g></g></svg>