<svg width="64" height="65" viewBox="0 0 64 65" fill="none" xmlns="http://www.w3.org/2000/svg">
<path d="M58.7583 61.2037C55.9466 52.9674 53.891 42.2527 53.2181 32.2206L53.1007 30.4711H36.0805C35.8483 28.323 35.6704 26.2882 35.5448 24.4166L35.4274 22.6671H12.3309L12.2135 24.4166C11.5379 34.4885 9.35575 49.2662 5.24525 61.2037H0V64.9537H64V61.2037H58.7583ZM49.6068 34.2211C50.3715 43.5602 52.2605 53.3399 54.8061 61.2037H42.513C39.599 52.7411 37.6539 42.8506 36.5279 34.2211H49.6068ZM15.8264 26.4171H31.9319C32.7201 36.2887 34.8186 49.8312 38.558 61.2037H9.20037C12.9399 49.8306 15.0384 36.2885 15.8264 26.4171Z" fill="#34B175"/>
<path d="M23.8277 17.8497L25.0917 18.0854C25.1522 18.0966 26.5966 18.3617 28.5347 18.3617C31.2737 18.3617 35.0718 17.8286 37.6113 15.289C41.8862 11.0142 40.4701 3.10398 40.4077 2.76923L40.1721 1.50523L38.9081 1.2696C38.8476 1.25835 37.4032 0.993225 35.4651 0.993225C32.7261 0.993225 28.9279 1.52635 26.3884 4.06597C22.1136 8.34072 23.5297 16.251 23.5921 16.5857L23.8277 17.8497ZM29.0401 6.7176C30.6719 5.08572 33.4347 4.74323 35.4651 4.74323C35.9928 4.74323 36.4758 4.76697 36.8849 4.79872C37.0564 7.05898 36.8819 10.7151 34.9597 12.6372C33.3278 14.2691 30.5651 14.6116 28.5347 14.6116C28.0114 14.6116 27.5321 14.5881 27.1252 14.5569C26.9731 12.5419 27.0034 8.7541 29.0401 6.7176Z" fill="#34B175"/>
</svg>
