<svg   width="74" height="66" viewBox="0 0 74 66"  xmlns="http://www.w3.org/2000/svg"><g id="01">
<path d="M15.7852 63.5546L13.6215 60.5069C13.1621 59.8595 12.2649 59.7073 11.6176 60.1668C10.9704 60.6263 10.8181 61.5234 11.2777 62.1707L13.4414 65.2186C13.7216 65.6134 14.1646 65.8239 14.6146 65.8239C14.9023 65.8239 15.1928 65.7377 15.4453 65.5585C16.0924 65.099 16.2448 64.2019 15.7852 63.5546Z" fill=""/>
<path d="M32.3666 64.0916L30.0118 52.8687C28.8668 47.4114 25.6877 42.6924 21.0605 39.581L16.033 36.2004C14.0171 34.8452 11.3074 35.1366 9.62237 36.8548V19.5371C9.62237 17.264 8.07263 15.3327 5.85359 14.8401C4.42142 14.5219 2.94426 14.8666 1.8001 15.7845C0.656084 16.7025 0 18.0703 0 19.5371V41.8212C0 44.7406 0.893366 47.5421 2.58338 49.9229L5.14634 53.5333C5.4266 53.9281 5.86954 54.1386 6.31953 54.1386C6.60726 54.1386 6.89772 54.0524 7.15024 53.8732C7.79741 53.4137 7.94975 52.5166 7.49014 51.8693L4.92717 48.2589C3.58424 46.3671 2.87441 44.141 2.87441 41.8211V19.5371C2.87441 18.9467 3.13857 18.3961 3.59905 18.0264C4.05938 17.6569 4.65396 17.5182 5.23085 17.6463C6.12407 17.8445 6.74796 18.622 6.74796 19.5371V37.217C6.74796 39.7197 7.66749 42.1042 9.33795 43.9593C9.40952 44.0451 9.48311 44.1301 9.56086 44.2124C10.5153 45.2238 11.6375 46.4155 12.6944 47.5388L14.174 49.1136C14.1787 49.1186 14.1839 49.1229 14.1888 49.1278C15.4545 50.474 16.388 51.4682 16.4076 51.4888C16.9507 52.0673 17.8604 52.0961 18.439 51.5527C19.0177 51.0093 19.0463 50.0998 18.5027 49.5212C18.4766 49.4933 16.7942 47.7018 14.8729 45.6597L11.5775 42.1525C11.5692 42.1436 11.5616 42.1342 11.5533 42.1253C10.7806 41.2012 10.7902 39.8613 11.6001 38.9469C12.3166 38.1384 13.533 37.9832 14.4294 38.5858L19.4566 41.9664C23.4589 44.6575 26.2084 48.7389 27.1987 53.459L29.5535 64.682C29.6957 65.3593 30.2931 65.8242 30.9587 65.8242C31.0564 65.8242 31.1557 65.8142 31.2552 65.7933C32.032 65.6304 32.5295 64.8684 32.3666 64.0916Z" fill=""/>
<path d="M10.6479 56.318L10.6387 56.3051C10.1774 55.6589 9.27999 55.5089 8.63396 55.9699C7.98794 56.431 7.83789 57.3285 8.29881 57.9745L8.308 57.9875C8.58855 58.3805 9.03049 58.5901 9.47918 58.5901C9.76806 58.5901 10.0597 58.5033 10.3128 58.3226C10.9586 57.8616 11.1088 56.964 10.6479 56.318Z" fill=""/>
<path d="M71.7846 15.7846C70.6406 14.8667 69.1627 14.5226 67.7313 14.8403C65.5122 15.3326 63.9624 17.2641 63.9624 19.5372V36.8549C62.2775 35.1368 59.5675 34.8453 57.5517 36.2006L52.5242 39.581C47.8969 42.6923 44.7179 47.4113 43.5729 52.8687L41.2182 64.0917C41.0552 64.8685 41.5528 65.6303 42.3296 65.7933C42.429 65.8142 42.5285 65.8242 42.6261 65.8242C43.2918 65.8242 43.8891 65.3592 44.0312 64.6818L46.3859 53.4588C47.3763 48.7389 50.1257 44.6574 54.128 41.9663L59.1555 38.5859C60.0516 37.9831 61.268 38.1384 61.9848 38.9469C62.7936 39.8601 62.8044 41.1979 62.0346 42.122C62.0254 42.1321 62.0167 42.1424 62.0075 42.1525C62.0075 42.1525 55.1082 49.4936 55.0822 49.5212C54.5388 50.0998 54.5674 51.0092 55.1458 51.5526C55.7244 52.0961 56.6339 52.0675 57.1773 51.4888C57.1969 51.4681 63.0696 45.2239 64.024 44.2126C64.1018 44.1302 64.1754 44.0453 64.2469 43.9595C65.9172 42.1043 66.8369 39.7199 66.8369 37.2171V19.537C66.8369 18.622 67.4608 17.8445 68.3542 17.6463C68.9309 17.5183 69.5253 17.657 69.986 18.0264C70.4465 18.3959 70.7106 18.9465 70.7106 19.537V41.8212C70.7106 44.1411 70.0008 46.3672 68.6579 48.259L57.7996 63.5547C57.3402 64.2019 57.4924 65.0992 58.1395 65.5586C58.3922 65.7379 58.6825 65.8241 58.9702 65.8241C59.4201 65.8241 59.8632 65.6134 60.1434 65.2187L71.0016 49.923C72.6917 47.5423 73.585 44.7407 73.585 41.8213V19.537C73.5846 18.0702 72.9286 16.7026 71.7846 15.7846Z" fill=""/>
<path d="M54.9956 19.7846L52.4387 19.1737V18.7153C54.1005 17.5511 55.1902 15.6234 55.1902 13.4449V10.1208C55.1902 6.57392 52.3047 3.68844 48.7578 3.68844C47.1661 3.68844 45.7088 4.2708 44.5845 5.232C43.3327 2.16644 40.3206 0 36.8104 0C33.2958 0 30.2806 2.17205 29.0316 5.2435C27.9056 4.2754 26.4429 3.68815 24.8448 3.68815C21.2979 3.68815 18.4124 6.57363 18.4124 10.1205V10.3414V13.4446C18.4124 15.6231 19.5021 17.5509 21.164 18.715V19.1735L18.607 19.7843C15.5541 20.5137 13.4219 23.2152 13.4219 26.354V29.0381C13.4219 29.8319 14.0655 30.4753 14.8591 30.4753H21.4633C21.4531 30.6497 21.4461 30.8249 21.4461 31.0015V36.1694C21.4461 36.9632 22.0897 37.6066 22.8833 37.6066H31.5223C32.3159 37.6066 32.9595 36.9632 32.9595 36.1694C32.9595 35.3756 32.3159 34.7322 31.5223 34.7322H30.0374V31.7622C30.0374 30.9685 29.3938 30.325 28.6002 30.325C27.8066 30.325 27.163 30.9685 27.163 31.7622V34.7325H24.3206V31.0018C24.3206 28.2299 26.2034 25.8428 28.8987 25.1969L32.8427 24.2518L35.4821 30.2567C35.7115 30.7786 36.2277 31.1156 36.7976 31.1156H36.7977C37.3677 31.1156 37.884 30.7787 38.1133 30.2569L40.75 24.2609L44.6815 25.2001C47.3794 25.8447 49.2637 28.232 49.2637 31.006V34.7325H46.4214V31.7622C46.4214 30.9685 45.7778 30.325 44.9842 30.325C44.1905 30.325 43.547 30.9685 43.547 31.7622V34.7325H41.9182C41.1246 34.7325 40.481 35.3759 40.481 36.1697C40.481 36.9635 41.1246 37.6069 41.9182 37.6069H50.7011C51.4947 37.6069 52.1383 36.9635 52.1383 36.1697V31.006C52.1383 30.8279 52.1311 30.6514 52.1208 30.4756H58.7437C59.5373 30.4756 60.1809 29.8322 60.1809 29.0384V26.3543C60.1809 23.2155 58.0486 20.5138 54.9956 19.7846ZM48.7578 6.56256C50.6409 6.56256 52.1867 8.03297 52.308 9.88581H50.3099C48.6301 9.88581 46.977 9.48138 45.4911 8.71133C46.0376 7.44831 47.2963 6.56256 48.7578 6.56256ZM45.1999 13.2348C45.2016 13.1648 45.2052 13.0951 45.2052 13.0247V11.7447C46.8179 12.4121 48.5522 12.7602 50.3099 12.7602H52.3158V13.4448C52.3158 15.4065 50.7198 17.0027 48.7578 17.0027C46.7959 17.0027 45.1999 15.4065 45.1999 13.4446V13.2348ZM31.2901 8.39471C31.2901 5.35086 33.7664 2.87441 36.8104 2.87441C39.5559 2.87441 41.8394 4.88908 42.2611 7.51744L39.8416 6.0959C39.2364 5.74034 38.4629 5.87385 38.012 6.41209C36.8296 7.82313 35.0956 8.63243 33.2546 8.63243H31.2901V8.39471ZM24.8449 6.56256C26.3064 6.56256 27.565 7.44846 28.1117 8.71118C26.6256 9.48124 24.9727 9.88567 23.2929 9.88567H21.2947C21.416 8.03297 22.962 6.56256 24.8449 6.56256ZM21.287 12.7601H23.2929C25.0525 12.7601 26.7886 12.4113 28.4029 11.7424V13.4445C28.4029 15.4063 26.8068 17.0024 24.8449 17.0024C22.883 17.0024 21.287 15.4065 21.287 13.4446V12.7601ZM28.229 22.4016C25.4014 23.0791 23.1792 25.0505 22.1216 27.6011H16.2963V26.3542C16.2963 24.551 17.5211 22.999 19.2749 22.5801L22.9352 21.7057C23.582 21.5512 24.0385 20.973 24.0385 20.3078V19.8247C24.3029 19.8579 24.5717 19.877 24.8449 19.877C25.1161 19.877 25.383 19.8581 25.6454 19.8254V20.2354C25.6444 20.2568 25.644 20.2782 25.6439 20.2997C25.6436 20.7712 25.8754 21.2331 26.3011 21.5085C26.4615 21.6124 26.6348 21.6799 26.8117 21.7137L28.9556 22.2274L28.229 22.4016ZM32.2379 20.1704C31.8687 20.0076 31.4838 19.8774 31.0871 19.7824L28.5197 19.1671V18.7193C28.9831 18.3955 29.402 18.0128 29.7653 17.5813C30.4072 18.5701 31.2505 19.4156 32.2379 20.0596V20.1704ZM38.48 22.2821L36.7981 26.1073L35.1124 22.2724V21.2468C35.661 21.3599 36.2289 21.4195 36.8104 21.4195C37.3819 21.4195 37.9401 21.3616 38.48 21.2522V22.2821ZM36.8104 18.545C33.7664 18.5451 31.2901 16.0687 31.2901 13.0247V11.5067H33.2546C35.5337 11.5067 37.7007 10.6592 39.3615 9.14752L42.3253 10.8888V13.2349C42.2144 16.1816 39.7839 18.545 36.8104 18.545ZM41.3544 20.175V20.0777C42.3498 19.4342 43.2006 18.5865 43.8475 17.5934C44.2084 18.02 44.6237 18.3985 45.0826 18.7193V19.1671L42.5151 19.7824C42.1149 19.8784 41.7268 20.0102 41.3544 20.175ZM57.3063 27.6011H51.4612C50.4026 25.0505 48.1788 23.0802 45.3495 22.4043L44.6279 22.232L46.7833 21.7154C46.9626 21.6821 47.1388 21.6137 47.3014 21.5085C47.7264 21.2335 47.9575 20.7716 47.9575 20.3001C47.9575 20.2889 47.9573 20.2775 47.957 20.2663V19.8254C48.2196 19.8581 48.4864 19.877 48.7576 19.877C49.0308 19.877 49.2995 19.8579 49.564 19.8247V20.3078C49.564 20.973 50.0204 21.5512 50.6673 21.7057L54.3276 22.5801C56.0814 22.9992 57.3063 24.551 57.3063 26.3542V27.6011Z" fill=""/>
<path d="M37.8083 35.1526C37.5397 34.8853 37.1703 34.7329 36.7923 34.7329C36.4127 34.7329 36.0435 34.8853 35.7762 35.1526C35.5074 35.4213 35.3551 35.7907 35.3551 36.1701C35.3551 36.5481 35.5074 36.9175 35.7762 37.1862C36.0435 37.4535 36.4129 37.6073 36.7923 37.6073C37.1703 37.6073 37.5397 37.4535 37.8083 37.1862C38.0756 36.9175 38.2295 36.5481 38.2295 36.1701C38.2295 35.7907 38.0757 35.4213 37.8083 35.1526Z" fill=""/>
 </g></svg>
