<svg width="67" height="63" viewBox="0 0 67 63" fill="none" xmlns="http://www.w3.org/2000/svg">
<path d="M18.3574 22.7113V39.4357L33.4809 48.2461L48.6043 39.4357V22.7113L33.4809 14.3424L18.3574 22.7113ZM42.5852 23.8895L33.4809 29.0177L24.3766 23.8895L33.4809 18.8515L42.5852 23.8895ZM22.3027 27.2494L31.5082 32.4347V42.5311L22.3027 37.1683V27.2494ZM35.4535 42.5311V32.4347L44.6591 27.2494V37.1683L35.4535 42.5311Z" fill="#34B175"/>
<path d="M67 16.753L56.9139 13.8024L53.9635 23.8887L57.75 24.9963L58.8698 21.1686C60.1473 24.368 60.8123 27.8004 60.8123 31.2801C60.8123 46.2919 48.5993 58.505 33.5874 58.505C28.6382 58.505 23.7932 57.1644 19.5765 54.6281L17.543 58.0091C22.3737 60.9147 27.9218 62.4503 33.5874 62.4503C41.9133 62.4503 49.7407 59.2081 55.6281 53.3208C61.5154 47.4334 64.7576 39.6059 64.7576 31.2801C64.7576 27.2369 63.9733 23.2484 62.4666 19.5374L65.8926 20.5395L67 16.753Z" fill="#34B175"/>
<path d="M14.3193 11.8297C19.4545 6.74223 26.2531 3.94528 33.4765 3.94528C33.5199 3.94528 33.5636 3.94541 33.6071 3.94568C38.5565 3.96882 43.3951 5.33205 47.5996 7.88794L49.649 4.51669C44.8321 1.5885 39.2912 0.026828 33.6255 0.000394562C33.5752 0.000131544 33.5261 0 33.4759 0C25.2063 0 17.4215 3.20278 11.5425 9.02707C5.62782 14.8869 2.34915 22.6992 2.31023 31.0248C2.29129 35.0669 3.05773 39.0592 4.54878 42.7787L1.12533 41.7599L0 45.5413L10.0723 48.5387L13.0698 38.4664L9.28838 37.3411L8.15161 41.1607C6.88847 37.9549 6.23934 34.5204 6.25551 31.0433C6.28944 23.7713 9.15332 16.9478 14.3193 11.8297Z" fill="#34B175"/>
</svg>
