<svg xmlns="http://www.w3.org/2000/svg" viewBox="0 0 108.78 106.67"><defs><style>.cls-1{fill:#b2b2b2;}</style></defs><g id="Camada_2" data-name="Camada 2"><g id="Camada_1-2" data-name="Camada 1"><path class="cls-1" d="M51.79,106.67A57.32,57.32,0,0,1,.54,75.07a5,5,0,1,1,8.92-4.5A47.55,47.55,0,0,0,98.85,56.62a5,5,0,1,1,9.87,1.57A57.37,57.37,0,0,1,60.77,106,58.18,58.18,0,0,1,51.79,106.67Z"/><path class="cls-1" d="M28.24,29.19c.14,3.56-.58,8.19-4.66,10.92A12.2,12.2,0,0,1,17.67,42c-5.34.43-8.18-2.95-9.3-7.87a35.25,35.25,0,0,1-.89-9,17.64,17.64,0,0,1,2.69-9,11.14,11.14,0,0,1,7.76-5c2.76-.36,5.28.26,7.08,2.52,1.54,2,1.77,5.07,1.72,7.5a.75.75,0,0,1-.71.83L20.43,23a.88.88,0,0,1-1.05-.91,14.06,14.06,0,0,0-.16-2.61c-.1-.66-.31-1.38-1-1.58a1.49,1.49,0,0,0-.58,0c-1,.17-1.75,1.63-2.12,2.41-1.3,3.21-1,7.5-.46,10.85.16,1,.7,3.7,1.88,4.08,1.9.68,3.39-.87,3.8-2.77L19,33a.88.88,0,0,1-.82-.09.84.84,0,0,1-.39-.74l-.08-5.71a.89.89,0,0,1,.65-.92c2.13-.66,3-.94,3.88-1.17C26.12,23.32,28.11,25.36,28.24,29.19Zm-17.91-8a0,0,0,0,1-.05,0v0c-.13,0-.11.15-.1.19a.14.14,0,0,0,.12-.06A.05.05,0,0,0,10.33,21.16Zm2.92,12.41a.89.89,0,0,1-.09-.3c-.05,0-.05,0-.1,0l-.3,0c0,.22,0,.4,0,.44a.4.4,0,0,0,.07.17l.17,0a.2.2,0,0,0,.22,0A.46.46,0,0,0,13.25,33.57Zm.42-12.51.26,0a1.09,1.09,0,0,1,.58-.28l-.71,0A.46.46,0,0,0,13.67,21.06Zm0-.95c0,.09.3.18.39.21s.14,0,.19.06l.05-.23a3.86,3.86,0,0,0-.51-.37s0,.1-.06.15A.16.16,0,0,0,13.69,20.11Zm3.54-4.06.09,0,0-.09h-.09Zm.45,21.62-.26,0-.05.23h.09c.05,0,.05,0,.09,0l.18,0Zm0-21.48.07.17.35-.06a.43.43,0,0,0-.13-.24c0,.05-.08.05-.16.07A.25.25,0,0,0,17.7,16.19ZM19.45,14a.13.13,0,0,1,.06.08l.13,0,.07-.11c0-.05,0-.09.11-.15l-.4,0Zm.19,8.56.26-.05a.17.17,0,0,0,0-.13.19.19,0,0,1-.07-.13C19.7,22.4,19.63,22.5,19.64,22.59Zm.51-8.36s-.11.1-.22.26l.15.11.48-.08a.19.19,0,0,0,.08-.06v-.09c-.09,0-.19,0-.2-.1s0-.09.07-.15A1.25,1.25,0,0,1,20.15,14.23Zm.39,1.27,0-.13.07-.1a.82.82,0,0,0-.36,0c-.09,0-.17.07-.15.16l.24.1A.33.33,0,0,1,20.54,15.5ZM20.74,40l-.24-.1a.3.3,0,0,1-.17.08.23.23,0,0,0-.2.12v0s.05,0,.05,0l.48-.08Zm-.14-23,0,.13.08,0C20.78,17,20.78,16.94,20.6,16.93Zm.71.55-.35.06a.46.46,0,0,0-.33.14,6.07,6.07,0,0,0,.65.16,1.6,1.6,0,0,1,.34-.1c.13-.06.16-.11.15-.2S21.62,17.43,21.31,17.48ZM21,16.36a.26.26,0,0,1-.16.12.08.08,0,0,0-.07.1c0,.09.06.08.1.07l.26,0s0-.05,0-.14S21.13,16.35,21,16.36Zm.57,2.41a.68.68,0,0,1,.2-.16.17.17,0,0,0,.12-.07l0-.13-.1-.07s-.09,0-.19-.06a.5.5,0,0,1-.47.39l.12.16c.05.08.1.07.18.06S21.59,18.87,21.61,18.77Zm-.19,1c-.14,0-.17.07-.16.16l.44-.08S21.55,19.73,21.42,19.75Zm.2-1.51.07-.11,0-.13c0-.08-.07-.12-.2-.1s-.08.06-.12.07H21.3l0,.18A.65.65,0,0,1,21.62,18.24ZM21.7,16c0,.13.19.06.17-.07l0-.13-.18,0Zm0,.36a.53.53,0,0,0,.54.31c.09,0,.13,0,.17-.07l.13,0a.2.2,0,0,0-.2-.11c-.09,0-.14-.06-.16-.15s-.1-.07-.11-.12,0-.08-.1-.07a1.05,1.05,0,0,0-.25.09S21.71,16.34,21.72,16.39Zm.39,3.2c-.17.07-.25.13-.24.22s.1,0,.14,0,0,0,.14,0,.07-.1.11-.11S22.2,19.62,22.11,19.59Zm-.11-5a.2.2,0,0,0,.25.18l.17,0s0,0,0-.09.05,0,0,0,0-.05,0-.14-.06-.08-.24-.14a.8.8,0,0,1-.16.16C22,14.5,22,14.51,22,14.55Zm.39,2.93s0,0,0-.05,0-.18-.07-.16-.07.1-.06.14S22.34,17.45,22.39,17.48Zm.33,1.2a.2.2,0,0,0-.19-.06c0,.1,0,.19,0,.18S22.73,18.77,22.72,18.68Zm.19-.74-.09,0a.2.2,0,0,0-.13.06l-.17,0a1,1,0,0,0,.33.12C22.93,18.07,22.92,18,22.91,17.94Zm-.07-2.86c.05,0,.05,0,.08-.05v-.09l-.05,0Zm.25,10.25-.22,0,0,.09c0-.05,0-.05.08-.06A.23.23,0,0,0,23.09,25.33Zm0-10.91s.11.07.25.13c0,0,0,0,0-.09l0-.17s-.09,0-.18,0A.26.26,0,0,0,23.09,14.42Zm1.39,14.76a2.31,2.31,0,0,1-.27,0l0,.14h.22C24.49,29.27,24.49,29.22,24.48,29.18Zm-.26-15.26a.22.22,0,0,0,.18,0l.15-.2h-.09a.33.33,0,0,0-.22,0l0,0Zm.85,11.22a.33.33,0,0,0-.22,0,.39.39,0,0,0-.35.32.68.68,0,0,0,.27.05,3.3,3.3,0,0,0,.34-.15Zm.44,3.2,0-.36a4.87,4.87,0,0,1,0-.53l-.2-.14a.7.7,0,0,0,.07-.37.15.15,0,0,0-.06-.13,1.6,1.6,0,0,1,0-.4l-.13,0c-.05,0-.08,0-.12.1l-.07.11c.13.29.2.41.16.46s0,.09,0,.23l.23,1.39a.21.21,0,0,0,0,.18l.25,1.57c.06.08.11.12.2.1s.12-.06.2-.16l-.06-.35a4.81,4.81,0,0,1-.26-1l-.08-.48s0-.1,0-.14A.11.11,0,0,1,25.51,28.34Zm-.45-2.48,0-.17h-.09l0,.18Z"/><path class="cls-1" d="M50,20.8l0,.13h0a39.45,39.45,0,0,1,.14,4.72l-.15-.11c-.1-.07-.15-.11-.16-.15l-.39.06a.19.19,0,0,0,0,.14v0c.09,0,.18,0,.23,0l.26,0c0,.08.11.11.25.14L50.13,27l-.26,0v.05l.26-.05a2.61,2.61,0,0,1-.1.74c0,.13-.17,0-.16.11L50,28a19.92,19.92,0,0,1-.94,3.55h0l-.22.26.11.12-.48.92a9.57,9.57,0,0,1-7.27,5.36,8.25,8.25,0,0,1-7.59-2.39l0-.08h-.08a2,2,0,0,1-.28-.31,13,13,0,0,1-2.51-4.16l0-.09a.15.15,0,0,1,0-.14s-.06-.08-.15-.11V31a21.09,21.09,0,0,1-.77-2.78,3,3,0,0,0,.09-1.36l.06-.19,0-.26a.83.83,0,0,1-.09-.3l-.05-.3a.33.33,0,0,1-.08-.17l-.14-.87a.81.81,0,0,1,0-.31,1.21,1.21,0,0,0-.16-.38c0-.05-.05-.08-.1-.12,0-.4-.06-.88,0-1.33,0-4.61.66-9.87,4.09-13.25A9.07,9.07,0,0,1,46.8,10.54c1.76,2.57,2.85,5.66,3.24,10.25ZM29.84,22.26a.42.42,0,0,0-.08-.21c-.11.15-.18.25-.17.34s.05,0,.1.07a.2.2,0,0,1,.14,0A.46.46,0,0,1,29.84,22.26Zm-.05.55H29.7l0,.17h.09Zm.62,5.71-.17,0a.1.1,0,0,0-.07.1s0,.08.1.12a1.45,1.45,0,0,0,.19.06.18.18,0,0,1,0-.14C30.51,28.59,30.46,28.56,30.41,28.52Zm0-1.38h-.09l.18,1.09h.09Zm1.34,1.08-.22,0v0h.22Zm.83.18h-.09s-.09,0-.18,0c-.26,0-.29.4-.28.49a.69.69,0,0,0,.14.25l.39-.07.11-.15Zm-.5,1a.42.42,0,0,0,.2.14l-.06-.34-.11.1S32,29.37,32,29.42Zm.1.61s.08,0,.14.06.07.13,0,.18,0,.17.07.17a.33.33,0,0,1,.17-.08l0-.13c-.15-.06-.25-.14-.22-.23s0-.17-.17-.2,0,0,0,.05a.13.13,0,0,0,0,.1S32.09,30,32.14,30Zm.14.87a1.17,1.17,0,0,0,.36.57l-.12.11s0,.05,0,.05l.09,0a.33.33,0,0,1,.17-.08l-.09-.52a1.79,1.79,0,0,0-.07-.48l-.18,0c0,.05,0,.05,0,.09s0,.05-.08.06A.15.15,0,0,0,32.28,30.9Zm.39,1.32,0,.18s0-.1.08-.11.08,0,.07-.1Zm.79,2.34a.32.32,0,0,0-.07-.17s-.06-.08-.07-.13l-.13,0c0,.06-.09,0-.14,0a.34.34,0,0,1,.21-.12,4.83,4.83,0,0,0-.06-.93c-.24-.05-.33-.08-.34-.12l0-.22c0-.09,0-.13-.07-.17l.09.79a.41.41,0,0,1,.23,0c-.31.28-.28.23-.23.49a.41.41,0,0,0,.08.21.89.89,0,0,1,.14.34.63.63,0,0,1,.23.05c-.08.06-.11.11-.16.11a.13.13,0,0,0,0,.1l0,0s0,.05.05,0S33.47,34.64,33.46,34.56Zm0,.39-.09,0-.18,0s0,0-.08.06l0,.26.13,0s0,0,.08-.06.08,0,.13-.06Zm1.28-9.38-.11-.12c0,.1,0,.14.13.21S34.81,25.56,34.76,25.57ZM35,9.69c.18,0,.27,0,.32,0a0,0,0,0,1,.05,0s0,.09.06.08a.18.18,0,0,0,.13,0,.31.31,0,0,0,.16-.12s0,0-.05,0-.06-.07-.06-.07Zm.57,17.41s-.07.14,0,.13Zm.9-17.47.22,0,.19-.21-.44.07Zm.36,5.76-.3,0,.12.21a.85.85,0,0,0,.25-.13A.46.46,0,0,0,36.81,15.39Zm.27-5.73-.26.05v0h0v0a.33.33,0,0,0,.34.17.21.21,0,0,0,.16-.12C37.16,9.87,37.1,9.8,37.08,9.66Zm1.1,23.68c0-.18-.31-.27-.35-.26s0-.14,0-.31l-.22,0c-.45.26-.9.51-.78.94a.5.5,0,0,1,.37.12.19.19,0,0,1,.15.06.49.49,0,0,0,.28.09A.67.67,0,0,0,38.18,33.34Zm4.7-9.86s.13,0,.12-.06a.29.29,0,0,1,.06-.19c.1,0-.14-.07-.28,0a49.91,49.91,0,0,0-.71-5.75,16.73,16.73,0,0,0-.74-2.61h0l.05,0,.26,0a.29.29,0,0,0-.12-.21c-.12.07-.2.13-.23.22a4.47,4.47,0,0,0-.52-1A1.42,1.42,0,0,0,39,13.12c-1.34.62-1.74,3.06-1.85,4.28a36.2,36.2,0,0,0,.48,9.81c.2,1.18.7,3.43,1.94,3.94a1.31,1.31,0,0,0,.64.07c1.57,0,2.11-1.33,2.33-2.71a21.82,21.82,0,0,0,.26-5s0,0,.09,0S42.88,23.48,42.88,23.48ZM39.35,35.29s-.05,0-.06-.08l-.16.12a.31.31,0,0,0,.24.05Zm0-26.13.31-.05,0-.09-.3.05Zm.57-.05c.14,0,.24.05.26.18s.16.15.42.11c.09,0,.12-.07.07-.1s-.06-.13.05-.23A2.42,2.42,0,0,0,41.17,9c.09,0,.13-.06.12-.11a.24.24,0,0,0,0-.14.85.85,0,0,1,.25-.13c.09,0,.16-.07.23-.21s-.09,0-.18,0a.43.43,0,0,1-.28,0,.21.21,0,0,0,0,.18.18.18,0,0,1,0,.14s-.08.06-.16.16A.35.35,0,0,1,40.9,9l-.13,0s0,0-.08.06c-.21.08-.32,0-.29-.13l0-.13A.82.82,0,0,0,39.94,9.11Zm.18-.57c.11.12.2.15.29.13s.25-.08.39-.1l.29-.14L41,8.36v0a.21.21,0,0,1-.18,0l-.18,0a1.08,1.08,0,0,1-.4,0C40.14,8.4,40.11,8.45,40.12,8.54Zm3.07,25.32-.1-.08-.31,0a1.52,1.52,0,0,0-.72.48l.79,0a.31.31,0,0,1,.16-.11.33.33,0,0,0,.21-.13Zm-.92-25,.22,0,0-.09-.22,0Zm.78,8.33.16-.12-.06-.39a.72.72,0,0,0-.46-.06s0,.05,0,.09,0,.09,0,.14l-.16.16c-.08.06-.16.12-.15.16s.11.11.2.15l.35-.06A.4.4,0,0,1,43.05,17.15ZM43,35.5l-.14-.07-.14,0a.38.38,0,0,0-.27.23.85.85,0,0,0,.42.11s.08-.06.16-.12Zm-.11-.92s-.08,0-.09,0l-.13,0c-.17.07-.2.16-.19.21s0,.13.06.12,0,0,.05,0a.27.27,0,0,0,.17-.07l.17,0ZM42.61,19.9V20a2.43,2.43,0,0,0,.27,0,.5.5,0,0,0,.27,0,.17.17,0,0,0,.08-.06l0-.08a.48.48,0,0,0-.37-.08C42.72,19.79,42.6,19.86,42.61,19.9Zm.13.79,0,.13s.05,0,.09,0,0,0,.1.07.07-.1.2-.17l.19-.16-.13-.25A5.23,5.23,0,0,0,42.74,20.69Zm.09.61c0,.19,0,.27.05.3a.17.17,0,0,1,.08-.06.11.11,0,0,0,.08-.05A.28.28,0,0,0,42.83,21.3Zm.53,1.57s.09,0,.18,0a6.48,6.48,0,0,0,.83-.4l-.57-.18a1.38,1.38,0,0,1-.23-.09l-.24-.1a.53.53,0,0,1-.16.12.68.68,0,0,1-.05.27l.06.35A.47.47,0,0,1,43.36,22.87Zm.06,2a.79.79,0,0,0,.22.23.48.48,0,0,0,.37.08.43.43,0,0,0,.32-.19l0-.17a2.31,2.31,0,0,1-.59,0,1.08,1.08,0,0,1-.49,0l0,.22A.77.77,0,0,0,43.42,24.87Zm0,.63h0s0,0,0,.09,0,0,0,.08.08-.1.16-.15A.2.2,0,0,1,43.39,25.5Zm.12,1a1.62,1.62,0,0,1,.75-.3.24.24,0,0,1,.19,0l.17,0a2,2,0,0,0,.58-.28l0-.13,0,0-.48.08a1.39,1.39,0,0,1-.36,0l-.18,0a.34.34,0,0,0-.24.13,1.2,1.2,0,0,0-.24.22c-.1-.07-.14-.07-.19-.06l0-.17A.64.64,0,0,0,43.51,26.51Zm0-2.51-.11.15a2.71,2.71,0,0,0,.62-.28l-.09,0c0-.05-.09,0-.18,0A.52.52,0,0,0,43.55,24Zm.82-1c0-.08,0-.13-.07-.12a.22.22,0,0,0-.09,0c-.22,0-.49,0-.62.33a.37.37,0,0,0,.38.11C44.06,23.29,44.39,23.15,44.37,23Zm-.69-5.57h.09a.17.17,0,0,1,.12-.07s0,0-.1-.07l-.15-.06Zm.2,10.26a.22.22,0,0,0-.09,0,.08.08,0,0,1-.1-.07c0,.1,0,.1,0,.14S43.8,27.76,43.88,27.7Zm-.05-7.95a.25.25,0,0,0-.16.07s.1.07.14.06l.13,0v0l0-.05S43.92,19.73,43.83,19.75Zm.5,1.93a.38.38,0,0,1-.28-.31c0-.1,0-.18-.18-.29,0,0,0,.05-.08.06a.22.22,0,0,1-.12.07.08.08,0,0,1,0,.13.29.29,0,0,0,0,.18.54.54,0,0,0,.16.15.68.68,0,0,0,.39.21C44.3,21.77,44.34,21.72,44.33,21.68Zm.13-1.41.13,0,0-.22-.13,0Zm.27,6.62v-.08l-.26,0v.09Zm-.17-2.43.13.25a.23.23,0,0,0,.1-.2A.39.39,0,0,0,44.56,24.46ZM46.32,32a1.76,1.76,0,0,0-.62-.26,2.35,2.35,0,0,1-.46-.06c-.09,0-.1-.07-.11-.16l-.1-.07-.1,0h-.09c-.17,0-.25.09-.23.22a.64.64,0,0,1,0,.32.29.29,0,0,0,.15.07c.06.08.1.07.14.06s.11.07.12.16v.09a2.91,2.91,0,0,0,.7.15A2.18,2.18,0,0,0,46.32,32Zm-1.63-8.6,0,.22.3-.09A.92.92,0,0,0,44.69,23.36Zm0-2.82.31-.05a.6.6,0,0,0-.15-.33c0,.08,0,.13-.05.19S44.72,20.5,44.72,20.54Zm.07,6.7a.32.32,0,0,0,.39-.06L45.07,27a.71.71,0,0,1-.15.16A.2.2,0,0,0,44.79,27.24Zm.08-5.83c.1.07.13,0,.08-.05s-.06-.09-.07-.13a.37.37,0,0,0,0,.14ZM45,29.67a.22.22,0,0,1-.09,0l0,.22a.2.2,0,0,0,.15-.21Zm.53,4.88-.18,0a.16.16,0,0,0-.14.2.1.1,0,0,0,.1.07l.1.07c0-.05.13-.06.26-.08S45.68,34.57,45.54,34.55Zm.14-11.44-.26.05c0,.13,0,.21.18.28l.22,0c0-.08,0-.17-.07-.16S45.69,23.16,45.68,23.11Zm.09,10.68.16-.16s-.13-.2-.13-.24-.08,0-.2.16-.12.07-.12.11a.1.1,0,0,0,.11.07A.26.26,0,0,1,45.77,33.79Zm1.44-5.42L47.16,28a.42.42,0,0,0-.24-.05c0,.05,0,.09-.07.1s0,.05-.07.1a.26.26,0,0,1-.16.12l-.28-.05,0-.13c.17-.07.29-.14.28-.18l0-.17-.27,0a3.62,3.62,0,0,0-.54.22l0,.31c0,.13.07.16.09.25l.26,0a2,2,0,0,0,.62-.28A.47.47,0,0,0,47.21,28.37Zm0-.8s0-.05,0-.14a.22.22,0,0,0-.16-.15c-.09,0-.14-.07-.15-.11a.4.4,0,0,1,.1-.24.39.39,0,0,0,.09-.24,1.17,1.17,0,0,0-.29-.4l-.48.08.11.07,0,.26a.88.88,0,0,1,0,.32.35.35,0,0,1-.17-.24s-.1-.07-.29-.09a.64.64,0,0,0,0,.55,1.41,1.41,0,0,0,.4,0,1.14,1.14,0,0,1,.41,0,.71.71,0,0,0-.06.46,1,1,0,0,0,.48-.08A0,0,0,0,1,47.17,27.57Zm-.82,1.29a3,3,0,0,0-.47-.19l0,.18.15.06Zm-.45-3.05c0,.09.06.08.06.08s0,0,0,.08l.4-.07a.23.23,0,0,0,.18,0c.08-.06.11-.15.08-.33a2.14,2.14,0,0,0-.41,0C46.09,25.6,45.86,25.59,45.9,25.81Zm.2-.39c.17-.08.21-.13.19-.21s-.14-.07-.32,0ZM46,23.83c0,.08.06.12.11.11l.13,0a.29.29,0,0,0,0-.27s0-.14.22-.26c0,0,0,0,0,0h0a0,0,0,0,1-.05,0A1,1,0,0,0,46,23.83Zm.12,10.58-.12.11.15.11C46.16,34.53,46.15,34.45,46.1,34.41Zm0-9.79a.22.22,0,0,0,0,.09c0,.09.07.13.21.15a.78.78,0,0,1,.19-.21.58.58,0,0,0-.34-.13C46.11,24.61,46.11,24.61,46.06,24.62Zm.34-.68,0,.17a.45.45,0,0,1,.23.05l.07-.1v0C46.67,23.94,46.57,23.91,46.4,23.94Zm.06-2.65a1.14,1.14,0,0,1,.34-.1.23.23,0,0,1,.29.13l-.22.3a1,1,0,0,0,.62,0c-.19-.1-.25-.18-.13-.25a1,1,0,0,1,.19-.21c-.45-.06-.73-.1-.95-.11l-.08.1C46.49,21.23,46.45,21.24,46.46,21.29Zm.13,1.09h.09l.07-.1-.09,0Zm.09-1.67a.33.33,0,0,1,.33.13c.11-.15.1-.24,0-.31a.26.26,0,0,1-.16.12A.16.16,0,0,0,46.68,20.71Zm.42,10.54a.28.28,0,0,0,.17-.07l.13,0-.12-.2a2.3,2.3,0,0,0-.5.26A.39.39,0,0,0,47.1,31.25Zm0-7.89v-.08l-.35,0,0,.09Zm-.27.54c0,.09.07.12.11.12s.12-.11.11-.15Zm.73,7.45h0s-.13,0-.14,0a.17.17,0,0,0-.14,0,.93.93,0,0,0-.21.08s0,.05-.08.05l-.09,0s.1.07.16.11l.1.11,0,.14c-.05,0,0,.05,0,.09l.34-.06a.4.4,0,0,0,.12-.38Zm-.45-6.6,0-.13-.13,0,0,.13Zm1.11-.05c0-.13.1-.19.09-.24a1.08,1.08,0,0,1-.45.26l-.23,0a.91.91,0,0,1-.24-.1s0,.05-.07.1a.19.19,0,0,1-.13.07l0,.21a1.53,1.53,0,0,1,.44,0,.86.86,0,0,0,.32,0A.24.24,0,0,0,48.27,24.7Zm-.56.95a.3.3,0,0,1,.23.05.68.68,0,0,0,.05-.24.3.3,0,0,1-.07-.16.08.08,0,0,1,.07-.1H47.9s0,0,0,0c.08.17,0,.27-.22.27a.66.66,0,0,0-.37.19.26.26,0,0,1,.13,0A.69.69,0,0,0,47.71,25.65Zm.61-3.91-.09,0c0-.05,0,0-.13,0s-.09,0-.08.06l-.13,0c-.14,0-.21.13-.19.21s.17,0,.2-.12C48,22,48,22,48,22v.09l-.65.42a1,1,0,0,0,.11.38c.07.17.19.06.23.05l.18,0a.46.46,0,0,1,.23.06,1.48,1.48,0,0,1,.34.16l-.11.11s0,0-.06,0h-.08a.31.31,0,0,0-.25.13.57.57,0,0,1-.2.12l-.22,0c.1.07.16.15.16.2a.6.6,0,0,0,.17.19A.2.2,0,0,0,48,24a.8.8,0,0,0,.44-.07.41.41,0,0,1-.18-.29l-.09,0c-.17,0-.27,0-.27-.05v0l.29-.14a2.55,2.55,0,0,0,.25-.08c.08-.06.17-.08.2-.17a1.25,1.25,0,0,0,.2-.17c-.18,0-.23,0-.29-.09l0-.17h-.09c-.05,0-.05,0-.06-.07a.18.18,0,0,1,0-.14l.12-.11c-.05,0-.09,0-.2-.1s-.14-.07-.15-.11.15-.16.37-.2a.56.56,0,0,1-.19-.1s-.1-.07-.11-.12l.22,0a.93.93,0,0,0,.53,0,.14.14,0,0,1,0-.14.15.15,0,0,0,0-.14c0-.13-.38-.16-.47-.15a.55.55,0,0,1,0,.24A.24.24,0,0,1,48.32,21.74Zm-.69,4.5L47.45,26a.19.19,0,0,0-.11-.16c0,.26.07.44.12.47s.08,0,.12-.06Zm.13-3c0-.06,0-.1,0-.18l-.31.05v.18Zm-.34-2.63c0,.08,0,.08.07.12l.1.07a.29.29,0,0,0,0-.23Zm.22,6.22,0-.21-.13,0,0,.22Zm-.16.12.13.25c.12-.07.16-.12.14-.2a.17.17,0,0,1-.13,0A.41.41,0,0,0,47.48,27Zm.08.52a.14.14,0,0,0,.1,0l.14.07c.07-.15.15-.2.24-.17s.24.05.4-.07c-.06,0-.06-.08-.06-.08l-.05,0A2.88,2.88,0,0,1,47.56,27.5Zm.26,3h-.08l-.07.15.09,0ZM47.68,26l.43-.07a.14.14,0,0,0,.08-.06s0-.1.08-.1c-.13,0-.27,0-.32,0l-.26,0Zm0-4.44a.2.2,0,0,0,.16.16l.22,0c.07-.1.06-.14.06-.14s.09-.06.07-.15A.69.69,0,0,0,47.71,21.57Zm1.74,4.91c-.08,0-.18-.06-.29-.13a.4.4,0,0,0-.24-.1c-.08,0-.08,0-.07.06H48.8a1.13,1.13,0,0,1-.55-.09,3.16,3.16,0,0,0,.38-.15,1.72,1.72,0,0,1,.25-.09,1.94,1.94,0,0,0,.08.21l.18,0s.13,0,.12-.06l0-.05,0-.13c-.09,0-.22,0-.28-.09a.26.26,0,0,1-.24-.1.91.91,0,0,1,.36-.28,2.15,2.15,0,0,0-.35-.21,1,1,0,0,0-.53,0l.44.24s-.07.1-.11.11-.16.12-.2.17,0,.27-.36.55l-.06.14a1.33,1.33,0,0,0,.53,0l.55.05,0,.13a.31.31,0,0,1-.21.08c.09,0,0,0-.16.12a.54.54,0,0,0,.41.06l.07-.14A2.16,2.16,0,0,0,49.45,26.48ZM48,27.7v.09l.22,0v-.09Zm.23-.75a.42.42,0,0,0,.21-.08c0-.05,0,0-.13,0l-.26,0A.28.28,0,0,1,48.23,27Zm.23,3.27a.88.88,0,0,0-.36,0,.17.17,0,0,1,.06.09l.11.11a.25.25,0,0,0,.16-.07A.5.5,0,0,0,48.46,30.22Zm.18-.25s-.14,0-.27,0l-.26,0,.24.1a.42.42,0,0,1,.24.09A.29.29,0,0,1,48.64,30Zm0-1.16a.29.29,0,0,0-.29-.13l0,.18Zm-.29-8.06h.31V20.7l-.32,0Zm1.18,3.12c-.17,0-.27,0-.33-.08.16-.11.19-.21.09-.28a.34.34,0,0,1-.12-.2c0,.13,0,.23-.23.26l-.26,0c-.13,0-.22,0-.25.08a.84.84,0,0,1,.35,0,.53.53,0,0,0,.2.1A.43.43,0,0,0,49.52,23.87Zm.07,4.24a.8.8,0,0,1-.23,0,.33.33,0,0,1-.22,0,.47.47,0,0,1,.08-.33,1.45,1.45,0,0,1-.29.14,1,1,0,0,0-.38.15l0,.26.53-.09A3.79,3.79,0,0,0,49.59,28.11Zm-.51.44s-.1,0-.23,0a.27.27,0,0,0-.22,0l.25.18c.07-.1.07-.1.12-.11S49,28.56,49.08,28.55Zm0,1a.37.37,0,0,1-.22-.23s-.08,0-.06.14,0,.09,0,.14Zm0,.9-.22,0,0,.13.22,0Zm.16-8.31-.37-.07a.35.35,0,0,0,.44.24c.09,0,.14,0,.13-.06l.09,0A.7.7,0,0,0,49.24,22.17ZM48.87,21c0,.08.08.16.12.16l.26-.09s0,0-.06-.08l0-.09A.47.47,0,0,0,49,21Zm.25,4s0,0,0,0l0,0-.11.11Zm.37-2.12a1.28,1.28,0,0,1-.12-.2c0-.05-.06-.08-.19-.1s-.16.16-.2.16a.26.26,0,0,0-.07.15l.1,0v0l.22,0C49.37,23,49.46,22.94,49.49,22.89Zm-.16,1.73-.31.05,0,.09.3-.05Zm-.24-3.9.61-.1v-.09l-.61.1ZM49.53,22a.22.22,0,0,0,0-.09l0,0h-.31C49.29,21.94,49.34,22,49.53,22Zm.32-3H49.4l-.08.1s0,.05,0,.09a.85.85,0,0,1,.35-.1A.46.46,0,0,1,49.85,19Zm-.14,5.48-.26,0c0,.06,0,.1,0,.14s.06,0,.06.08,0-.05,0-.05,0,0,0-.1Zm-.23-3.36.26,0C49.59,21,49.5,21,49.48,21.15Zm.72,2.21c-.32,0-.41,0-.32,0-.18,0-.5,0-.11.15a.34.34,0,0,0,.27.05C50.09,23.51,50.12,23.46,50.2,23.36Zm-.58,3.05,0,.13.09,0,0-.13ZM50,22l-.22,0v.09l.22,0Zm0,1.61a3.29,3.29,0,0,0-.06.19l.09,0,0-.05C50.17,23.72,50,23.61,50,23.62Z"/><path class="cls-1" d="M72.53,17.11l0,.13h0A37.46,37.46,0,0,1,72.74,22l-.15-.11c-.1-.07-.15-.11-.16-.15l-.39.06a.19.19,0,0,0,0,.14v.05a.36.36,0,0,1,.23,0l.26,0c0,.09.11.12.25.14l-.1,1.31-.26,0v0l.27,0a2.64,2.64,0,0,1-.11.73c0,.14-.17,0-.16.11l.15.07a19.92,19.92,0,0,1-.94,3.55h0l-.22.26.11.12-.48.93a9.56,9.56,0,0,1-7.27,5.35,8.28,8.28,0,0,1-7.59-2.38v-.09H56a1.6,1.6,0,0,1-.28-.31,13,13,0,0,1-2.51-4.15l0-.1a.16.16,0,0,1,0-.13c0-.05-.06-.09-.15-.11v.08a22.27,22.27,0,0,1-.77-2.78,3.11,3.11,0,0,0,.1-1.36l0-.18,0-.27a.83.83,0,0,1-.09-.3l-.05-.3a.23.23,0,0,1-.07-.17l-.15-.87a.81.81,0,0,1,0-.31,1.21,1.21,0,0,0-.15-.38s-.06-.08-.11-.12c0-.4-.06-.88,0-1.33,0-4.6.67-9.87,4.09-13.25A9.08,9.08,0,0,1,69.33,6.85c1.77,2.57,2.85,5.66,3.25,10.25ZM52.37,18.57a.46.46,0,0,0-.08-.21c-.11.15-.18.26-.17.34s.05,0,.1.08a.17.17,0,0,1,.14,0A.46.46,0,0,1,52.37,18.57Zm0,.55h-.08l0,.18.09,0ZM53,24.83l-.18,0a.1.1,0,0,0-.07.1c0,.05.06.08.11.12s.09,0,.18.06A.18.18,0,0,1,53,25C53.05,24.9,53,24.87,53,24.83Zm-.05-1.38-.09,0L53,24.56l.09,0Zm1.34,1.08-.22,0v0h.22Zm.83.18H55s-.1,0-.19,0c-.26,0-.29.4-.27.49a.55.55,0,0,0,.13.25l.39-.07.11-.15Zm-.5,1a.59.59,0,0,0,.2.15l-.06-.35-.11.11C54.55,25.64,54.56,25.69,54.57,25.73Zm.1.61s.09,0,.14.07.07.12,0,.17,0,.18.07.17a.25.25,0,0,1,.17-.07l0-.13c-.15-.07-.25-.14-.22-.24s0-.17-.16-.19,0,0,0,.05a.11.11,0,0,0,0,.09S54.62,26.35,54.67,26.34Zm.14.87a1.25,1.25,0,0,0,.36.57l-.11.11c-.05,0,0,.05,0,.05l.09,0a.25.25,0,0,1,.17-.07l-.08-.53a1.78,1.78,0,0,0-.08-.47l-.18,0a.13.13,0,0,0,0,.1s0,.05-.08.05A.19.19,0,0,0,54.81,27.21Zm.4,1.33,0,.17c0-.05,0-.1.07-.1s.08-.06.07-.1ZM56,30.87a.32.32,0,0,0-.07-.17c-.05,0-.06-.08-.07-.12l-.13,0s-.08,0-.14,0a.4.4,0,0,1,.21-.13,4.87,4.87,0,0,0-.06-.93c-.24-.05-.33-.08-.34-.12l0-.22c0-.08,0-.13-.08-.17l.09.8a.29.29,0,0,1,.23.05c-.31.27-.28.22-.23.48a.39.39,0,0,0,.08.21.81.81,0,0,1,.14.34.63.63,0,0,1,.23.05c-.08.06-.11.11-.16.12s0,.05,0,.09l0,0a0,0,0,0,0,.06,0C55.69,31.23,56,31,56,30.87Zm0,.4-.09,0-.18,0s0,.05-.08.05l.05.27.13,0s0,0,.08,0,.08-.06.12-.07Zm1.28-9.39-.1-.11c0,.09,0,.13.12.2S57.34,21.88,57.29,21.88ZM57.52,6c.17,0,.26,0,.31,0s.05,0,.05,0,0,.08.06.08a.22.22,0,0,0,.13,0A.31.31,0,0,0,58.23,6s0,0,0,0a.11.11,0,0,0,0-.08Zm.56,17.4s-.06.15,0,.13ZM59,6l.22,0,.19-.21L59,5.77Zm.36,5.75-.3.05.12.21a.67.67,0,0,0,.25-.13A.46.46,0,0,0,59.34,11.7ZM59.61,6l-.26,0v0h0v0a.33.33,0,0,0,.34.17.2.2,0,0,0,.16-.11C59.69,6.19,59.64,6.11,59.61,6Zm1.1,23.67c0-.18-.31-.26-.35-.26s0-.13,0-.31l-.22,0c-.45.25-.9.5-.78.93a.5.5,0,0,1,.37.12c.05,0,.1,0,.15.06a.42.42,0,0,0,.28.09A.66.66,0,0,0,60.71,29.65Zm4.7-9.86s.13,0,.12-.06a.52.52,0,0,1,.06-.19.64.64,0,0,0-.27,0,52.19,52.19,0,0,0-.72-5.75,16.29,16.29,0,0,0-.74-2.6h0l.05,0,.27,0a.32.32,0,0,0-.13-.2.39.39,0,0,0-.23.22,4.26,4.26,0,0,0-.52-1,1.41,1.41,0,0,0-1.86-.73c-1.33.62-1.74,3.06-1.85,4.29a36.65,36.65,0,0,0,.48,9.81c.2,1.17.7,3.42,2,3.93a1.15,1.15,0,0,0,.63.07c1.57,0,2.11-1.33,2.34-2.7a22.46,22.46,0,0,0,.25-5s0,0,.09,0A0,0,0,0,0,65.41,19.79ZM61.88,31.6s-.05,0-.05-.08l-.16.12a.25.25,0,0,0,.23.05Zm0-26.13.31,0,0-.09-.3,0Zm.58,0c.13,0,.23,0,.25.18s.16.16.42.11c.09,0,.12-.06.07-.1s-.06-.12.05-.23a1.73,1.73,0,0,0,.43-.12c.09,0,.13-.06.12-.11a.16.16,0,0,0,0-.13.55.55,0,0,1,.25-.13.31.31,0,0,0,.23-.22s-.09,0-.18,0a.34.34,0,0,1-.28,0s0,.09,0,.18a.18.18,0,0,1,0,.14s-.08.06-.16.16a.35.35,0,0,1-.24.17l-.13,0c0,.06,0,.06-.08.06-.21.08-.32,0-.29-.13l0-.13A.83.83,0,0,0,62.48,5.42Zm.17-.57a.33.33,0,0,0,.29.14c.09,0,.26-.09.39-.11l.29-.14-.1-.07v0c-.09,0-.13,0-.18,0l-.18,0a1.08,1.08,0,0,1-.4,0C62.67,4.72,62.64,4.77,62.65,4.85Zm3.07,25.32-.1-.07-.31,0a1.49,1.49,0,0,0-.72.48l.8-.05a.29.29,0,0,1,.16-.11.29.29,0,0,0,.2-.12Zm-.92-25,.22,0L65,5l-.21,0Zm.78,8.33.16-.12L65.68,13a.8.8,0,0,0-.46-.06s0,0,0,.09,0,.09,0,.14l-.15.16c-.08.06-.16.12-.16.16a.37.37,0,0,0,.21.15l.34-.06A.4.4,0,0,1,65.58,13.46Zm0,18.35-.14-.07-.13,0A.36.36,0,0,0,65,32a.76.76,0,0,0,.42.11s.08-.06.16-.12Zm-.1-.92s-.09,0-.1,0l-.13,0c-.17.07-.2.17-.19.21s0,.13.07.12,0,.05,0,0a.4.4,0,0,0,.17-.08l.17,0Zm-.3-14.67v.08a2.43,2.43,0,0,0,.27,0,.5.5,0,0,0,.27,0,.11.11,0,0,0,.08-.05l0-.09a.47.47,0,0,0-.37-.07C65.25,16.11,65.13,16.17,65.14,16.22Zm.13.78,0,.13s0,0,.09,0,0,0,.1.07.08-.1.2-.16l.2-.17-.13-.25A5.49,5.49,0,0,0,65.27,17Zm.1.61c-.06.19-.05.28,0,.3a.1.1,0,0,1,.08-.05.19.19,0,0,0,.08-.06C65.56,17.71,65.41,17.6,65.37,17.61Zm.52,1.57s.1,0,.18,0a5.29,5.29,0,0,0,.83-.4l-.56-.18a.6.6,0,0,1-.24-.09l-.24-.09a.56.56,0,0,1-.16.11.72.72,0,0,1,0,.28l.06.34A.47.47,0,0,1,65.89,19.18Zm.06,2a1.2,1.2,0,0,0,.22.24.52.52,0,0,0,.37.07.43.43,0,0,0,.32-.19l0-.17a1.86,1.86,0,0,1-.58,0,1.13,1.13,0,0,1-.5,0l0,.22A.54.54,0,0,0,66,21.18Zm0,.64h0s0,.05,0,.1.05,0,.05.08.08-.1.16-.16A.24.24,0,0,1,65.92,21.82Zm.12,1a1.62,1.62,0,0,1,.76-.3c.08,0,.13,0,.18,0l.17,0a1.8,1.8,0,0,0,.58-.28l0-.13,0,0-.48.08a2.66,2.66,0,0,1-.35,0l-.19,0a.34.34,0,0,0-.24.13,1.2,1.2,0,0,0-.24.22.24.24,0,0,0-.18-.06l0-.17A.64.64,0,0,0,66,22.82Zm0-2.51-.11.15a2.34,2.34,0,0,0,.62-.28l-.08,0c0-.05-.1,0-.19,0A.94.94,0,0,0,66.08,20.31Zm.82-1c0-.09,0-.13-.06-.13a.19.19,0,0,0-.1,0c-.22,0-.49,0-.62.32a.35.35,0,0,0,.38.12C66.59,19.6,66.92,19.46,66.9,19.33Zm-.69-5.57.09,0a.17.17,0,0,1,.12-.06s0,0-.1-.07l-.14-.07ZM66.41,24a.13.13,0,0,0-.09,0,.11.11,0,0,1-.1-.08c0,.1,0,.1,0,.14S66.33,24.07,66.41,24Zm0-8a.33.33,0,0,0-.16.07.26.26,0,0,0,.14.07l.13,0v-.05l0-.05S66.45,16.05,66.36,16.06Zm.5,1.93a.35.35,0,0,1-.27-.31c0-.09,0-.18-.19-.28,0,0,0,0-.08.05a.22.22,0,0,1-.12.07.08.08,0,0,1,0,.13.29.29,0,0,0,0,.18.54.54,0,0,0,.16.15.68.68,0,0,0,.39.21C66.83,18.09,66.87,18,66.86,18ZM67,16.58l.13,0,0-.21-.13,0Zm.28,6.63,0-.09-.26,0v.09Zm-.18-2.44.13.25a.23.23,0,0,0,.1-.2A.39.39,0,0,0,67.09,20.77Zm1.77,7.5a2.13,2.13,0,0,0-.63-.26,2.35,2.35,0,0,1-.46-.06c-.09,0-.1-.07-.11-.16l-.1-.07-.1,0-.08,0c-.18,0-.26.08-.24.21a.65.65,0,0,1,0,.32s.1.08.14.07.1.07.15.06.1.08.11.17l0,.08a3,3,0,0,0,.69.16A2.44,2.44,0,0,0,68.86,28.27Zm-1.63-8.59,0,.22.3-.1A.74.74,0,0,0,67.23,19.68Zm0-2.83.3-.05a.68.68,0,0,0-.14-.33c0,.09,0,.13-.06.19S67.25,16.81,67.26,16.85Zm.06,6.7a.32.32,0,0,0,.39-.06l-.11-.16a.71.71,0,0,1-.15.16A.2.2,0,0,0,67.32,23.55Zm.08-5.82c.1.07.14,0,.08-.06s-.06-.08-.07-.13a.41.41,0,0,0,0,.14ZM67.54,26a.13.13,0,0,1-.09,0l0,.22a.2.2,0,0,0,.15-.2Zm.53,4.88-.17,0a.16.16,0,0,0-.15.2.09.09,0,0,0,.1.07l.1.08s.13-.07.26-.09S68.21,30.88,68.07,30.86Zm.14-11.43-.26,0c0,.14,0,.22.18.28l.22,0c0-.09,0-.18-.07-.17S68.22,19.47,68.21,19.43Zm.1,10.68.15-.16c0-.05-.12-.21-.13-.25s-.08.06-.2.17-.12.06-.11.1a.09.09,0,0,0,.1.08A.22.22,0,0,1,68.31,30.11Zm1.43-5.43,0-.35a.42.42,0,0,0-.24,0s0,.09-.07.1,0,.05-.07.1a.26.26,0,0,1-.16.12l-.28-.05,0-.13c.17-.07.29-.13.29-.18l0-.17-.26,0a4.49,4.49,0,0,0-.55.22l0,.31a1.37,1.37,0,0,0,.09.25l.26,0a1.73,1.73,0,0,0,.62-.28A.48.48,0,0,0,69.74,24.68Zm0-.8s0-.05,0-.14a.26.26,0,0,0-.16-.15c-.1,0-.15-.07-.16-.11a.52.52,0,0,1,.1-.24A.38.38,0,0,0,69.6,23a1.33,1.33,0,0,0-.28-.4l-.48.08.1.07L69,23a.85.85,0,0,1,0,.31.35.35,0,0,1-.17-.24s-.1-.07-.28-.08a.58.58,0,0,0,0,.54,1.11,1.11,0,0,0,.4,0,1.43,1.43,0,0,1,.41,0,.72.72,0,0,0-.06.46.89.89,0,0,0,.48-.08A0,0,0,0,1,69.7,23.88Zm-.81,1.3a3.49,3.49,0,0,0-.48-.19l0,.17.14.07Zm-.46-3.06c0,.09.06.08.06.08s.05,0,.06.08l.39-.06a.28.28,0,0,0,.18,0c.08-.06.11-.15.08-.33a3.51,3.51,0,0,0-.41,0C68.62,21.91,68.4,21.9,68.43,22.12Zm.2-.39c.17-.07.21-.12.19-.21s-.14-.07-.32,0Zm-.12-1.59c0,.09.06.12.11.11l.13,0c0-.09.06-.19,0-.26s0-.14.22-.27c0,0,0,0,0,0h0a.05.05,0,0,1,0,0A1,1,0,0,0,68.51,20.14Zm.12,10.58-.12.11.16.11A.2.2,0,0,0,68.63,30.72Zm0-9.79a.22.22,0,0,0,0,.09c0,.09.07.13.21.15A.78.78,0,0,1,69,21a.54.54,0,0,0-.34-.12C68.64,20.92,68.64,20.92,68.59,20.93Zm.34-.68,0,.17a.67.67,0,0,1,.23,0l.07-.1v0C69.2,20.25,69.1,20.22,68.93,20.25ZM69,17.6a1.14,1.14,0,0,1,.34-.1.25.25,0,0,1,.29.13l-.22.3a1,1,0,0,0,.63,0c-.2-.1-.26-.18-.13-.24a.69.69,0,0,1,.18-.22c-.45-.06-.73-.1-1-.11l-.08.1C69,17.55,69,17.55,69,17.6Zm.13,1.1.09,0,.07-.1-.09,0ZM69.21,17a.32.32,0,0,1,.33.12c.11-.15.1-.24-.05-.3a.22.22,0,0,1-.16.11A.19.19,0,0,0,69.21,17Zm.42,10.53a.28.28,0,0,0,.17-.07l.13,0-.12-.21a2.29,2.29,0,0,0-.49.26C69.42,27.6,69.5,27.58,69.63,27.56Zm.06-7.88,0-.09-.35.06,0,.08Zm-.27.53c0,.09.06.13.1.12s.12-.11.11-.15Zm.72,7.45h0s-.13,0-.14,0a.24.24,0,0,0-.14,0,1.56,1.56,0,0,0-.21.08s0,.05-.08.06h-.08c0,.05.1.07.15.11l.11.12,0,.13s0,.05,0,.09l.35-.06a.37.37,0,0,0,.11-.37Zm-.45-6.6,0-.13-.13,0,0,.14Zm1.11,0c0-.14.1-.2.1-.24a1.1,1.1,0,0,1-.46.25.67.67,0,0,1-.23-.05.91.91,0,0,1-.24-.1c0,.05,0,.05-.07.1a.19.19,0,0,1-.12.07l0,.22a1.54,1.54,0,0,1,.45,0,.65.65,0,0,0,.31,0A.24.24,0,0,0,70.8,21Zm-.56.94a.29.29,0,0,1,.23.05.63.63,0,0,0,0-.23.35.35,0,0,1-.07-.17.1.1,0,0,1,.07-.1h-.08s0,0,0,0c.07.16,0,.27-.23.26a.66.66,0,0,0-.37.19l.14,0A.83.83,0,0,0,70.24,22Zm.61-3.91-.08,0s-.06,0-.14,0-.09,0-.08.06l-.13,0c-.13,0-.21.12-.19.21s.17,0,.2-.13c.06.08.1.08.06.08v.09l-.64.42a1,1,0,0,0,.1.39c.08.16.19,0,.24,0l.17,0a.38.38,0,0,1,.23.05,1.08,1.08,0,0,1,.34.17l-.11.1s0,0,0,0h-.09a.34.34,0,0,0-.25.13.91.91,0,0,1-.2.13l-.22,0a.41.41,0,0,1,.17.2.47.47,0,0,0,.16.19.19.19,0,0,0,.21.15.78.78,0,0,0,.43-.07.44.44,0,0,1-.18-.28h-.09c-.17,0-.27,0-.27-.05v0l.29-.13c.13,0,.21-.08.26-.09s.16-.07.19-.17a1.26,1.26,0,0,0,.2-.16c-.18,0-.23,0-.28-.09l0-.18-.09,0s0,0-.06-.08a.23.23,0,0,1,0-.14l.12-.11s-.09,0-.19-.1-.15-.07-.16-.11.16-.16.37-.2a.43.43,0,0,1-.19-.1s-.1-.07-.11-.11l.22,0a.93.93,0,0,0,.53,0,.14.14,0,0,1,0-.14.14.14,0,0,0,0-.14c0-.13-.38-.16-.47-.15a.55.55,0,0,1,0,.24A.24.24,0,0,1,70.85,18.05Zm-.69,4.5L70,22.31a.17.17,0,0,0-.11-.16,1.12,1.12,0,0,0,.12.48.19.19,0,0,1,.12-.07Zm.14-3s0-.1,0-.18l-.31.05v.18ZM70,17c0,.09,0,.09.06.12l.1.07a.29.29,0,0,0,0-.23Zm.21,6.23,0-.22L70,23l0,.22Zm-.16.11.13.25c.12-.06.16-.11.15-.2a.18.18,0,0,1-.14,0Zm.08.53a.29.29,0,0,0,.1,0l.14.06c.07-.14.15-.2.24-.17s.24.05.4-.07a.13.13,0,0,1-.06-.08l0,0A3.85,3.85,0,0,1,70.09,23.82Zm.27,2.95-.09,0-.07.14.1,0Zm-.15-4.45.43-.07a.14.14,0,0,0,.08-.06.11.11,0,0,1,.08-.1.66.66,0,0,1-.31,0l-.27,0Zm0-4.43a.21.21,0,0,0,.16.15l.22,0a.31.31,0,0,0,.07-.14c.08,0,.08-.06.06-.15A.69.69,0,0,0,70.24,17.89ZM72,22.79c-.09,0-.19-.06-.29-.13a.41.41,0,0,0-.24-.09c-.09,0-.09,0-.08.05h0a1,1,0,0,1-.55-.09,2,2,0,0,0,.38-.15l.25-.09c0,.09.08.17.08.21l.18,0s.13,0,.12-.07l0-.05,0-.13c-.1,0-.23,0-.29-.09a.24.24,0,0,1-.24-.09c.16-.16.27-.27.36-.29a2.15,2.15,0,0,0-.35-.21,1.12,1.12,0,0,0-.53,0l.44.25s-.07.1-.11.1-.16.12-.2.17,0,.28-.36.55l-.06.15a1.93,1.93,0,0,0,.54,0l.54,0,0,.13a.31.31,0,0,1-.21.08c.09,0,0,0-.16.12a.54.54,0,0,0,.41.06l.07-.14A3,3,0,0,0,72,22.79ZM70.53,24v.09l.22,0V24Zm.23-.75a.37.37,0,0,0,.22-.08s-.06,0-.14,0l-.26,0A.28.28,0,0,1,70.76,23.26ZM71,26.53a.77.77,0,0,0-.36,0,.13.13,0,0,1,.06.08l.11.11a.27.27,0,0,0,.17-.07A.72.72,0,0,0,71,26.53Zm.18-.25s-.14,0-.27,0l-.26,0,.24.1a.51.51,0,0,1,.24.09A.3.3,0,0,1,71.17,26.28Zm0-1.16a.33.33,0,0,0-.29-.13l0,.18Zm-.29-8h.31v0l-.32,0Zm1.18,3.12c-.17,0-.27,0-.32-.08.15-.12.18-.22.08-.29a.34.34,0,0,1-.12-.2c0,.13,0,.23-.23.26l-.26,0c-.13,0-.21,0-.25.09a1.09,1.09,0,0,1,.35,0,.75.75,0,0,0,.2.11A.46.46,0,0,0,72.05,20.19Zm.07,4.23a1.74,1.74,0,0,1-.23,0c-.08,0-.17,0-.22,0a.48.48,0,0,1,.08-.33.84.84,0,0,1-.29.14,1.12,1.12,0,0,0-.38.15l0,.26.53-.08C71.86,24.51,72,24.44,72.12,24.42Zm-.51.45a.68.68,0,0,0-.23,0s-.13,0-.22,0l.25.18c.08-.1.08-.1.12-.11S71.57,24.87,71.61,24.87Zm0,1c-.14-.07-.2-.15-.21-.23s-.08.06-.07.14,0,.1,0,.14Zm0,.9-.22,0,0,.13.22,0Zm.16-8.3-.37-.08a.36.36,0,0,0,.45.24c.08,0,.13,0,.12-.06l.09,0A.87.87,0,0,0,71.77,18.49Zm-.36-1.15c0,.09.07.17.11.16l.26-.09s0,0-.06-.08l0-.09a.38.38,0,0,0-.16.08Zm.25,4s0,0,0,0l-.06,0-.11.11ZM72,19.21A1.2,1.2,0,0,1,71.9,19s-.06-.08-.19-.1-.16.16-.2.17a.26.26,0,0,0-.07.14l.1,0v0l.21,0C71.9,19.27,72,19.26,72,19.21Zm-.17,1.72-.3.05v.09l.3-.05ZM71.63,17l.61-.1,0-.08-.61.1Zm.43,1.27a.22.22,0,0,0,0-.09l0-.05h-.31C71.82,18.25,71.88,18.29,72.06,18.3Zm.32-3h-.45l-.07.1s0,.05,0,.09a1,1,0,0,1,.34-.1A.46.46,0,0,1,72.38,15.34Zm-.13,5.48-.27.05A.09.09,0,0,0,72,21a.11.11,0,0,1,0,.08s0,0,0,0,0-.05,0-.1ZM72,17.46l.26,0C72.12,17.31,72,17.33,72,17.46Zm.72,2.21c-.31,0-.41,0-.32,0-.18,0-.49,0-.11.16a.42.42,0,0,0,.28,0S72.66,19.77,72.73,19.67Zm-.58,3,0,.13h.09l0-.14Zm.36-4.4-.22,0v.08l.22,0Zm0,1.61a.23.23,0,0,0,0,.1s0,0,0,.09h.09l0-.05C72.7,20,72.55,19.93,72.5,19.93Z"/><path class="cls-1" d="M76.63,31.47,73.7,4.26a.86.86,0,0,1,.56-.95l4.18-1.76A21.65,21.65,0,0,1,84.86,0a8.76,8.76,0,0,1,8.43,5,22.26,22.26,0,0,1,1.89,11.55A19.23,19.23,0,0,1,91.1,26.91a11.86,11.86,0,0,1-6,3.94c-1,.25-1.93.5-2.89.65l-4.53.75A.87.87,0,0,1,76.63,31.47Zm-.71-18.54,0-.31c0-.21-.07-.7-.1-1.19a3.28,3.28,0,0,0,0-.44,7,7,0,0,0,.07-1c0-.14-.2-.37-.31-.53l.14,3.91c0-.05,0-.09.08-.06s.09,0,.08,0A2.6,2.6,0,0,0,75.92,12.93ZM76,3.56l.1.08,0-.05L76,3.52Zm1.07,13.66a1.77,1.77,0,0,0-.58-.27l.06.35.26,0A.3.3,0,0,0,77.07,17.22Zm-.39,6.37v0s0,0,0,0v-.05C76.44,23.49,76.59,23.6,76.68,23.59Zm1-19.72a.75.75,0,0,0-.47-.14.11.11,0,0,1-.08,0L77,3.8v0c0,.05,0,.09.06.08V4A3.48,3.48,0,0,0,77.66,3.87Zm.16,23.42h.23l0-.05-.28,0Zm1.1,1.21s-.07-.12-.13-.24-.12-.16-.09-.26l-.39.07a1.37,1.37,0,0,1-.36,0,.19.19,0,0,1,.07.12.2.2,0,0,0,.06.13,2.09,2.09,0,0,1,.22.5.65.65,0,0,0,.27.31.72.72,0,0,1,.21-.39A.72.72,0,0,0,78.92,28.5ZM79,30a1.48,1.48,0,0,1-.28,0,.4.4,0,0,0-.21.08s-.12.06-.21.07.24.1.37.08.17,0,.21-.08S78.93,30,79,30Zm.54-2.69c0-.21-.36-.29-.45-.28s-.33.15-.3.32v.09s0,0,.06.08c.17,0,.34-.1.47-.13A1.33,1.33,0,0,1,79.52,27.28Zm.57-24.43-.26,0c-.06.19-.1.24-.08.37s.24.1.37.08l0-.13C80.15,3.2,80.12,3.07,80.09,2.85Zm.85,17.76a.31.31,0,0,0-.21-.19l-.26,0c-.08.11-.07.15,0,.14s.07.13.08.17.08-.06.16-.07A.78.78,0,0,1,80.94,20.61Zm.28-12.22.08.8h0a1.12,1.12,0,0,1-.47.44,2.28,2.28,0,0,1,.42.64c0,.09.11.12.21.15l1,10.35-.35.05c-.15.16-.27.27-.26.32l0,.21a.7.7,0,0,0,.14.3.45.45,0,0,0,.48.18h0l.21,1.8c2.53-.91,3.83-2.28,4.42-4.44a19.57,19.57,0,0,0,.67-3,19.5,19.5,0,0,0,.09-3.28c.06.08.11.11.16.1a.23.23,0,0,0,.24.1c.13,0,.42-.11.38-.38,0-.08-.21-.19-.62-.21a1.05,1.05,0,0,0-.13.25,10,10,0,0,0-1.39-4.38c-.75-1.31-1.82-1.27-3.3-.76C82.48,7.92,81.81,8.16,81.22,8.39Zm.55,17.86c.07-.15,0-.23-.21-.19l0,.17A.43.43,0,0,0,81.77,26.25Zm.84-21.93.49,0,0-.36L82.65,4Zm2.77-2c0-.08,0-.13-.08-.16s0-.08-.07-.17l-.3.05c-.09,0-.12.11-.1.24a.39.39,0,0,0,.18.28C85.22,2.46,85.38,2.39,85.38,2.34Zm.1-.73V1.52s-.06,0-.06-.08l0-.08c-.08,0-.14,0-.18,0a.19.19,0,0,0-.09,0,1,1,0,0,0-.26.36,1,1,0,0,0,.31,0Zm.68,26.87c0-.09-.06-.12-.11-.12a.17.17,0,0,0-.08.06s-.08.06-.12.07l.13,0A.39.39,0,0,0,86.16,28.48ZM87.57,8.11a.28.28,0,0,0-.3.1.56.56,0,0,0,.28,0s.09,0,.07-.1S87.62,8.11,87.57,8.11Zm.91,3.08-.06-.35a.19.19,0,0,0-.06-.08.13.13,0,0,1-.09,0,.39.39,0,0,1-.28.18.29.29,0,0,1-.19-.06c.11.12.16.2.13.29s.16.11.43.16Zm.26-2.51-.1-.07-.26,0c-.13,0-.21.08-.19.21a.05.05,0,0,1,0,0l.05,0,.26,0S88.62,8.79,88.74,8.68Zm-.38-2.31,0-.17h-.08l0,.18Zm1.26,6.06-.38-.11a.25.25,0,0,0-.06-.13c-.05,0-.07-.12-.12-.2a.49.49,0,0,0-.48-.19h-.09a0,0,0,0,1,0,0c.06.08.11.08.2.11s0,0,.06.08a.16.16,0,0,1,0,.13s0,.05,0,.1.3.49.56.44c.09,0,.13,0,.17-.07l.13,0C89.6,12.57,89.64,12.52,89.62,12.43Zm.11-3.73s0-.09-.1-.07-.19,0-.19-.06l-.1-.07c0-.05,0-.09-.11-.12l-.18,0a.22.22,0,0,0-.16.12s0,.09-.11.15c.32,0,.51.09.55.35C89.43,9.06,89.76,8.92,89.73,8.7Zm-.36,10.66a.58.58,0,0,0-.23,0l0,.17c.09,0,.09,0,.16-.11A0,0,0,0,0,89.37,19.36Zm.36-4.89s0,0,0,0l-.22,0-.07.1s0,0,.09,0,.06,0,.14,0S89.75,14.56,89.73,14.47Zm.19-3.74a.18.18,0,0,0-.13,0,.38.38,0,0,0-.18,0c-.12.11-.15.2-.14.25s.12.2.28.09l.14-.21S89.93,10.77,89.92,10.73ZM90.49,6s-.06-.08-.07-.17l0-.21a1.66,1.66,0,0,1-.63.23c-.08.06-.11.16-.19.21l-.06.19c0,.26.31.22.44.2C90.24,6.38,90.53,6.24,90.49,6Zm-.75,13.19-.07.1s0,0,.1.08S89.8,19.25,89.74,19.17Zm.48-5.27,0-.17s-.1-.08-.11-.12a.23.23,0,0,0-.18,0l-.17.07c0,.13,0,.22.09.25a.19.19,0,0,0,.06.08l.22,0S90.18,13.91,90.22,13.9Zm0,3.62-.19-.11s-.08.06-.13.07a.14.14,0,0,1-.08.06l0,.08.11.12A.66.66,0,0,0,90.27,17.52Zm.39-10.23a.36.36,0,0,0-.28,0l-.16.12a.1.1,0,0,1,.11.07l.1.12Zm-.28,6-.14,0v0l.09,0Zm.31,1.87s0-.09-.06-.08,0,0-.09,0l-.27.05a.47.47,0,0,0,.18.24l.09,0,0,0h0l0-.05h0Zm-.13-1s-.08.06-.12.06a.14.14,0,0,0-.08.06,2.31,2.31,0,0,1,.21.19A.27.27,0,0,0,90.56,14.07Zm.53,4.07S91,18.08,90.8,18s-.3-.22-.24-.14a.53.53,0,0,0-.12.38c0,.09.22.23.33.12A.41.41,0,0,1,91.09,18.14Zm-.45-5.25.25-.08,0-.13s0-.09,0-.14a1,1,0,0,0-.34.15c.06.08.06.08.07.12A.13.13,0,0,0,90.64,12.89Zm.11,4.24.43-.07s0-.09-.05-.09a.19.19,0,0,0-.06-.08c-.09,0-.13,0-.18,0v0s0,0,0-.06a.33.33,0,0,0-.25-.13c0,.05,0,.05-.08.05s0,.09,0,.1a.14.14,0,0,0,0,.14s0,.08.11.11ZM91.3,15l0-.13a.15.15,0,0,1-.16-.11l-.1-.11-.18,0a.24.24,0,0,0-.1.2c0,.09,0,.17,0,.22s.35,0,.48-.07Zm0-6.93c-.1-.07-.14-.07-.16-.15a.37.37,0,0,0-.23.21.16.16,0,0,0,.2.15A.78.78,0,0,0,91.28,8.09Zm0,.72,0-.18c-.06-.08-.11-.11-.12-.16a.23.23,0,0,0-.09.24C91,8.8,91.09,8.84,91.27,8.81ZM92,19.52l0-.13-.1-.11c0-.05-.11-.08-.15-.07l-.35.06a.19.19,0,0,0-.1.19c0,.18.13.25.39.21A2,2,0,0,0,92,19.52Zm-.18-9.27,0-.22s-.13,0-.26,0-.17.07-.16.16,0,0,.11.11a.55.55,0,0,0,.23,0S91.73,10.25,91.77,10.25Zm.37,6.07c0-.05,0,0-.1,0s-.09,0-.09,0a5.84,5.84,0,0,1-.28-.9h0s-.08,0-.09,0h0a.28.28,0,0,0-.17.07c.06.12.07.17.12.2a.19.19,0,0,1,.07.13c0,.09,0,.09-.06.19s0,.05,0,.09l.09.57c0,.13.12.16.36.25l.13,0a.4.4,0,0,1,0-.27A.56.56,0,0,0,92.14,16.32Zm0,.9,0-.26H92l0,.26Zm.17-1.15c-.09,0-.13.07-.17.07l.1.08v0l0-.05S92.23,16.08,92.28,16.07Zm.52-.62c0-.09-.17-.24-.48-.19h-.09s0,.05,0,.05l0,.31a.48.48,0,0,0,.23,0,.27.27,0,0,1,.17-.07C92.73,15.55,92.81,15.49,92.8,15.45Zm-.16,5.3,0-.17-.26,0v.09c0,.05,0,.05,0,.09Zm0-9.93,0-.13a.18.18,0,0,0-.18,0h0l0,.05C92.49,10.8,92.59,10.87,92.67,10.82Zm.66,3.47c0-.09-.07-.13-.16-.11l-.07.1S93.2,14.31,93.33,14.29Z"/><path class="cls-1" d="M45.84,72.37l-6.63.77a.79.79,0,0,1-1-.68l-1.06-5.3-6.47,2.09-.49,4.14a.85.85,0,0,1-.8.76l-6.51.63a.92.92,0,0,1-1-1c.52-3.53,1.17-7.16,1.82-10.71.49-2.63,1.12-5.24,1.8-7.81.93-3.49,1.94-7,3-10.44a1,1,0,0,1,.6-.6c.94-.29,1.88-.62,2.88-.87A9.7,9.7,0,0,1,34.54,43c1.72-.07,2.89,1.22,3.73,2.63.46.93.89,2,1.27,2.92.13.34,1,2.64,1.62,4.7l5.43,18A.88.88,0,0,1,45.84,72.37Zm-19.6-4.83v.09l.15.07C26.47,67.61,26.42,67.57,26.24,67.54Zm1.23,2.08.29-.12,0-.17a.29.29,0,0,0-.14-.08.56.56,0,0,1-.19-.11.71.71,0,0,1-.66.48s.22.33.44.3c0,0,.08,0,.12-.1S27.39,69.72,27.47,69.62ZM27.36,71c-.05,0-.24-.15-.33-.14s-.21.11-.2.2.14,0,.26,0Zm-.28-2,.32.1.09-.06,0-.22c0-.08-.1-.12-.28-.1s0,0-.08.06,0,0,0,0Zm.22-16.43c0,.09.23.46.32.45a1.87,1.87,0,0,0-.08-.7C27.57,52.23,27.29,52.48,27.3,52.57Zm.76,18.36a.23.23,0,0,0-.2-.2c-.16.11-.25.17-.24.21l.28.14C28,71,28,70.94,28.06,70.93Zm-.41-17.29.05.49.18,0-.06-.53ZM28.29,68a.39.39,0,0,0-.06.23s.05,0,.1,0,0,0,0,0S28.39,68.05,28.29,68Zm1.63-.9a1.11,1.11,0,0,1-.12-.25.73.73,0,0,1-.11-.26,3.11,3.11,0,0,0-.56-.15.39.39,0,0,0-.39.4.58.58,0,0,0,.62.37.13.13,0,0,0,.12-.06Zm-.69,3.24-.09-.08c-.05,0-.09,0-.09,0H29a.39.39,0,0,1-.17.07c.09.08.14.07.19.11a.48.48,0,0,1,.18,0C29.25,70.44,29.24,70.4,29.23,70.31Zm0-10.19-.18,0a1.5,1.5,0,0,0,0,.4.27.27,0,0,0,.16.25.73.73,0,0,0,.09-.37Zm.24-14.65.18,0,0-.26-.18,0Zm.34,1.74a.17.17,0,0,1-.09,0l.06.57a1.27,1.27,0,0,1,.16-.56Zm1.72,10.16A1.6,1.6,0,0,0,32,56.7a1.4,1.4,0,0,0,0-.37,7.47,7.47,0,0,1,.33-1l-.23-.06a.76.76,0,0,0-.2.2c-.08.1-.16.2-.2.2-.05.32-.07.59-.13.82s-.09.32-.14.33a.24.24,0,0,1-.11.19.6.6,0,0,0-.09.32c0-.09-.09.41-.2,1-.08.41-.1.63-.1.63a1.67,1.67,0,0,1-.32.75,1.54,1.54,0,0,0-.3.84.93.93,0,0,0,0,.4,2.08,2.08,0,0,1-.19.65,2.29,2.29,0,0,0-.16.55c0,.17.08.3.12.3a.22.22,0,0,0,.22,0s.08-.1.12-.15a3.24,3.24,0,0,0,.18-.77,1.69,1.69,0,0,1,.22-.74c0-.09.06-.23.22-.43l.12-.5c0,.09.29-1.32.48-2Zm-.79,8.49-.48.06,0,.22.49-.06Zm-.12-13.23s0-.05.08-.06.14,0,.17-.06l-.23-.06s0,0,0,.09Zm4.73,8.16-.51-2.08c-.17-.69-.34-1.38-.55-2.07-.28-.9-.57-1.8-.89-2.69l-1.33,7.31Zm-3.06-7.2c.17.38.31.41.64.19l.09-.37s0-.08,0-.08-.06-.08-.11-.12A.57.57,0,0,0,32.31,53.59Zm.17-4.65.09,0,0-.14h-.05Zm.09,5.37-.09.37.09,0,.09-.36ZM33,49.15l.07.21.22,0s.09,0,.18,0a.39.39,0,0,0-.12-.25.27.27,0,0,0-.17.07Zm1.67-2.51.14.12a.64.64,0,0,0,0-.36c-.13,0-.22,0-.22,0ZM35,46l.13,0,0-.35h-.13Zm.13.74.1.12v-.09l-.11-.17Zm.55-.2h-.49l0,.18s0,0,0,.12l.18,0s0-.09.11-.19S35.62,46.53,35.66,46.53ZM35.4,62.92l-.22,0V63l.22,0Zm.17,3,0-.09-.13.06.06.09Zm.16-7.8.26,0s-.05-.09-.1-.12a.4.4,0,0,1-.18,0Zm.07-10.86.1.08.57-.07s.08,0,.16-.11c-.14-.07-.23-.1-.25-.23l.07-.14a1.71,1.71,0,0,1-.38.13C35.94,47,35.86,47.08,35.8,47.31Zm.45,11.86-.35,0v.08l.35,0Zm-.33-10.81a.33.33,0,0,0,.23.07.49.49,0,0,1,.23.06c0-.05.08-.1.07-.14s0-.05,0-.1a.7.7,0,0,0-.41-.08A.16.16,0,0,0,35.92,48.36Zm.5,14.93a.53.53,0,0,0-.29.17l.17,0,.1.07S36.43,63.38,36.42,63.29Zm.13-6.91-.22,0A.11.11,0,0,0,36.55,56.38Zm0-2.27.14.07.09,0-.1-.08Zm.11,8.52h.13v-.09l-.13,0Zm.08-13a.12.12,0,0,0-.07.14s0,.09.1.12l.27,0c.08,0,.16-.15.15-.19a.21.21,0,0,0-.24-.2C37,49.58,36.86,49.59,36.78,49.64Zm.07,12-.13,0,0,.17h.13ZM37,60.37h-.09l0,.14.09,0Zm0,.54-.08.1C37,61,37,61,37,60.91Zm.06-2.9a.25.25,0,0,0-.1.28l.26,0c-.12.1-.16.2,0,.31l.4,0,0-.13h0C37.55,58.13,37.36,58,37.05,58ZM37,59.89l.16.21a.5.5,0,0,1,.26-.08,1.34,1.34,0,0,0,.31,0c.13,0,.29-.17.28-.26l-.65.08A1,1,0,0,0,37,59.89Zm.34,5.56-.13,0,0,.18.13,0Zm.2-9.71v-.09a.05.05,0,0,1,0,0h-.31l0,.17Zm.15,5a1.79,1.79,0,0,0-.27,0l-.08.1s0,0,0,.09l.32.05s0-.09,0-.09S37.65,60.88,37.64,60.79Zm.14-1.44-.05-.08-.31,0,0,.18.24.15v0s0,0,.08-.06h.08C37.83,59.43,37.79,59.4,37.78,59.35Zm-.24-6.64v.09l.31,0v-.09Zm.12,11a1.64,1.64,0,0,0,.46.08c.16-.15.27-.3.26-.39s-.05-.08-.15-.16-.14,0-.14-.07l-.23.29A1.3,1.3,0,0,1,37.66,63.68Zm.19,2,.44,0v-.13l-.62.07C37.8,65.62,37.85,65.66,37.85,65.7Zm0-6.54.27,0,0-.22s-.09,0-.14,0a.17.17,0,0,0-.13,0,.27.27,0,0,0-.19.29A.31.31,0,0,1,37.89,59.16Zm-.14,3,0,.22.18,0,0-.22Zm.08-8.85a.23.23,0,0,0,0,.13l.05.08.26,0C38.1,53.31,38,53.23,37.83,53.26Zm.5,14.21-.31,0,0,.18.31,0Zm-.17-9.41c.05,0,.06.09.15.07l.07-.14s-.09,0-.27,0C38.11,58,38.11,58,38.16,58.06Zm.26-2v-.09l-.28,0V56Zm.68,5.83a.33.33,0,0,1-.12-.25.53.53,0,0,1-.12-.25.93.93,0,0,0-.73-.14c0,.05.1.08.14.07s.24.15.36.36l0,.27Zm-.82-2.39H38.2l.15.52a1.16,1.16,0,0,0,.12-.46s-.09,0-.14,0A.05.05,0,0,1,38.28,59.47Zm.07,5.15c0,.17.12.25.31.32l0-.35ZM39,68.37l-.28-.1c-.14,0-.18,0-.23-.06l.08.3ZM38.73,58c.14,0,.27,0,.26-.11s-.1-.08-.1-.08H38.8a.11.11,0,0,0-.08.1Zm.9.79-.44,0c-.49.41-.45.32-.44.45s.17.29.48.7l.62-.07a.63.63,0,0,1,.17-.06c-.11-.13-.2-.2-.34-.19s-.27,0-.46-.21c.17-.06.29-.12.33-.22a.71.71,0,0,1,.23-.29C39.72,58.81,39.67,58.78,39.63,58.78Zm-.84-.3a.71.71,0,0,0,.7-.13.56.56,0,0,0-.37-.13l-.35,0Zm0-.8c.17,0,.21-.07.2-.2Zm.13,10.25.26,0c0-.13-.1-.12-.28-.14Zm0-3.46v.08l.22,0v-.09Zm.51-3.27s-.05-.08-.15-.15a.28.28,0,0,1-.13.06s0,0,0,0a2.8,2.8,0,0,0,.28.06Zm-.25,8.57.49-.06c0-.08-.11-.16-.21-.24a1.26,1.26,0,0,1-.2.16Zm1.2,1.9a1.13,1.13,0,0,1-.18-.42l-.44,0a2.23,2.23,0,0,0,.55.52s0,0,0-.1A0,0,0,0,1,40.37,71.67Zm-.26-4.54-.31,0s0,.13.06.13a.33.33,0,0,0,.15.11s0,0,.07-.14S40.12,67.17,40.11,67.13Zm0-2.4c0,.09.18.38.44.35s.22,0,.26-.08.08,0,.25-.07c0-.09-.09-.08-.14-.08l-.19-.11s-.06-.17-.09-.39c0,.14-.07.19-.2.2Zm3.66,6.2c-.14-.43-.23-.78-.3-1s-.16-.6-.3-1a1.19,1.19,0,0,1-.2-.2c-.06-.13-.11-.16-.12-.21s0-.18.19-.33c-.28-.1-.43-.22-.4-.35a.9.9,0,0,0-.19-.91.58.58,0,0,1-.17-.3c0-.08,0-.18.11-.19s.06-.27-.15-.56l-.28.3c-.12.1-.2.2-.28.26l-.14-.08-.06-.43c0-.18.11-.24.37-.27l.19.11,0-.35a2.73,2.73,0,0,0-.68-.14c-.26,0-.81.31-.78.58,0,0,.06.08.11.12s0,0,.19.11c-.08.1-.07.19,0,.31a.48.48,0,0,1,.19.11c.1,0,.1.08.1.08a.48.48,0,0,1-.3.12c-.26,0-.38.13-.36.26s0,.27-.06.32c.13-.06.32,0,.28.1a.08.08,0,0,1-.08.1s0,0,0,0a.19.19,0,0,1,0,.14.29.29,0,0,0-.07.18l0,.4c.18.06,1,.24.55.51a1.64,1.64,0,0,0,.53,0,.35.35,0,0,0,.21-.07l.26,0,.08.62h0v0h0l.15.12s0,.08.15.11a.08.08,0,0,0,.09.08c.06.08.1.08.15.12s.07.21.09.39a.58.58,0,0,0,.35.31.18.18,0,0,1,0,.14v.09c0,.13.36.44.5.43A.27.27,0,0,0,43.76,70.93Zm-3.12-9.16.27,0v0h-.27ZM42,65l.17,0v-.08L42,65Z"/><path class="cls-1" d="M67,54a12.2,12.2,0,0,1-1,2.06,1,1,0,0,0,.07-.54A1.93,1.93,0,0,0,66,55,1.58,1.58,0,0,1,66,54.6c0-.13,0-.23.06-.23h0a1.36,1.36,0,0,0-.1-.43.73.73,0,0,1,.12-.5c-.18,0-.24-.11-.2-.2s0-.18-.07-.22l.36,3.07a8.38,8.38,0,0,1-2.36,2.64h0a21.59,21.59,0,0,1-4.48,2.39,13.81,13.81,0,0,1-2,.72c-.13.06-.26.08-.39.14s-.21.07-.34.08h0c0-.09-.06-.09-.1-.08s-.22.07-.21.16,0,0,0,0l-1.34.33.65,7.84a.78.78,0,0,1-.77,1L49.3,72a.87.87,0,0,1-1-.82l-.21-3.31.1.08a1.28,1.28,0,0,0,.4-.32l-.14-.07-.22,0-.16.16-.18-2.34H48a.08.08,0,0,0-.1-.08l0,0L46.44,44.38a.81.81,0,0,1,.61-.87c6.85-2.27,7.87-2.61,8.91-2.86a11.67,11.67,0,0,0,1.17-.27l1.18-.19h0c4.77-.33,7.75,2.74,8.8,7.2A12,12,0,0,1,67,54ZM48,49.4h.09l0-.22h-.09Zm0,15.29.14.12a.41.41,0,0,0,.25-.16C48.26,64.53,48,64.56,48,64.69Zm0-.76.27,0,0-.13-.26,0Zm.45,1.15a.77.77,0,0,0-.44,0l.23.11a.22.22,0,0,1,.13-.06A.12.12,0,0,0,48.5,65.08Zm-.39-18.94h.09l0-.13h-.09Zm.23,20.29-.22,0,0,.13.22,0Zm.12-.9c-.14-.07-.24-.15-.25-.24a.2.2,0,0,0,0,.14.15.15,0,0,1,0,.14Zm-.12,2.81,0,0-.13.06v0Zm.79-7.78.22,0a.17.17,0,0,0-.06-.09c-.09,0-.1-.07-.15-.11l0,.13C49.12,60.52,49.12,60.52,49.13,60.56Zm.59,1.62c0,.23-.09.41-.11.59a3.57,3.57,0,0,0-.07.55.14.14,0,0,0,.06.12s.09.08,0,.13a.18.18,0,0,0-.1.28c.07.17.08.3,0,.35s0,0-.07.09-.05,0,0,0-.08.1-.07.14a.15.15,0,0,0,.06.13s.09.08,0,.18,0,0-.08.06h0a.37.37,0,0,1,.12.34c-.06.23-.11.55,0,.67s0,.22,0,.22a1.59,1.59,0,0,0,.07,1,.32.32,0,0,0-.15.19.9.9,0,0,0-.15.24v.13a3.86,3.86,0,0,1,.06.84c0,.32,0,.58,0,.85a.41.41,0,0,1,0,.22.32.32,0,0,0-.07.19,2.74,2.74,0,0,0,.4,1.2,2.11,2.11,0,0,0,.63,0c.13,0,.35,0,.58,0Zm-.34-4.36s.06.08.11.16l.07-.14a.13.13,0,0,0,0-.13l-.22,0Zm.39.66a.76.76,0,0,0,.3-.07,1.17,1.17,0,0,1,.3-.13s-.14-.07-.24-.15a.49.49,0,0,0-.23-.06.53.53,0,0,0-.25.12c-.08.1-.16.15-.2.2.14,0,.19.07.14.07A.24.24,0,0,0,49.77,58.48Zm0,.81L49.56,59h-.09l.18.34Zm0,.09h-.08l-.12.14.09,0Zm0,2.27h-.09l0,.26h.09Zm.71-3.77a.52.52,0,0,0-.24-.2.21.21,0,0,1-.15-.16.51.51,0,0,1-.25.17s0,0-.08.05a1,1,0,0,1,.5.16Zm.18,3-.06-.08-.25.12V61ZM51,59.27l-.26,0,0,.22.27,0Zm1.46,6.06-.07.14a1,1,0,0,0,.13.34Zm.07.61,0,.45a.22.22,0,0,0,0,.14s0,.08,0,.09.11.21.07.21-.09,0-.09.06c0,.26,0,.26.25.55Zm3.87-11.08a9.36,9.36,0,0,0,3.06-2,3.37,3.37,0,0,0,.88-2c.06-1.74-1-4.23-3-3.6L54,48.39l.39,7.07C54.74,55.37,56,55.05,56.42,54.86ZM54.77,71.24l-.06-.13h-.08l.06.13Zm1.18-14,0-.22h-.13l0,.22Zm.21,4.11-.27,0,0,.17.27,0Zm.23-1.1-.29-.19s-.2.25-.19.34l.24.1Zm.49-1.48-.38-.22,0,.31ZM58.17,58c.09,0,.18,0,.31,0l0,.22.26,0,.13-.06a.79.79,0,0,0-.42-.13s0-.1,0-.14-.06-.08-.1-.12A.27.27,0,0,0,58.17,58Zm.41.88.35,0,.68.06v-.09l-.05,0s0,0-.06-.08h0l0,.05-.17.07-.17,0-.13-.34A1,1,0,0,0,58.58,58.92Zm.55.87c.11-.19.19-.29.18-.37a.32.32,0,0,0-.07-.17s-.1-.08-.14-.12,0,0-.09.06h0a.05.05,0,0,0,0,.05.11.11,0,0,0-.08,0l0,.44A.39.39,0,0,1,59.13,59.79Zm.13-1.88L59,58c.11.16.21.28.35.31A.28.28,0,0,0,59.26,57.91Zm.43,2.49a.23.23,0,0,0-.15-.16.19.19,0,0,0-.2.2Zm0-.41h.09s0-.09,0-.18l0-.13c-.21,0-.34.08-.33.21S59.6,60,59.73,60Zm0-1.15a.38.38,0,0,0,0,.36l.18,0s0,0,.08-.06S59.83,58.91,59.68,58.84Zm.38-1s0,0-.05,0v-.08a.05.05,0,0,1,0,0l-.24.2Zm0,2.18c-.13.06-.21.12-.2.25l.22,0A.19.19,0,0,0,60.05,60Zm.46-3.61-.36,0s-.08,0-.07.09h0c-.08,0-.08.1-.07.14s0,.13.06.13h0a.33.33,0,0,0,.23.06.26.26,0,0,0,.25-.16ZM60,56v.09l.26,0V56Zm.14-8.33c.1.12.23.06.22,0a.19.19,0,0,1,.08-.06l-.32-.05C60.11,47.59,60.12,47.68,60.16,47.67Zm.42,11.64-.34.13,0,.13.34-.13Zm.16-3.26.39-.09c0-.13-.2-.2-.34-.18Zm.52-2.37a1,1,0,0,0-.52-.3Zm.09-1.93a.47.47,0,0,0,.14-.32.34.34,0,0,1-.23,0l-.16.15c-.08.1-.11.15-.07.19Zm-.28-.49.3,0a.24.24,0,0,0-.06-.17s-.05,0-.09,0L61,51Zm.3,5.61-.19-.07-.06.23.18,0Zm0-9,.13,0v-.13l-.14,0Zm.17,1,.06.52a.69.69,0,0,0,.33-.17C61.93,49.15,61.82,49,61.55,48.89Zm.73,3.2C62.08,52,62,52,62,51.9s-.22,0-.26.08l-.08.05A1.79,1.79,0,0,0,62.28,52.09Zm0-2.22a.61.61,0,0,0-.11-.21.72.72,0,0,1-.16.15.05.05,0,0,0,0,0h0a1,1,0,0,0-.25.21l.45,0C62.21,50,62.29,49.91,62.28,49.87Zm-.15,2.46-.2-.15-.17.1.29.15Zm.11,2.92-.43,0v.09l.43,0Zm-.05-3.9-.35,0,0,.22C62.08,51.58,62.2,51.48,62.19,51.35Zm.46-4.46-.18,0V47l.18,0Zm.23,3.49c-.11-.17-.17-.3-.22-.29l-.09,0-.08,0a.16.16,0,0,0,.19.16Zm2.85,1.22a.76.76,0,0,0-.22-.38.14.14,0,0,0,0,.18.25.25,0,0,1,0,.18l-.31,0c0,.08,0,.13-.07.14s.13,0,.27.06a.51.51,0,0,0,.22,0s0,0,.08-.09A.15.15,0,0,0,65.73,51.6Zm0,.32h-.13l.11,1h.14Z"/><path class="cls-1" d="M90.37,51.3a12,12,0,0,1-1,2.07.92.92,0,0,0,.07-.54,2.28,2.28,0,0,0-.1-.52,1.61,1.61,0,0,1-.1-.44c0-.13,0-.22.06-.22h0a1.3,1.3,0,0,0-.1-.43.76.76,0,0,1,.12-.51c-.18,0-.23-.1-.2-.2s0-.17-.07-.21l.36,3.07A8.34,8.34,0,0,1,87.05,56h0a22.11,22.11,0,0,1-4.48,2.39,15.26,15.26,0,0,1-2,.72c-.12.06-.25.07-.38.13s-.21.07-.35.09h0c0-.08,0-.08-.1-.07s-.21.07-.2.15,0,0,0,0l-1.34.34.65,7.84a.77.77,0,0,1-.78,1l-5.39.63a.87.87,0,0,1-1-.82l-.21-3.31.1.08a1.14,1.14,0,0,0,.41-.31l-.14-.07-.22,0-.16.15-.19-2.33.14,0a.1.1,0,0,0-.1-.07l0,0L69.77,41.66a.81.81,0,0,1,.61-.87c6.85-2.27,7.88-2.61,8.92-2.87a9.29,9.29,0,0,0,1.16-.27l1.18-.18h0c4.76-.34,7.74,2.74,8.8,7.19A12,12,0,0,1,90.37,51.3ZM71.29,46.68h.09l0-.22h-.08Zm0,15.29.15.12a.39.39,0,0,0,.25-.17C71.59,61.81,71.33,61.84,71.34,62Zm0-.76.26,0,0-.13-.26,0Zm.44,1.15a.71.71,0,0,0-.44,0l.24.1a.26.26,0,0,1,.13,0A.1.1,0,0,0,71.83,62.36Zm-.38-18.94h.08v-.13h-.09Zm.23,20.29-.22,0v.14l.22,0Zm.12-.9c-.15-.08-.24-.15-.25-.24a.2.2,0,0,0,0,.14.17.17,0,0,1,0,.13Zm-.12,2.81-.05,0-.13.06v0Zm.78-7.78.22,0a.19.19,0,0,0-.05-.08c-.1,0-.1-.08-.15-.12v.14S72.46,57.8,72.46,57.84Zm.59,1.62c0,.22-.09.41-.11.59a5.35,5.35,0,0,0-.07.54.18.18,0,0,0,.06.13s.1.08.06.12-.16.2-.1.28.08.3,0,.35,0,.05-.08.1a.05.05,0,0,0,0,0,.14.14,0,0,0-.07.14.18.18,0,0,0,.06.13s.1.08,0,.18,0,0-.09,0h0c.1.12.16.2.13.34s-.11.55,0,.67,0,.22,0,.22a1.49,1.49,0,0,0,.07,1,.45.45,0,0,0-.16.2,1.1,1.1,0,0,0-.15.24l0,.13a4.43,4.43,0,0,1,0,.84,6.3,6.3,0,0,0,0,.85.42.42,0,0,1,0,.22.37.37,0,0,0-.07.19c0,.13.16,1,.41,1.19a2,2,0,0,0,.62,0,3,3,0,0,1,.58,0Zm-.33-4.36s0,.08.11.16l.07-.14a.18.18,0,0,0,0-.14l-.22,0Zm.39.66a.84.84,0,0,0,.3-.08,1.09,1.09,0,0,1,.3-.12,2.06,2.06,0,0,1-.24-.15c-.1,0-.15-.07-.23-.06a.61.61,0,0,0-.26.12c-.07.09-.16.15-.2.2.14,0,.19.06.15.07A.31.31,0,0,0,73.11,55.76Zm0,.81-.17-.34h-.09l.17.34Zm0,.08H73l-.12.15.1,0Zm0,2.28h-.09l0,.26h.08Zm.72-3.78A.53.53,0,0,0,73.5,55a.25.25,0,0,1-.15-.16.49.49,0,0,1-.25.16s0,0-.08.06a.9.9,0,0,1,.51.16Zm.17,3,0-.08-.26.11v.09Zm.44-1.61-.27,0,0,.22.26,0Zm1.46,6.05-.07.15a.86.86,0,0,0,.12.34Zm.07.62,0,.45a.2.2,0,0,0,0,.13c0,.05,0,.09,0,.1.11.16.11.21.07.21a0,0,0,0,0-.08,0,.77.77,0,0,0,.24.55Zm3.86-11.08a9.42,9.42,0,0,0,3.06-2,3.37,3.37,0,0,0,.88-2c.07-1.74-1-4.24-3-3.61l-3.38,1.11.38,7.07A20.07,20.07,0,0,0,79.75,52.14ZM78.11,68.52l-.06-.13H78l.06.13Zm1.17-14,0-.22-.13,0,0,.22Zm.21,4.11-.26,0,0,.18.26,0Zm.23-1.09-.29-.19s-.19.25-.18.33l.23.11Zm.49-1.48-.38-.22,0,.3Zm1.29-.77c.09,0,.18,0,.32,0l0,.22.26,0a.31.31,0,0,0,.13-.06.89.89,0,0,0-.41-.13s0-.09,0-.13,0-.08-.1-.12A.28.28,0,0,0,81.5,55.32Zm.42.88.35,0,.67.06v-.09l-.05,0s0,0,0-.08h0l0,.05-.17.06-.18,0-.13-.35A1.09,1.09,0,0,0,81.92,56.2Zm.54.87c.11-.19.19-.29.18-.38a.34.34,0,0,0-.06-.17s-.1-.07-.15-.11,0,.05-.08.05h0s0,.05,0,.05a.12.12,0,0,0-.09,0l0,.44A.33.33,0,0,1,82.46,57.07Zm.14-1.88-.31,0c.11.17.21.29.35.32A.26.26,0,0,0,82.6,55.19ZM83,57.67a.25.25,0,0,0-.15-.16c-.13,0-.21.12-.2.2Zm0-.4h.09a.21.21,0,0,0,0-.18l0-.13c-.22,0-.35.08-.33.21S82.93,57.28,83.06,57.27Zm0-1.15a.33.33,0,0,0,0,.35l.17,0s0-.05.08-.05S83.16,56.19,83,56.12Zm.37-1s0,0,0,0V55a0,0,0,0,1,0,0l-.25.21Zm0,2.18c-.12.06-.21.11-.19.25l.22,0A.2.2,0,0,0,83.38,57.32Zm.47-3.61-.36-.05c0,.05-.08.06-.08.1h0c-.09,0-.08.09-.08.14s0,.13.06.12h.05a.33.33,0,0,0,.23.06.29.29,0,0,0,.25-.16Zm-.5-.43v.08l.27,0v-.08ZM83.49,45c.11.12.23.06.22,0a.14.14,0,0,1,.09-.05l-.32,0S83.45,45,83.49,45Zm.43,11.64-.34.13v.13l.34-.13Zm.15-3.26.39-.09c0-.13-.2-.2-.33-.19ZM84.59,51a.89.89,0,0,0-.52-.29ZM84.68,49a.4.4,0,0,0,.14-.33.27.27,0,0,1-.22,0l-.16.15c-.08.1-.12.15-.07.18Zm-.28-.5.31,0s0-.14-.07-.17,0,0-.09,0l-.17,0Zm.3,5.61-.19-.06-.06.23.18,0Zm0-9,.14,0,0-.13-.13,0Zm.17,1,.06.53a.72.72,0,0,0,.34-.17C85.27,46.43,85.16,46.27,84.88,46.16Zm.73,3.21c-.19-.11-.28-.15-.29-.19a.45.45,0,0,0-.26.07l-.08.06A1.81,1.81,0,0,0,85.61,49.37Zm0-2.22a.67.67,0,0,0-.12-.21.77.77,0,0,1-.16.15s0,0,0,0h0a1.13,1.13,0,0,0-.24.21l.45,0A.7.7,0,0,0,85.62,47.15Zm-.16,2.46-.2-.16-.16.11.28.15Zm.12,2.92-.44,0v.09l.44-.05Zm-.06-3.91-.35,0,0,.22C85.42,48.86,85.54,48.75,85.52,48.62ZM86,44.17l-.17,0v.09l.17,0Zm.23,3.48c-.11-.16-.17-.29-.21-.28l-.09,0-.09.06a.16.16,0,0,0,.2.15Zm2.86,1.23a.77.77,0,0,0-.23-.38.15.15,0,0,0,0,.18c0,.09,0,.13,0,.18l-.31,0c.06.09,0,.14-.07.15a1,1,0,0,0,.28.05.43.43,0,0,0,.22,0s0,0,.08-.1A.22.22,0,0,0,89.07,48.88Zm-.06.31-.13,0,.12,1,.13,0Z"/></g></g></svg>