<svg width="84" height="86" viewBox="0 0 84 86" fill="none" xmlns="http://www.w3.org/2000/svg">
<path d="M18.375 77.5298H65.625" stroke="white" stroke-width="2" stroke-linecap="round" stroke-linejoin="round"/>
<path d="M42 45.4486C47.799 45.4486 52.5 40.6608 52.5 34.7548C52.5 28.8488 47.799 24.061 42 24.061C36.201 24.061 31.5 28.8488 31.5 34.7548C31.5 40.6608 36.201 45.4486 42 45.4486Z" stroke="white" stroke-width="2" stroke-linecap="round" stroke-linejoin="round"/>
<path d="M68.25 34.7547C68.25 58.8157 42 77.5298 42 77.5298C42 77.5298 15.75 58.8157 15.75 34.7547C15.75 27.6643 18.5156 20.8643 23.4384 15.8506C28.3613 10.8369 35.0381 8.02026 42 8.02026C48.9619 8.02026 55.6387 10.8369 60.5616 15.8506C65.4844 20.8643 68.25 27.6643 68.25 34.7547V34.7547Z" stroke="white" stroke-width="2" stroke-linecap="round" stroke-linejoin="round"/>
</svg>
