<svg xmlns="http://www.w3.org/2000/svg" viewBox="0 0 353.14 176.78"><defs><style>.cls-1{fill:#b2b2b2;}.cls-2,.cls-3{fill:none;}.cls-2{stroke:#b2b2b2;stroke-miterlimit:10;}</style></defs><g id="Camada_2" data-name="Camada 2"><g id="Camada_1-2" data-name="Camada 1"><path class="cls-1" d="M174.85,123.71a38,38,0,0,1-33.95-20.92,3.31,3.31,0,1,1,5.91-3A31.49,31.49,0,0,0,206,90.57a3.31,3.31,0,1,1,6.54,1,38,38,0,0,1-31.76,31.64A38.63,38.63,0,0,1,174.85,123.71Z"/><path class="cls-1" d="M159.25,72.4c.09,2.36-.39,5.43-3.09,7.23a8,8,0,0,1-3.91,1.24c-3.54.28-5.42-2-6.16-5.22a23.33,23.33,0,0,1-.59-6,11.51,11.51,0,0,1,1.78-6,7.32,7.32,0,0,1,5.14-3.33,4.82,4.82,0,0,1,4.69,1.66c1,1.32,1.17,3.36,1.14,5a.5.5,0,0,1-.47.55l-3.71.73a.58.58,0,0,1-.69-.6,10.21,10.21,0,0,0-.1-1.73c-.08-.44-.21-.92-.68-1a1.06,1.06,0,0,0-.39,0c-.66.11-1.16,1.07-1.4,1.59-.87,2.13-.67,5-.3,7.19.1.64.46,2.45,1.24,2.7,1.26.45,2.25-.57,2.51-1.83l-1.15.39a.55.55,0,0,1-.54,0,.59.59,0,0,1-.26-.5l-.05-3.78a.6.6,0,0,1,.43-.61c1.41-.43,2-.62,2.57-.77C157.84,68.51,159.16,69.87,159.25,72.4Zm-11.87-5.32s0,0,0,0v0c-.08,0-.07.1-.06.13a.15.15,0,0,0,.08,0A0,0,0,0,0,147.38,67.08Zm1.94,8.22a.63.63,0,0,1-.06-.2s0,0-.07,0l-.2,0c0,.15,0,.27,0,.3a.27.27,0,0,0,.05.11l.11,0a.16.16,0,0,0,.15,0A.37.37,0,0,0,149.32,75.3Zm.27-8.29.18,0a.72.72,0,0,1,.38-.19l-.47,0A.4.4,0,0,0,149.59,67Zm0-.62c0,.06.2.12.26.13l.12,0,0-.15a1.66,1.66,0,0,0-.34-.24s0,.06,0,.09A.14.14,0,0,0,149.61,66.39Zm2.34-2.7H152l0-.06H152Zm.3,14.33-.17,0,0,.15h0s0,0,.07,0l.11,0Zm0-14.23,0,.11.24,0a.35.35,0,0,0-.09-.16s-.05,0-.11,0A.15.15,0,0,0,152.27,63.79Zm1.15-1.43a.06.06,0,0,1,0,0h.09l0-.07a.2.2,0,0,1,.07-.1h-.26Zm.13,5.67.18,0a.1.1,0,0,0,0-.09.12.12,0,0,1,0-.09Q153.54,67.94,153.55,68Zm.34-5.54s-.08.07-.15.17l.1.07.32,0s.05,0,.05,0v-.06s-.12,0-.13-.06a.16.16,0,0,1,.05-.1A.84.84,0,0,1,153.89,62.49Zm.26.84,0-.08.05-.07a.6.6,0,0,0-.24,0c-.06,0-.11.05-.1.11l.16.06Zm.13,16.19-.16-.06s-.08,0-.11.05a.16.16,0,0,0-.14.08v0s0,0,0,0l.32,0Zm-.1-15.24,0,.08h.06C154.31,64.32,154.3,64.29,154.18,64.28Zm.48.36-.23,0c-.09,0-.18,0-.22.1s.37.11.43.1a.79.79,0,0,1,.23-.06c.08,0,.1-.08.09-.14S154.86,64.61,154.66,64.64Zm-.18-.74a.15.15,0,0,1-.11.08s-.05,0-.05.07,0,0,.07,0l.17,0s0,0,0-.09S154.54,63.89,154.48,63.9Zm.38,1.6a.4.4,0,0,1,.13-.11.09.09,0,0,0,.08,0v-.09l-.07-.05s-.06,0-.13,0c0,.16-.14.23-.31.26l.08.11s.06,0,.12,0S154.84,65.56,154.86,65.5Zm-.13.65c-.09,0-.11,0-.1.1l.28,0S154.81,66.13,154.73,66.15Zm.13-1,0-.07,0-.09c0-.06,0-.08-.13-.07l-.08,0h0l0,.12A.35.35,0,0,1,154.86,65.15Zm.06-1.47c0,.09.12,0,.11,0l0-.09-.11,0Zm0,.24a.34.34,0,0,0,.36.21.19.19,0,0,0,.11,0l.08,0s-.07-.07-.13-.06-.09,0-.1-.1-.07,0-.07-.08,0-.06-.07,0a.52.52,0,0,0-.17.06S154.92,63.89,154.93,63.92Zm.25,2.12c-.11,0-.16.09-.15.14l.09,0s0,0,.09,0,0-.06.08-.07S155.25,66.06,155.18,66Zm-.07-3.34a.14.14,0,0,0,.17.12l.12,0s0,0,0-.06,0,0,0,0,0,0,0-.09,0-.06-.16-.09a.46.46,0,0,1-.1.1C155.14,62.67,155.11,62.67,155.11,62.7Zm.26,2s0,0,0,0,0-.12,0-.11a.19.19,0,0,0,0,.1S155.34,64.62,155.37,64.65Zm.22.79a.14.14,0,0,0-.13,0c0,.06,0,.12,0,.12S155.6,65.5,155.59,65.44Zm.13-.49-.07,0a.17.17,0,0,0-.08,0l-.11,0a.58.58,0,0,0,.22.08A.1.1,0,0,0,155.72,65Zm-.05-1.89.06,0V63l0,0Zm.17,6.79-.15,0v.06s0,0,.05,0A.17.17,0,0,0,155.84,69.85Zm0-7.24s.07,0,.16.1a.11.11,0,0,1,0-.07l0-.11s-.06,0-.12,0S155.83,62.58,155.84,62.61Zm.92,9.78a.51.51,0,0,1-.18,0l0,.09h.15A.09.09,0,0,0,156.76,72.39Zm-.18-10.11s.07,0,.12,0l.1-.13h-.06a.24.24,0,0,0-.15,0l0,0Zm.57,7.44s-.09,0-.15,0a.27.27,0,0,0-.23.22.38.38,0,0,0,.18,0,1.2,1.2,0,0,0,.22-.1Zm.29,2.12V71.6a1.63,1.63,0,0,1,0-.35l-.14-.1a.38.38,0,0,0,.05-.24.09.09,0,0,0,0-.08,1.5,1.5,0,0,1,0-.27l-.09,0s0,0-.08.07l0,.06c.09.2.13.28.1.31s0,.06,0,.15l.15.92a.18.18,0,0,0,0,.13l.17,1c0,.06.07.08.13.07s.08,0,.13-.11l0-.23a3.91,3.91,0,0,1-.17-.68l0-.32s0-.06,0-.09S157.44,71.84,157.44,71.84Zm-.3-1.64,0-.12h-.06l0,.12Z"/><path class="cls-1" d="M173.66,66.84v.09h0a26.85,26.85,0,0,1,.1,3.13l-.1-.08c-.07,0-.1-.07-.11-.1l-.26,0a.16.16,0,0,0,0,.09v0a.25.25,0,0,1,.15,0l.18,0c0,.06.07.08.16.1l-.07.87-.17,0v0l.17,0a1.86,1.86,0,0,1-.07.49c0,.09-.12,0-.11.08l.1,0a13.39,13.39,0,0,1-.62,2.35h0l-.15.17.07.08-.31.61a6.35,6.35,0,0,1-4.82,3.55,5.5,5.5,0,0,1-5-1.58v-.06h-.05a.93.93,0,0,1-.19-.21,8.41,8.41,0,0,1-1.66-2.75l0-.06a.1.1,0,0,1,0-.09s0,0-.1-.07v.05a13.45,13.45,0,0,1-.51-1.84,2,2,0,0,0,.06-.9l0-.12,0-.17a.82.82,0,0,1-.06-.2l0-.21s0-.08-.05-.1l-.09-.58a.5.5,0,0,1,0-.21A.57.57,0,0,0,160,69S160,69,160,69c0-.26,0-.58,0-.88,0-3,.45-6.53,2.72-8.77a5.63,5.63,0,0,1,3.06-1.54A5.79,5.79,0,0,1,171.54,60a13.46,13.46,0,0,1,2.15,6.8Zm-13.36,1a.24.24,0,0,0-.05-.14c-.07.1-.12.17-.11.23s0,0,.07,0a.13.13,0,0,1,.09,0A.25.25,0,0,1,160.3,67.81Zm0,.36h-.05l0,.11h0Zm.42,3.79-.12,0a.06.06,0,0,0,0,.06s0,0,.07.08l.13,0a.1.1,0,0,1,0-.09A.08.08,0,0,0,160.69,72Zm0-.92h-.06l.12.72h.05Zm.88.72-.14,0v0h.15Zm.56.11H162s-.07,0-.12,0-.2.27-.19.33a.37.37,0,0,0,.09.16l.26,0,.07-.1Zm-.34.68a.44.44,0,0,0,.14.1l0-.23-.08.07S161.76,72.52,161.76,72.55Zm.07.41s.06,0,.09,0,.05.08,0,.11,0,.12.05.11a.15.15,0,0,1,.11,0v-.09c-.1,0-.17-.09-.15-.15s0-.12-.11-.13,0,0,0,0a.06.06,0,0,0,0,.06S161.8,73,161.83,73Zm.09.57a.83.83,0,0,0,.24.38l-.08.07s0,0,0,0l.06,0a.27.27,0,0,1,.11,0l0-.34a2.3,2.3,0,0,0-.05-.32l-.12,0a.07.07,0,0,0,0,.06s0,0-.05,0S161.92,73.5,161.92,73.53Zm.26.88,0,.11s0-.06.05-.06.05,0,.05-.07ZM162.7,76a.24.24,0,0,0,0-.11s0,0,0-.08h-.08s-.06,0-.1,0a.27.27,0,0,1,.14-.08,3,3,0,0,0,0-.62c-.16,0-.22,0-.22-.08l0-.14c0-.06,0-.09,0-.12l0,.53a.27.27,0,0,1,.16,0c-.21.19-.19.15-.16.33a.87.87,0,0,0,.05.13.54.54,0,0,1,.1.23.33.33,0,0,1,.15,0c-.05,0-.07.07-.1.08s0,0,0,.06l0,0s0,0,0,0S162.71,76,162.7,76Zm0,.27-.07,0-.11,0s0,0,0,0l0,.17.08,0s0,0,.05,0l.09,0Zm.85-6.22-.07-.07c0,.06,0,.08.08.13S163.6,70,163.57,70Zm.14-10.51c.12,0,.18,0,.21,0a0,0,0,0,1,0,0s0,.06,0,.05a.15.15,0,0,0,.09,0,.19.19,0,0,0,.11-.07,0,0,0,0,0,0,0l0,0ZM164.09,71s0,.1,0,.09Zm.6-11.56.14,0,.12-.14-.28,0Zm.23,3.81-.2,0,.08.14a.47.47,0,0,0,.17-.09A.38.38,0,0,0,164.92,63.26Zm.18-3.79-.17,0v0h0v0a.23.23,0,0,0,.23.11.14.14,0,0,0,.1-.08C165.16,59.61,165.12,59.55,165.1,59.47Zm.73,15.68c0-.12-.2-.18-.23-.17s0-.1,0-.21l-.14,0c-.3.17-.6.34-.52.62a.39.39,0,0,1,.25.08s.06,0,.09,0a.29.29,0,0,0,.19.06A.44.44,0,0,0,165.83,75.15Zm3.11-6.53s.09,0,.08,0a.33.33,0,0,1,0-.13.39.39,0,0,0-.18,0,35.22,35.22,0,0,0-.47-3.8,12.68,12.68,0,0,0-.49-1.73h0l0,0,.17,0a.15.15,0,0,0-.08-.13.26.26,0,0,0-.15.14,2.56,2.56,0,0,0-.35-.65.92.92,0,0,0-1.23-.48c-.88.41-1.15,2-1.23,2.83a24.4,24.4,0,0,0,.32,6.5c.13.78.46,2.27,1.29,2.61a.94.94,0,0,0,.42,0c1,0,1.4-.88,1.55-1.79a15.15,15.15,0,0,0,.17-3.32s0,0,.06,0S168.94,68.62,168.94,68.62Zm-2.33,7.82s0,0,0,0l-.11.07a.18.18,0,0,0,.16,0Zm0-17.31.2,0V59l-.2,0Zm.38,0c.09,0,.15,0,.17.12s.1.1.28.07.08,0,0-.07,0-.08,0-.15a1.28,1.28,0,0,0,.28-.08.07.07,0,0,0,.08-.07.13.13,0,0,0,0-.09.47.47,0,0,1,.17-.09c.06,0,.11,0,.15-.14s-.06,0-.12,0a.19.19,0,0,1-.18,0s0,.06,0,.12,0,.06,0,.09a.37.37,0,0,0-.1.11.24.24,0,0,1-.16.11l-.08,0-.06,0c-.14.05-.21,0-.19-.09v-.09A.61.61,0,0,0,167,59.1Zm.12-.38a.2.2,0,0,0,.19.09c.06,0,.17-.06.25-.07l.2-.09-.07,0v0c-.05,0-.08,0-.12,0l-.11,0a1.22,1.22,0,0,1-.27,0C167.13,58.63,167.11,58.67,167.12,58.72Zm2,16.77-.07,0-.2,0a.92.92,0,0,0-.48.31l.53,0a.17.17,0,0,1,.1-.07.26.26,0,0,0,.14-.08Zm-.61-16.58.14,0v-.06l-.14,0Zm.52,5.51.1-.08,0-.25a.45.45,0,0,0-.3,0s0,0,0,.06,0,.06,0,.09l-.1.11c-.05,0-.1.07-.1.1s.07.08.13.1l.24,0A.27.27,0,0,1,169.06,64.42Zm0,12.16-.1,0-.08,0a.23.23,0,0,0-.19.15.64.64,0,0,0,.28.07.48.48,0,0,0,.11-.08ZM169,76s-.06,0-.06,0h-.09c-.11.05-.13.11-.13.14s0,.09,0,.08,0,0,0,0a.31.31,0,0,0,.11-.05l.11,0Zm-.2-9.72v.06c.06,0,.12,0,.18,0a.37.37,0,0,0,.18,0,.11.11,0,0,0,.05,0v-.06a.34.34,0,0,0-.24,0C168.84,66.18,168.76,66.22,168.76,66.25Zm.09.52v.08s0,0,.06,0,0,0,.07,0,0-.07.13-.11l.13-.11-.09-.16A2.78,2.78,0,0,0,168.85,66.77Zm.06.4c0,.13,0,.18,0,.2a.06.06,0,0,1,.05,0,.11.11,0,0,0,.05,0A.22.22,0,0,0,168.91,67.17Zm.35,1a.38.38,0,0,0,.12,0,4.83,4.83,0,0,0,.55-.27l-.37-.11a.4.4,0,0,1-.16-.07l-.16-.06a.43.43,0,0,1-.11.08.38.38,0,0,1,0,.18l0,.23A.28.28,0,0,1,169.26,68.21Zm0,1.33a1,1,0,0,0,.14.15.31.31,0,0,0,.25,0,.34.34,0,0,0,.22-.12l0-.12a1.31,1.31,0,0,1-.39,0,.79.79,0,0,1-.32,0l0,.14A.38.38,0,0,0,169.3,69.54Zm0,.42h0s0,0,0,.06,0,0,0,.06,0-.07.1-.11A.13.13,0,0,1,169.28,70Zm.08.67a1.13,1.13,0,0,1,.5-.21c.06,0,.09,0,.12,0l.12,0a1.35,1.35,0,0,0,.38-.19v-.08l0,0-.31.06h-.36a.16.16,0,0,0-.16.08.7.7,0,0,0-.16.14c-.06,0-.09,0-.12,0l0-.12A.44.44,0,0,0,169.36,70.63Zm0-1.67-.07.1a2.31,2.31,0,0,0,.42-.18h-.06s-.06,0-.12,0A.44.44,0,0,0,169.38,69Zm.55-.65c0-.06,0-.09,0-.08s0,0-.07,0-.32,0-.41.21a.24.24,0,0,0,.25.08C169.72,68.49,169.94,68.4,169.93,68.31Zm-.46-3.69h.06a.1.1,0,0,1,.08,0s0,0-.06,0l-.1,0Zm.14,6.8s0,0-.07,0-.06,0-.06-.05a.2.2,0,0,0,0,.09S169.55,71.45,169.61,71.42Zm0-5.27a.18.18,0,0,0-.11,0,.19.19,0,0,0,.1,0l.09,0v0l0,0S169.63,66.14,169.57,66.15Zm.33,1.28a.27.27,0,0,1-.18-.21c0-.06,0-.12-.12-.19s0,0,0,0a.18.18,0,0,1-.08,0s0,0,0,.09a.27.27,0,0,0,0,.12.6.6,0,0,0,.11.1.45.45,0,0,0,.26.14C169.88,67.49,169.91,67.45,169.9,67.43Zm.09-.94h.08l0-.15-.09,0Zm.18,4.39v-.06l-.17,0v.06Zm-.11-1.61.08.16a.16.16,0,0,0,.07-.13A.24.24,0,0,0,170.06,69.27Zm1.16,5a1.41,1.41,0,0,0-.41-.17,1.68,1.68,0,0,1-.3,0c-.06,0-.07,0-.08-.1l-.07,0-.06,0h-.06c-.11,0-.16.06-.15.14a.75.75,0,0,1,0,.22.18.18,0,0,0,.09,0s.07,0,.1,0,.06,0,.07.11v.06a2.32,2.32,0,0,0,.47.1A1.65,1.65,0,0,0,171.22,74.23Zm-1.08-5.69,0,.15.2-.07A.79.79,0,0,0,170.14,68.54Zm0-1.87.21,0a.41.41,0,0,0-.1-.22s0,.08,0,.12S170.16,66.64,170.16,66.67Zm.05,4.44a.23.23,0,0,0,.26,0l-.08-.11a.47.47,0,0,1-.1.11A.12.12,0,0,0,170.21,71.11Zm0-3.86c.07,0,.09,0,.05,0s0,0,0-.08a.41.41,0,0,0,0,.09Zm.09,5.47-.06,0,0,.14a.13.13,0,0,0,.1-.13ZM170.7,76l-.11,0a.11.11,0,0,0-.1.13.08.08,0,0,0,.07.05l.07,0s.08,0,.17-.06S170.8,76,170.7,76Zm.1-7.58-.17,0c0,.09,0,.15.12.19l.14,0c0-.06,0-.12,0-.11S170.8,68.4,170.8,68.37Zm.06,7.08.1-.11s-.08-.13-.08-.16-.06,0-.13.11-.09,0-.08.07,0,0,.07,0A.13.13,0,0,1,170.86,75.45Zm.95-3.6,0-.23a.32.32,0,0,0-.16,0s0,.06-.05.07,0,0,0,.06a.15.15,0,0,1-.11.08l-.18,0,0-.09c.11,0,.19-.09.19-.12l0-.11-.17,0a1.73,1.73,0,0,0-.36.15l0,.2c0,.08.05.11.06.17l.17,0a1.38,1.38,0,0,0,.41-.19A.33.33,0,0,0,171.81,71.85Zm0-.52s0,0,0-.1,0-.08-.11-.1-.09,0-.1-.07a.33.33,0,0,1,.07-.16.22.22,0,0,0,.06-.16,1.08,1.08,0,0,0-.19-.26l-.32,0,.07,0,0,.17a.51.51,0,0,1,0,.21.24.24,0,0,1-.11-.16s-.07,0-.19,0a.39.39,0,0,0,0,.36.8.8,0,0,0,.26,0,.82.82,0,0,1,.27,0,.59.59,0,0,0,0,.3.59.59,0,0,0,.32,0A0,0,0,0,1,171.79,71.33Zm-.55.85-.31-.12,0,.11.09,0Zm-.3-2c0,.06,0,0,0,0s0,0,0,.06l.26,0s.09,0,.12,0,.07-.1,0-.21a1.53,1.53,0,0,0-.27,0C171.07,70,170.92,70,170.94,70.16Zm.14-.26c.11-.05.13-.08.12-.14s-.09,0-.21,0ZM171,68.85c0,.05,0,.08.07.07h.08a.19.19,0,0,0,0-.18s0-.09.15-.17c0,0,0,0,0,0h0s0,0,0,0A.61.61,0,0,0,171,68.85Zm.08,7-.08.07.1.07A.13.13,0,0,0,171.08,75.86Zm0-6.49a.13.13,0,0,0,0,.06c0,.06,0,.09.14.1a.42.42,0,0,1,.12-.14.35.35,0,0,0-.22-.08C171.08,69.37,171.08,69.37,171.05,69.37Zm.22-.45,0,.11a.34.34,0,0,1,.16,0l0-.07v0S171.39,68.9,171.27,68.92Zm0-1.76a1.47,1.47,0,0,1,.23-.06.15.15,0,0,1,.19.09l-.14.2a.71.71,0,0,0,.41,0c-.13-.07-.17-.12-.09-.17a.53.53,0,0,1,.13-.13L171.4,67l0,.07C171.34,67.13,171.31,67.14,171.31,67.16Zm.09.73h.06l0-.07h-.06Zm.06-1.1a.2.2,0,0,1,.22.08c.07-.1.06-.16,0-.2a.18.18,0,0,1-.11.07A.11.11,0,0,0,171.46,66.79Zm.28,7a.15.15,0,0,0,.11,0l.09,0-.08-.13a1.05,1.05,0,0,0-.33.17A.22.22,0,0,0,171.74,73.76Zm0-5.22v-.06l-.24,0v.06Zm-.17.36s0,.08.07.07a.13.13,0,0,0,.07-.1Zm.48,4.93h0s-.09,0-.09,0a.14.14,0,0,0-.1,0l-.13,0s0,0-.06,0h-.06s.07,0,.11.07l.07.08v.09s0,0,0,.06l.23,0a.27.27,0,0,0,.08-.25Zm-.3-4.37,0-.09-.08,0v.08Zm.73,0c0-.09.07-.13.07-.16a.79.79,0,0,1-.3.17l-.16,0-.16-.06s0,0,0,.07a.12.12,0,0,1-.09,0l0,.14a1.3,1.3,0,0,1,.29,0,.5.5,0,0,0,.21,0A.15.15,0,0,0,172.51,69.43Zm-.37.62a.18.18,0,0,1,.15,0,.9.9,0,0,0,0-.16.25.25,0,0,1-.05-.11.08.08,0,0,1,.05-.07h-.06s0,0,0,0,0,.18-.15.17a.55.55,0,0,0-.25.13l.09,0A.38.38,0,0,0,172.14,70.05Zm.41-2.58h-.06s0,0-.09,0-.06,0-.05,0h-.09c-.09,0-.14.09-.13.14s.12,0,.14-.08.06.05,0,.05v.06l-.43.28a.58.58,0,0,0,.07.25c0,.12.12,0,.15,0l.12,0a.29.29,0,0,1,.15,0,1,1,0,0,1,.23.12l-.08.07s0,0,0,0h-.06a.19.19,0,0,0-.16.09.42.42,0,0,1-.14.08l-.14,0a.49.49,0,0,1,.11.13.23.23,0,0,0,.11.13.12.12,0,0,0,.13.1.53.53,0,0,0,.29,0c-.1,0-.12-.18-.12-.18h-.06c-.11,0-.18,0-.18,0v0l.2-.09c.08,0,.14-.06.16-.06s.12,0,.14-.11l.13-.11c-.12,0-.15,0-.19-.06l0-.12h-.06s0,0,0,0,0-.06,0-.09l.08-.07s-.07,0-.13-.07-.1,0-.1-.07.1-.11.24-.13a.5.5,0,0,1-.13-.07s-.07,0-.07-.08l.14,0a.56.56,0,0,0,.35,0s0-.06,0-.09a.1.1,0,0,0,0-.09c0-.09-.25-.11-.31-.1a.33.33,0,0,1,0,.16A.16.16,0,0,1,172.55,67.47Zm-.46,3-.12-.16a.11.11,0,0,0-.07-.11c0,.17,0,.29.08.31s.05,0,.08,0Zm.09-2a.1.1,0,0,0,0-.12l-.2,0v.12ZM172,66.73c0,.06,0,.06.05.09l.06,0a.18.18,0,0,0,0-.15Zm.14,4.13,0-.14H172l0,.14Zm-.1.08.08.16c.09,0,.11-.08.1-.13s-.06,0-.09,0A.2.2,0,0,0,172,70.94Zm.06.34s0,0,.06,0l.09,0c.05-.1.1-.14.16-.12s.16,0,.26,0l0,0,0,0A1.83,1.83,0,0,1,172.05,71.28Zm.17,2h-.06l0,.1.06,0Zm-.1-2.95.29,0a.11.11,0,0,0,.05,0s0-.07,0-.07-.17,0-.21,0l-.17,0Zm0-2.94a.14.14,0,0,0,.11.11l.14,0c.05-.07.05-.09.05-.09s.05,0,0-.1A.45.45,0,0,0,172.14,67.35Zm1.16,3.25a.26.26,0,0,1-.19-.08.33.33,0,0,0-.16-.07c-.06,0-.06,0-.06,0h0a.8.8,0,0,1-.37-.06,1.27,1.27,0,0,0,.25-.1,1.07,1.07,0,0,1,.17-.06c0,.06.05.11.05.14l.12,0s.08,0,.08,0l0,0v-.08c-.06,0-.15,0-.19-.06a.17.17,0,0,1-.16-.06.56.56,0,0,1,.24-.19,1.28,1.28,0,0,0-.23-.14.55.55,0,0,0-.35,0l.29.16a.18.18,0,0,1-.08.07c0,.07-.1.08-.13.11s0,.18-.23.36l-.05.1a1.42,1.42,0,0,0,.36,0l.36,0v.09s-.08,0-.14.05,0,0-.1.08a.34.34,0,0,0,.27,0l0-.1A1.31,1.31,0,0,0,173.3,70.6Zm-1,.81v.06l.15,0v-.06Zm.16-.5a.24.24,0,0,0,.14,0s0,0-.09,0l-.18,0A.21.21,0,0,1,172.49,70.91Zm.15,2.17a.5.5,0,0,0-.24,0l0,0,.07.08a.17.17,0,0,0,.11,0A.32.32,0,0,0,172.64,73.08Zm.12-.16s-.09,0-.18,0l-.17,0,.15.07a.22.22,0,0,1,.16.06A.18.18,0,0,1,172.76,72.92Zm0-.77a.2.2,0,0,0-.19-.09v.12Zm-.19-5.34h.21v0l-.21,0Zm.78,2.07q-.17,0-.21-.06c.1-.07.12-.13.05-.18a.27.27,0,0,1-.08-.14c0,.09,0,.16-.15.17l-.17,0c-.09,0-.15,0-.17.06a.66.66,0,0,1,.24,0,.37.37,0,0,0,.13.07C173.08,68.89,173.15,69,173.34,68.88Zm0,2.8h-.15a.25.25,0,0,1-.15,0,.31.31,0,0,1,0-.22.79.79,0,0,1-.19.09.72.72,0,0,0-.25.1l0,.17.34,0C173.22,71.74,173.33,71.69,173.39,71.68Zm-.34.3a.5.5,0,0,0-.15,0,.25.25,0,0,0-.15,0l.17.12C173,72,173,72,173,72S173,72,173.05,72Zm0,.68c-.1,0-.13-.1-.14-.16a.08.08,0,0,0-.05.1s0,.06,0,.09Zm0,.59-.14,0v.08l.14,0Zm.11-5.5-.25,0a.23.23,0,0,0,.29.16c.06,0,.09,0,.09,0h.05A.6.6,0,0,0,173.16,67.75Zm-.25-.76c0,.06.05.11.08.11l.17-.06s0,0,0-.05v-.06a.17.17,0,0,0-.11,0Zm.17,2.64a0,0,0,0,1,0,0l0,0-.07.08Zm.24-1.4a1.15,1.15,0,0,1-.08-.14s0,0-.13-.06-.1.1-.13.11,0,.06,0,.09l.06,0v0l.14,0C173.24,68.27,173.3,68.26,173.32,68.23Zm-.11,1.14-.2,0v0l.2,0Zm-.15-2.58.4-.07v0l-.4.06Zm.28.84s0,0,0-.06l0,0h-.21C173.19,67.6,173.22,67.62,173.34,67.63Zm.22-2h-.3l0,.07s0,0,0,.06a.63.63,0,0,1,.23-.07A.6.6,0,0,1,173.56,65.67Zm-.09,3.63-.17,0s0,.06,0,.09a.11.11,0,0,1,0,0s0,0,0,0a.11.11,0,0,1,0-.07Zm-.16-2.23.18,0C173.39,67,173.33,67,173.31,67.07Zm.48,1.47c-.21,0-.27,0-.21,0-.12,0-.33,0-.07.1a.19.19,0,0,0,.18,0S173.74,68.6,173.79,68.54Zm-.38,2v.08h.06v-.08Zm.23-2.92-.14,0v0l.14,0Zm0,1.07a.13.13,0,0,0,0,.06.11.11,0,0,0,0,.07h.06l0,0C173.77,68.78,173.67,68.71,173.64,68.71Z"/><path class="cls-1" d="M188.58,64.4l0,.08h0a26.66,26.66,0,0,1,.09,3.13l-.1-.08c-.07,0-.1-.07-.1-.1l-.26,0a.15.15,0,0,0,0,.1v0a.25.25,0,0,1,.15,0l.17,0c0,.06.07.08.16.09l-.06.87-.18,0v0l.17,0a1.52,1.52,0,0,1-.07.49c0,.09-.11,0-.1.07l.09,0a12.56,12.56,0,0,1-.62,2.35h0l-.15.17.07.08-.31.61a6.35,6.35,0,0,1-4.81,3.55,5.49,5.49,0,0,1-5-1.58V74.3h-.06a1.12,1.12,0,0,1-.18-.21,8.54,8.54,0,0,1-1.67-2.75l0-.06s0-.06,0-.09a.14.14,0,0,0-.1-.08v.06a13.43,13.43,0,0,1-.5-1.84,2.2,2.2,0,0,0,.06-.9l0-.12,0-.18a.5.5,0,0,1-.07-.19l0-.21s0-.08,0-.11l-.09-.57a.74.74,0,0,1,0-.21.57.57,0,0,0-.1-.25s0-.06-.07-.08c0-.26,0-.59,0-.88,0-3,.44-6.54,2.71-8.78a6,6,0,0,1,8.89.74,13.42,13.42,0,0,1,2.15,6.79Zm-13.35,1a.25.25,0,0,0-.06-.14c-.07.1-.12.17-.11.22s0,0,.07,0a.1.1,0,0,1,.09,0A.41.41,0,0,1,175.23,65.37Zm0,.36h-.06l0,.11h.06Zm.41,3.78-.12,0s-.05,0,0,.07,0,.05.07.08l.12,0a.13.13,0,0,1,0-.1C175.68,69.56,175.64,69.54,175.61,69.51Zm0-.91h-.06l.12.72h.06Zm.89.72-.15,0v0h.15Zm.55.11H177s-.06,0-.12,0-.19.27-.18.33a.35.35,0,0,0,.08.16l.26,0,.08-.1Zm-.34.68a.44.44,0,0,0,.14.1l0-.24-.08.08S176.68,70.08,176.68,70.11Zm.07.4a.09.09,0,0,1,.1,0s0,.08,0,.11,0,.12,0,.11a.19.19,0,0,1,.11,0v-.09c-.1,0-.16-.09-.14-.16s0-.11-.11-.13,0,0,0,0a.12.12,0,0,0,0,.06S176.72,70.52,176.75,70.51Zm.1.58a.8.8,0,0,0,.23.38l-.07.07a0,0,0,0,0,0,0l.07,0s.08,0,.11,0l-.06-.34a1.32,1.32,0,0,0,0-.32l-.12,0a.07.07,0,0,0,0,.06s0,0,0,0A.1.1,0,0,0,176.85,71.09Zm.26.88,0,.11s0-.06,0-.07.06,0,.05-.06Zm.52,1.54a.25.25,0,0,0,0-.11s0-.05,0-.08h-.09s-.06,0-.09,0a.2.2,0,0,1,.13-.08,3,3,0,0,0,0-.62c-.15,0-.21-.05-.22-.08l0-.15a.19.19,0,0,0-.05-.11l.06.53a.24.24,0,0,1,.15,0c-.21.18-.18.15-.16.32a.42.42,0,0,0,.06.14.53.53,0,0,1,.09.23.39.39,0,0,1,.16,0c-.06,0-.08.07-.11.08a.07.07,0,0,0,0,.06l0,0a0,0,0,0,0,0,0S177.64,73.57,177.63,73.51Zm0,.27-.06,0h-.12s0,0-.05,0l0,.18.08,0s0,0,.06,0,0,0,.08,0Zm.85-6.22-.07-.08c0,.07,0,.09.08.14S178.52,67.56,178.49,67.56Zm.15-10.51c.11,0,.17,0,.2,0a0,0,0,0,1,0,0s0,0,0,0a.13.13,0,0,0,.09,0,.17.17,0,0,0,.1-.07,0,0,0,0,0,0,0,.11.11,0,0,0,0-.05ZM179,68.57s0,.1,0,.09Zm.6-11.57.14,0,.13-.14-.29,0Zm.24,3.82-.2,0,.08.14a.43.43,0,0,0,.16-.09A.19.19,0,0,0,179.85,60.82ZM180,57l-.18,0v0h0v0a.24.24,0,0,0,.23.11c.06,0,.08,0,.11-.08S180,57.11,180,57Zm.72,15.67c0-.11-.2-.17-.23-.17s0-.09,0-.2l-.15,0c-.3.17-.6.33-.52.62a.38.38,0,0,1,.25.08s.06,0,.1,0a.31.31,0,0,0,.18.06A.44.44,0,0,0,180.75,72.7Zm3.12-6.52s.08,0,.08-.05a.16.16,0,0,1,0-.12.61.61,0,0,0-.19,0,33,33,0,0,0-.47-3.81,11.26,11.26,0,0,0-.49-1.72h0l0,0,.17,0a.17.17,0,0,0-.08-.14c-.08.05-.13.09-.15.15a2.84,2.84,0,0,0-.35-.66.93.93,0,0,0-1.23-.48c-.88.41-1.15,2-1.22,2.84a24,24,0,0,0,.32,6.5c.13.78.46,2.26,1.28,2.6a.84.84,0,0,0,.43,0c1,0,1.39-.88,1.54-1.79a14.56,14.56,0,0,0,.17-3.32s0,0,.06,0A0,0,0,0,0,183.87,66.18ZM181.53,74s0,0,0,0l-.1.07s.06,0,.15,0Zm0-17.31.2,0V56.6l-.21,0Zm.38,0c.09,0,.16,0,.17.12s.11.1.28.07.08,0,0-.07,0-.08,0-.15a1.1,1.1,0,0,0,.28-.08c.06,0,.09,0,.08-.07a.1.1,0,0,0,0-.09.37.37,0,0,1,.16-.09c.06,0,.11,0,.15-.14s-.06,0-.12,0a.31.31,0,0,1-.18,0s0,.06,0,.12a.1.1,0,0,1,0,.09s-.06,0-.1.11a.28.28,0,0,1-.16.11l-.09,0s0,0-.05,0-.21,0-.19-.08l0-.09A.51.51,0,0,0,181.92,56.66Zm.12-.38a.2.2,0,0,0,.19.09c.06,0,.17-.06.26-.07l.19-.09-.07-.05v0c-.06,0-.09,0-.12,0l-.12,0a.82.82,0,0,1-.27,0C182.05,56.19,182,56.22,182,56.28Zm2,16.77L184,73l-.2,0a1.08,1.08,0,0,0-.48.32l.53,0a.19.19,0,0,1,.11-.07.25.25,0,0,0,.13-.09Zm-.61-16.59.15,0v-.06l-.15,0ZM184,62l.1-.08,0-.26a.49.49,0,0,0-.3,0s0,0,0,.07a.09.09,0,0,1,0,.09l-.11.1s-.1.08-.1.11a.27.27,0,0,0,.14.1l.23,0A.27.27,0,0,1,184,62Zm0,12.16-.09,0-.09,0a.22.22,0,0,0-.18.15.58.58,0,0,0,.28.07l.1-.08Zm-.07-.62s-.06,0-.06,0h-.09c-.11,0-.13.11-.12.14s0,.08,0,.08,0,0,0,0a.25.25,0,0,0,.11,0l.12,0Zm-.19-9.71v0h.18a.37.37,0,0,0,.18,0,.06.06,0,0,0,0,0v-.06a.32.32,0,0,0-.24-.05C183.76,63.73,183.68,63.78,183.69,63.81Zm.08.52v.08s0,0,.07,0,0,0,.06,0,.05-.07.13-.11l.13-.11-.08-.16A2,2,0,0,0,183.77,64.33Zm.07.4c0,.13,0,.18,0,.2a.11.11,0,0,1,0,0,.1.1,0,0,0,.06,0A.22.22,0,0,0,183.84,64.73Zm.34,1a.41.41,0,0,0,.12,0,4.11,4.11,0,0,0,.55-.27l-.37-.11a.48.48,0,0,1-.16-.07l-.16-.06-.1.08a.4.4,0,0,1,0,.18l0,.23A.28.28,0,0,1,184.18,65.77Zm0,1.33a.71.71,0,0,0,.15.15.33.33,0,0,0,.24,0,.31.31,0,0,0,.22-.12l0-.12a1.2,1.2,0,0,1-.38,0,.71.71,0,0,1-.33,0l0,.14A.41.41,0,0,0,184.22,67.1Zm0,.42h0s0,0,0,.06,0,0,0,0,.05-.06.1-.1A.15.15,0,0,1,184.2,67.52Zm.08.66a1.27,1.27,0,0,1,.5-.2c.06,0,.09,0,.12,0l.12,0a1,1,0,0,0,.38-.18v-.08l0,0-.32,0a.75.75,0,0,1-.24,0h-.12a.22.22,0,0,0-.16.09.66.66,0,0,0-.15.14.16.16,0,0,0-.13,0l0-.11A.42.42,0,0,0,184.28,68.18Zm0-1.66-.08.1a1.79,1.79,0,0,0,.42-.19h-.06s-.06,0-.12,0A.37.37,0,0,0,184.31,66.52Zm.54-.65c0-.06,0-.09,0-.08s0,0-.06,0-.33,0-.41.21a.23.23,0,0,0,.25.08S184.87,66,184.85,65.87Zm-.45-3.69h0a.09.09,0,0,1,.09,0s0,0-.07-.05l-.1,0Zm.13,6.79a.13.13,0,0,0-.06,0s-.06,0-.07,0,0,.07,0,.1S184.48,69,184.53,69Zm0-5.27a.25.25,0,0,0-.11,0s.06,0,.09,0h.09v0l0,0S184.56,63.69,184.5,63.7Zm.33,1.28a.25.25,0,0,1-.19-.2c0-.07,0-.12-.12-.19s0,0-.05,0a.14.14,0,0,1-.08,0s0,0,0,.09a.27.27,0,0,0,0,.12.6.6,0,0,0,.11.1.46.46,0,0,0,.26.13A.23.23,0,0,0,184.83,65Zm.08-.93H185l0-.15-.08,0Zm.18,4.39v-.06l-.18,0v0ZM185,66.82l.09.17a.14.14,0,0,0,.06-.13A.3.3,0,0,0,185,66.82Zm1.17,5a1.36,1.36,0,0,0-.42-.17,1.68,1.68,0,0,1-.3,0,.09.09,0,0,1-.07-.1l-.07,0-.06,0h-.06c-.12,0-.17,0-.16.14a.35.35,0,0,1,0,.21.16.16,0,0,0,.09,0,.1.1,0,0,0,.1,0s.07,0,.08.11v0a1.88,1.88,0,0,0,.46.11A1.53,1.53,0,0,0,186.15,71.79Zm-1.08-5.69,0,.14.2-.06A.42.42,0,0,0,185.07,66.1Zm0-1.87.2,0a.48.48,0,0,0-.1-.22c0,.06,0,.09,0,.13S185.08,64.2,185.09,64.23Zm0,4.44a.21.21,0,0,0,.26,0l-.07-.1a.36.36,0,0,1-.11.1A.15.15,0,0,0,185.13,68.67Zm.05-3.86c.07,0,.09,0,.06,0a.56.56,0,0,0-.05-.08.2.2,0,0,0,0,.09Zm.1,5.46s-.07,0-.07,0l0,.15a.12.12,0,0,0,.09-.14Zm.35,3.24-.12,0a.1.1,0,0,0-.09.13.06.06,0,0,0,.06,0l.07.05s.08-.05.17-.06S185.72,73.52,185.63,73.51Zm.09-7.58-.17,0c0,.09,0,.15.12.19l.14,0c0-.05,0-.11,0-.11A.56.56,0,0,1,185.72,65.93Zm.06,7.08.1-.11s-.08-.13-.08-.16a1.49,1.49,0,0,0-.13.11c-.06,0-.08,0-.08.07a.08.08,0,0,0,.07,0A.12.12,0,0,1,185.78,73Zm1-3.6,0-.23a.32.32,0,0,0-.16,0s0,.06,0,.06,0,0-.05.07a.15.15,0,0,1-.11.08l-.18,0v-.09c.11,0,.19-.09.18-.12l0-.11-.17,0a1.88,1.88,0,0,0-.36.14l0,.21c0,.08.05.11.06.16l.17,0a1.43,1.43,0,0,0,.42-.19A.32.32,0,0,0,186.74,69.41Zm0-.53s0,0,0-.09,0-.08-.1-.1-.1,0-.1-.07a.22.22,0,0,1,.06-.16.22.22,0,0,0,.06-.16c0-.06-.19-.29-.19-.26l-.32,0,.07,0,0,.17a.75.75,0,0,1,0,.21.25.25,0,0,1-.12-.16s-.07,0-.19-.06a.46.46,0,0,0,0,.36.63.63,0,0,0,.27,0,.84.84,0,0,1,.27,0,.43.43,0,0,0,0,.3.65.65,0,0,0,.31,0A0,0,0,0,1,186.71,68.88Zm-.54.86a1.7,1.7,0,0,0-.32-.12l0,.11.1,0Zm-.3-2s0,0,0,0,0,0,0,0l.26,0a.17.17,0,0,0,.12,0c.06,0,.08-.1.06-.22a1.35,1.35,0,0,0-.27,0C186,67.58,185.84,67.57,185.87,67.72Zm.13-.26c.11,0,.14-.08.13-.14s-.1,0-.21,0Zm-.08-1.06c0,.06,0,.09.07.08h.09a.19.19,0,0,0,0-.18s0-.09.15-.17c0,0,0,0,0,0h0s0,0,0,0A.65.65,0,0,0,185.92,66.4Zm.08,7-.08.08.1.07A.15.15,0,0,0,186,73.41Zm0-6.48a.13.13,0,0,0,0,.06c0,.06.05.08.14.1a.58.58,0,0,1,.12-.14.33.33,0,0,0-.22-.08S186,66.92,186,66.93Zm.23-.45,0,.11c.12,0,.15,0,.15,0l0-.07v0S186.31,66.46,186.2,66.48Zm0-1.76a1.19,1.19,0,0,1,.22-.06.15.15,0,0,1,.19.08l-.14.2a.64.64,0,0,0,.41,0c-.13-.07-.17-.12-.08-.17a.55.55,0,0,1,.12-.14,5.59,5.59,0,0,0-.63-.07l-.05.07C186.26,64.69,186.23,64.69,186.24,64.72Zm.08.73h.06l.05-.07-.06,0Zm.06-1.11a.22.22,0,0,1,.22.09c.07-.11.06-.16,0-.21a.15.15,0,0,1-.11.08A.17.17,0,0,0,186.38,64.34Zm.28,7a.13.13,0,0,0,.11,0h.09l-.08-.14a1.44,1.44,0,0,0-.33.18A.3.3,0,0,0,186.66,71.32Zm0-5.22V66l-.23,0v.06Zm-.18.35c0,.06,0,.09.07.08s.08-.07.07-.1Zm.48,4.93h0s-.09,0-.09,0a.13.13,0,0,0-.09,0c-.06,0-.11,0-.14,0s0,0-.05,0h-.06s.06.05.1.07l.07.08,0,.09s0,0,0,.06l.23,0a.26.26,0,0,0,.07-.25ZM186.7,67v-.09l-.09,0V67Zm.74,0c0-.1.06-.13.06-.16a.58.58,0,0,1-.3.16.33.33,0,0,1-.15,0l-.16-.06s0,0,0,.07-.05,0-.08,0l0,.14a1.28,1.28,0,0,1,.29,0,.5.5,0,0,0,.21,0A.16.16,0,0,0,187.44,67Zm-.38.62a.27.27,0,0,1,.16,0,.33.33,0,0,0,0-.15.25.25,0,0,1-.05-.11.08.08,0,0,1,.05-.07h-.06s0,0,0,0,0,.18-.15.17a.41.41,0,0,0-.24.13s0,0,.09,0A.45.45,0,0,0,187.06,67.61Zm.41-2.59h-.06s0,0-.09,0-.06,0,0,0h-.09c-.08,0-.13.08-.12.14s.11,0,.13-.08.07.05,0,.05v.06l-.43.28a.63.63,0,0,0,.07.25c.05.11.13,0,.16,0l.11,0a.29.29,0,0,1,.15,0,.8.8,0,0,1,.23.11l-.08.07s0,0,0,0h-.06a.21.21,0,0,0-.16.09l-.14.08-.14,0a.28.28,0,0,1,.11.13s0,.08.11.13a.13.13,0,0,0,.13.1.51.51,0,0,0,.29-.05c-.09,0-.12-.19-.12-.19h-.06c-.11,0-.17,0-.18,0v0l.19-.09a1.34,1.34,0,0,0,.17,0c.05,0,.11,0,.13-.11l.13-.11c-.12,0-.15,0-.19-.06l0-.12h-.06s0,0,0,0a.1.1,0,0,1,0-.09l.08-.07s-.06,0-.13-.07-.1,0-.1-.07.1-.11.24-.13a.76.76,0,0,1-.13-.07s-.06,0-.07-.08l.15,0a.56.56,0,0,0,.35,0,.1.1,0,0,1,0-.09.11.11,0,0,0,0-.09c0-.09-.26-.11-.32-.1a.29.29,0,0,1,0,.15A.14.14,0,0,1,187.47,65ZM187,68l-.12-.16a.11.11,0,0,0-.07-.1.81.81,0,0,0,.08.31.09.09,0,0,1,.08,0Zm.09-2s0-.06,0-.11l-.2,0v.12Zm-.22-1.74c0,.06,0,.06,0,.08l.07,0a.22.22,0,0,0,0-.15Zm.14,4.13,0-.15-.08,0,0,.14Zm-.11.07.09.17c.08,0,.1-.08.09-.14a.1.1,0,0,1-.09,0Zm.06.35a.13.13,0,0,0,.06,0l.1,0c0-.09.09-.13.16-.11s.15,0,.26,0a.08.08,0,0,1,0-.06l0,0A2.26,2.26,0,0,1,187,68.84Zm.17,2h-.06l0,.09.06,0Zm-.1-3,.29,0s.06,0,.06,0a0,0,0,0,1,0-.06c-.08,0-.17,0-.2,0l-.18,0Zm0-2.94c0,.06,0,.08.1.1l.15,0a.24.24,0,0,0,0-.1c.06,0,0,0,0-.09A.41.41,0,0,0,187.07,64.91Zm1.15,3.25c-.06,0-.12,0-.19-.09a.4.4,0,0,0-.16-.06c-.06,0-.06,0-.05,0h0a.66.66,0,0,1-.37,0,2.54,2.54,0,0,0,.25-.1,1.07,1.07,0,0,1,.17-.06c0,.06,0,.11,0,.14l.12,0s.09,0,.08,0l0,0,0-.08c-.06,0-.15,0-.19-.06a.14.14,0,0,1-.15-.07c.1-.1.17-.17.23-.18a.82.82,0,0,0-.23-.14.55.55,0,0,0-.35,0l.29.16a.16.16,0,0,1-.07.07c0,.06-.11.07-.13.11s0,.18-.24.36l0,.1a1.35,1.35,0,0,0,.35,0l.36,0,0,.09a.29.29,0,0,1-.14,0c.05,0,0,0-.11.08a.39.39,0,0,0,.27,0l.05-.1A1.88,1.88,0,0,0,188.22,68.16Zm-1,.81V69l.14,0V69Zm.15-.5a.24.24,0,0,0,.14,0s0,0-.09,0l-.17,0A.28.28,0,0,1,187.41,68.47Zm.15,2.17a.5.5,0,0,0-.24,0,.06.06,0,0,1,0,0l.07.08a.21.21,0,0,0,.12,0A.62.62,0,0,0,187.56,70.64Zm.12-.17s-.09,0-.18,0l-.17,0,.16.06a.34.34,0,0,1,.16.07A.27.27,0,0,1,187.68,70.47Zm0-.77s-.1-.1-.19-.08v.12Zm-.19-5.33h.21v0l-.21,0Zm.78,2.07c-.11,0-.17,0-.21-.06s.12-.14.06-.19a.15.15,0,0,1-.08-.13c0,.09,0,.15-.15.17l-.18,0c-.08,0-.14,0-.17.06a.5.5,0,0,1,.24,0,.5.5,0,0,0,.13.07C188,66.45,188.07,66.53,188.26,66.44Zm.05,2.8c-.06,0-.12,0-.15,0s-.12,0-.15,0a.34.34,0,0,1,.05-.21.79.79,0,0,1-.19.09.63.63,0,0,0-.25.1l0,.17.35-.06A3.2,3.2,0,0,0,188.31,69.24Zm-.34.3a.5.5,0,0,0-.15,0,.25.25,0,0,0-.15,0l.17.12c0-.07,0-.07.08-.08S187.94,69.54,188,69.54Zm0,.67a.2.2,0,0,1-.14-.15s0,0,0,.1,0,.06,0,.09Zm0,.6-.14,0v.09l.15,0Zm.11-5.5-.24,0a.23.23,0,0,0,.29.16c.06,0,.08,0,.08,0h.06A.38.38,0,0,0,188.08,65.31Zm-.24-.76c0,.06,0,.11.07.11l.17-.06s0,0,0-.06v-.05a.22.22,0,0,0-.11.05Zm.16,2.64s0,0,0,0l0,0-.08.07Zm.25-1.4a.42.42,0,0,1-.08-.14s0-.05-.13-.07-.11.11-.13.11a.19.19,0,0,0,0,.1l.07,0v0l.14,0C188.17,65.83,188.22,65.82,188.25,65.79Zm-.11,1.14-.2,0V67l.2,0ZM188,64.35l.41-.07v-.06l-.41.07Zm.29.84a.13.13,0,0,0,0-.06l0,0h-.21C188.11,65.16,188.15,65.18,188.27,65.19Zm.21-2h-.3l-.05.07s0,0,0,.06a.69.69,0,0,1,.23-.07A.24.24,0,0,1,188.48,63.23Zm-.09,3.63-.17,0a.05.05,0,0,0,0,.08s0,0,0,.06a0,0,0,0,1,0,0s0,0,0-.06Zm-.15-2.23.17,0C188.31,64.53,188.25,64.54,188.24,64.63Zm.47,1.47c-.2,0-.27,0-.21,0-.11,0-.33,0-.07.1a.22.22,0,0,0,.18,0S188.66,66.16,188.71,66.1Zm-.38,2,0,.09h.05V68.1Zm.24-2.91-.15,0v.06l.15,0Zm0,1.07a.13.13,0,0,0,0,.06.07.07,0,0,0,0,.06h.06l0,0C188.69,66.34,188.59,66.26,188.56,66.27Z"/><path class="cls-1" d="M191.3,73.91l-2-18a.58.58,0,0,1,.38-.62l2.77-1.16a14.16,14.16,0,0,1,4.25-1,5.81,5.81,0,0,1,5.58,3.33,14.71,14.71,0,0,1,1.25,7.65,12.72,12.72,0,0,1-2.7,6.84,7.81,7.81,0,0,1-4,2.61,19.53,19.53,0,0,1-1.92.43l-3,.49A.56.56,0,0,1,191.3,73.91Zm-.47-12.28,0-.2c0-.15,0-.47-.07-.79a1.12,1.12,0,0,0,0-.29,5,5,0,0,0,0-.63c0-.1-.13-.25-.2-.36l.09,2.6s0-.07.06,0,.05,0,.05,0S190.81,61.69,190.83,61.63Zm0-6.2.07,0,0,0-.1,0Zm.71,9a1.23,1.23,0,0,0-.39-.18l0,.24.18,0A.17.17,0,0,0,191.59,64.47Zm-.26,4.22v0s0,0,0,0v0C191.17,68.63,191.27,68.7,191.33,68.69ZM192,55.63a.44.44,0,0,0-.31-.09.09.09,0,0,1-.06,0h-.05v0s0,.06,0,0v.06A2.25,2.25,0,0,0,192,55.63Zm.11,15.51h.15l0,0-.18,0Zm.72.8a1.09,1.09,0,0,0-.08-.16.18.18,0,0,1-.06-.17l-.26,0a1,1,0,0,1-.24,0,.14.14,0,0,1,.05.09.17.17,0,0,0,0,.08,1.08,1.08,0,0,1,.14.33.55.55,0,0,0,.18.21.48.48,0,0,1,.14-.26C192.77,72,192.82,72,192.81,71.94Zm0,1-.18,0a.24.24,0,0,0-.14,0s-.08,0-.14,0,.16.06.25.05.11,0,.13-.05S192.82,72.92,192.85,72.92Zm.36-1.78c0-.15-.24-.2-.29-.19s-.23.1-.21.21v.06s0,0,0,0,.23-.07.31-.08ZM193.59,55l-.18,0c0,.13-.06.16,0,.25s.15.06.24.05v-.09S193.61,55.1,193.59,55Zm.56,11.77a.2.2,0,0,0-.14-.13l-.17,0c-.05.07-.05.1,0,.09s.05.08.05.11,0,0,.11,0A.41.41,0,0,1,194.15,66.72Zm.19-8.1,0,.53h0a.7.7,0,0,1-.3.29,1.48,1.48,0,0,1,.27.43c0,.06.07.08.14.1l.67,6.85-.23,0c-.1.1-.17.18-.17.21l0,.14a.56.56,0,0,0,.09.19.3.3,0,0,0,.32.13h0l.14,1.2a4.1,4.1,0,0,0,2.92-2.94,13.59,13.59,0,0,0,.45-2,12.57,12.57,0,0,0,.06-2.18c0,.06.07.08.1.08a.17.17,0,0,0,.16.06c.09,0,.28-.08.26-.25s-.14-.13-.41-.14a.4.4,0,0,0-.09.16,6.79,6.79,0,0,0-.92-2.9c-.5-.87-1.21-.84-2.19-.5C195.17,58.31,194.73,58.47,194.34,58.62Zm.36,11.83c0-.1,0-.15-.14-.13l0,.12A.27.27,0,0,0,194.7,70.45Zm.56-14.53.32,0,0-.24-.32.05Zm1.83-1.3c0-.06,0-.09-.05-.11a.19.19,0,0,1,0-.11l-.2,0c-.06,0-.08.07-.06.16a.25.25,0,0,0,.12.19C197,54.69,197.09,54.65,197.09,54.62Zm.07-.49v-.06s0,0,0,0V54a.38.38,0,0,1-.12,0,.07.07,0,0,0-.06,0,.57.57,0,0,0-.17.23H197Zm.45,17.8c0-.06,0-.08-.07-.08a.11.11,0,0,0,0,0s-.06,0-.09,0h.09A.27.27,0,0,0,197.61,71.93Zm.93-13.49a.18.18,0,0,0-.19.06.38.38,0,0,0,.18,0s.06,0,.05-.07S198.57,58.44,198.54,58.44Zm.6,2,0-.23a.19.19,0,0,0,0-.06s-.06,0-.06,0a.26.26,0,0,1-.19.12.18.18,0,0,1-.13,0c.07.08.11.13.09.2s.1.07.29.1Zm.18-1.66-.07,0-.17,0c-.09,0-.14.05-.13.14a0,0,0,0,1,0,0l0,0,.17,0S199.24,58.89,199.32,58.82Zm-.25-1.53,0-.12H199l0,.12Zm.83,4-.25-.08a.15.15,0,0,0,0-.08s0-.08-.08-.13a.32.32,0,0,0-.32-.13h-.06a0,0,0,0,1,0,0c0,.06.07,0,.13.07s0,0,0,0a.13.13,0,0,1,0,.1s0,0,0,.06.2.32.38.29.08,0,.11-.05h.08C199.89,61.39,199.91,61.36,199.9,61.3Zm.07-2.47s0-.06-.07,0-.12,0-.12,0l-.07-.05s0,0-.07-.07l-.12,0a.15.15,0,0,0-.1.07s0,.06-.07.1c.21,0,.33.07.36.24S200,59,200,58.83Zm-.24,7.06a.21.21,0,0,0-.14,0V66c.06,0,.06,0,.11-.07A0,0,0,0,0,199.73,65.89Zm.24-3.24s0,0,0,0l-.14,0-.05.07s0,0,.06,0,0,0,.09,0S200,62.71,200,62.65Zm.13-2.48a.13.13,0,0,0-.09,0,.17.17,0,0,0-.12,0c-.08.07-.1.13-.09.16s.08.13.19.06l.09-.14S200.11,60.2,200.1,60.17Zm.38-3.14a.58.58,0,0,1,0-.11l0-.15a1.21,1.21,0,0,1-.42.16c-.06,0-.08.1-.13.14l0,.12c0,.18.2.15.29.13S200.51,57.2,200.48,57Zm-.5,8.73,0,.07s0,0,.07,0S200,65.82,200,65.76Zm.32-3.49,0-.11s-.07,0-.07-.08a.26.26,0,0,0-.12,0l-.11,0a.28.28,0,0,0,.05.17.11.11,0,0,0,0,.05l.15,0Zm0,2.4-.13-.07s0,0-.08,0,0,0-.05,0v.06l.07.08A.55.55,0,0,0,200.33,64.67Zm.26-6.77a.21.21,0,0,0-.18,0l-.11.08s.06,0,.07,0l.07.08Zm-.19,3.94h-.09v0l.06,0Zm.21,1.24s0-.06,0,0,0,0-.06,0l-.18,0a.25.25,0,0,0,.12.16h.06l0,0h0l0,0h0Zm-.09-.7-.08,0s-.05,0-.05,0,.1.1.14.12A.18.18,0,0,0,200.52,62.38Zm.36,2.7s-.1,0-.2-.08-.2-.15-.16-.1a.39.39,0,0,0-.08.25c0,.06.15.16.22.09A.26.26,0,0,1,200.88,65.08Zm-.31-3.47.17-.06v-.09s0-.06,0-.09a.74.74,0,0,0-.22.1c0,.05,0,.05,0,.08A.09.09,0,0,0,200.57,61.61Zm.08,2.8.29,0s0-.06,0,0a.11.11,0,0,0,0,0c-.06,0-.09,0-.12,0v0s0,0,0,0-.07-.07-.16-.09,0,0-.06,0,0,.06,0,.06a.1.1,0,0,0,0,.09s0,.06.07.08ZM201,63v-.09a.09.09,0,0,1-.1-.07l-.07-.08-.12,0a.19.19,0,0,0-.07.13.25.25,0,0,1,0,.15s.23,0,.31,0Zm0-4.6c-.07,0-.09,0-.1-.1a.24.24,0,0,0-.16.15.11.11,0,0,0,.14.09A.58.58,0,0,0,201,58.42Zm0,.48,0-.12c0-.05-.07-.07-.08-.1a.17.17,0,0,0-.06.16S200.87,58.92,201,58.9Zm.45,7.1v-.09l-.08-.08s-.06,0-.09,0l-.23,0c-.06,0-.08.07-.07.13s.09.16.26.13A1,1,0,0,0,201.44,66Zm-.12-6.15,0-.14s-.09,0-.18,0-.11,0-.1.1,0,0,.07.08a.42.42,0,0,0,.15,0Zm.25,4s0,0-.07,0-.06,0-.06,0a3.57,3.57,0,0,1-.18-.59h0s-.06,0-.06,0h0s-.09,0-.11.05,0,.11.08.13a.12.12,0,0,1,0,.09s0,0,0,.12,0,0,0,.06l.06.38c0,.09.08.11.24.17l.08,0a.31.31,0,0,1,0-.18A.33.33,0,0,0,201.57,63.87Zm0,.6,0-.17h-.06l0,.17Zm.11-.76c-.06,0-.08,0-.11,0l.07.05v0l0,0A0,0,0,0,1,201.66,63.71Zm.35-.41c0-.06-.12-.16-.32-.13h-.06s0,0,0,0l0,.21a.29.29,0,0,0,.15,0,.26.26,0,0,1,.12-.05C202,63.36,202,63.33,202,63.3Zm-.11,3.51,0-.11-.17,0v0s0,0,0,.07Zm0-6.58v-.09a.16.16,0,0,0-.12,0h0l0,0C201.8,60.22,201.87,60.27,201.92,60.23Zm.44,2.3c0-.06-.05-.08-.11-.07l0,.06S202.27,62.54,202.36,62.53Z"/><path class="cls-1" d="M170.9,101l-4.39.51a.53.53,0,0,1-.64-.45l-.7-3.51-4.29,1.38-.32,2.75a.57.57,0,0,1-.53.5l-4.31.42a.61.61,0,0,1-.64-.7c.34-2.33.77-4.74,1.2-7.09.33-1.74.74-3.47,1.19-5.17.62-2.31,1.29-4.63,2-6.91a.66.66,0,0,1,.4-.4c.62-.19,1.25-.41,1.91-.58a6.52,6.52,0,0,1,1.68-.22,2.86,2.86,0,0,1,2.47,1.74c.3.61.59,1.31.84,1.93.09.23.65,1.75,1.07,3.12l3.6,11.91A.59.59,0,0,1,170.9,101Zm-13-3.2v.06l.1,0C158.08,97.84,158,97.82,157.92,97.8Zm.81,1.38.2-.08V99s-.07,0-.1,0a.27.27,0,0,1-.12-.07.48.48,0,0,1-.44.32s.14.22.29.2.06,0,.08-.07S158.68,99.25,158.73,99.18Zm-.07.89s-.16-.1-.22-.09a.15.15,0,0,0-.13.13s.09,0,.18,0Zm-.18-1.3.21.06.06,0,0-.15c0-.06-.07-.08-.18-.07s0,0-.06,0a0,0,0,0,0,0,0Zm.14-10.88s.16.3.21.29a1,1,0,0,0-.05-.46C158.8,87.66,158.62,87.83,158.62,87.89Zm.51,12.16a.14.14,0,0,0-.13-.13c-.11.07-.17.1-.16.13l.18.1C159.07,100.08,159.1,100.05,159.13,100.05Zm-.28-11.45,0,.32.12,0,0-.35Zm.43,9.49a.3.3,0,0,0,0,.15s0,0,.06,0,0,0,0,0S159.35,98.14,159.28,98.09Zm1.08-.6a4037234952774,4037234952774,0,0,0-.16-.34,1.61,1.61,0,0,0-.36-.1.26.26,0,0,0-.26.27.39.39,0,0,0,.41.24.07.07,0,0,0,.08,0Zm-.45,2.14-.07,0s-.06,0-.05,0h-.06a.33.33,0,0,1-.12,0c.07,0,.1,0,.13.07a.22.22,0,0,1,.12,0C159.92,99.72,159.91,99.69,159.91,99.63Zm0-6.74h-.11a.93.93,0,0,0,0,.27.17.17,0,0,0,.11.16.5.5,0,0,0,.06-.24Zm.17-9.71h.11l0-.18-.11,0Zm.22,1.15s-.06,0-.06,0l0,.38a.86.86,0,0,1,.11-.37Zm1.14,6.73a1,1,0,0,0,.27-.44.75.75,0,0,0,0-.24c0-.09.09-.28.22-.65l-.15,0a.44.44,0,0,0-.13.14c-.05.06-.11.13-.14.13a5.29,5.29,0,0,1-.08.54c0,.12-.06.21-.09.22a.14.14,0,0,1-.08.12.77.77,0,0,0-.06.22c0-.07-.06.27-.13.66s-.07.42-.07.42a1,1,0,0,1-.2.49,1,1,0,0,0-.2.56.44.44,0,0,0,0,.27,1.13,1.13,0,0,1-.13.42,1.86,1.86,0,0,0-.1.37c0,.12,0,.2.08.2a.14.14,0,0,0,.14,0s0-.07.08-.1a1.78,1.78,0,0,0,.12-.51,1,1,0,0,1,.15-.49c0-.06,0-.15.14-.28l.08-.34c0,.06.19-.87.32-1.3Zm-.52,5.63-.32,0v.14l.32,0Zm-.08-8.77s0,0,0,0,.09,0,.11,0l-.15,0s0,0,0,.06ZM164,93.33,163.63,92c-.11-.45-.22-.91-.36-1.37s-.38-1.19-.6-1.78l-.87,4.84Zm-2-4.77c.12.25.21.27.43.13l.06-.25a.11.11,0,0,0,0,0s0-.06-.07-.08A.39.39,0,0,0,161.94,88.56Zm.11-3.08.06,0,0-.09h0Zm.06,3.56-.06.24.07,0,.06-.24Zm.31-3.42.05.14.14,0s.06,0,.12,0a.27.27,0,0,0-.08-.17c-.09,0-.11,0-.11,0Zm1.1-1.66.1.07a.39.39,0,0,0,0-.23c-.09,0-.14,0-.15,0Zm.19-.44h.09l0-.23h-.09Zm.09.49.06.08v0l-.07-.11Zm.36-.13h-.32V84s0,0,0,.08H164s0-.06.07-.13S164.13,83.89,164.16,83.88ZM164,94.74l-.15,0v0H164Zm.11,2,0-.06-.09,0,0,.06Zm.11-5.17.17,0s0,0-.07-.08a.31.31,0,0,1-.12,0Zm0-7.19.07,0,.38,0s.05,0,.1-.07-.15-.07-.16-.16l.05-.09a.65.65,0,0,1-.26.08C164.35,84.19,164.29,84.25,164.25,84.4Zm.3,7.86-.23,0v0l.23,0Zm-.22-7.16a.27.27,0,0,0,.16,0s.09,0,.15,0,.05-.06.05-.09,0,0,0-.06a.48.48,0,0,0-.27-.06C164.38,85,164.32,85,164.33,85.1Zm.33,9.88a.42.42,0,0,0-.19.12l.12,0,.06,0S164.67,95,164.66,95Zm.09-4.57-.15,0A.08.08,0,0,0,164.75,90.41Zm0-1.5.09,0,.06,0-.07,0Zm.07,5.64h.09v-.06h-.09Zm.05-8.6s-.05,0,0,.09,0,0,.06.08l.18,0c.05,0,.1-.1.1-.13a.13.13,0,0,0-.16-.13C165,85.9,165,85.91,164.9,86Zm0,8h-.09l0,.12H165Zm.11-.87H165l0,.09.06,0Zm0,.36,0,.06C165.05,93.47,165.07,93.44,165,93.41Zm0-1.92a.18.18,0,0,0-.07.19l.18,0c-.08.06-.1.12,0,.2l.26,0v-.09h0C165.41,91.57,165.29,91.5,165.08,91.49ZM165,92.73l.1.14a.41.41,0,0,1,.17-.05,1.1,1.1,0,0,0,.21,0,.26.26,0,0,0,.19-.17l-.44,0A.79.79,0,0,0,165,92.73Zm.22,3.69h-.08v.11h.09Zm.14-6.44v0a0,0,0,0,1,0,0h-.2V90Zm.09,3.35a.77.77,0,0,0-.18,0l0,.07s0,0,0,.06l.21,0s0-.06,0-.06S165.48,93.39,165.47,93.33Zm.1-1,0-.06-.2,0v.11l.16.1v0s0,0,.05,0h.06C165.6,92.43,165.57,92.41,165.57,92.38Zm-.16-4.4V88l.21,0V88Zm.08,7.26a.9.9,0,0,0,.3.05c.1-.1.18-.19.17-.25s0-.06-.1-.11-.09,0-.09,0l-.15.19A1,1,0,0,1,165.49,95.24Zm.12,1.34.3,0v-.09l-.41.05C165.58,96.53,165.61,96.55,165.61,96.58Zm0-4.33.17,0v-.15s-.06,0-.09,0a.08.08,0,0,0-.09,0,.18.18,0,0,0-.13.19C165.55,92.23,165.61,92.22,165.64,92.25Zm-.1,2,0,.15h.12l0-.15Zm.06-5.86a.13.13,0,0,0,0,.09l0,0,.18,0C165.78,88.38,165.71,88.33,165.6,88.34Zm.33,9.41-.2,0v.11l.2,0Zm-.11-6.23s0,.06.09,0l.05-.09s-.06,0-.18,0S165.79,91.5,165.82,91.52Zm.17-1.34v-.06l-.18,0v.06Zm.45,3.86a.21.21,0,0,1-.08-.17.4.4,0,0,1-.08-.16.59.59,0,0,0-.48-.09s.06,0,.09,0,.16.1.24.24l0,.17Zm-.54-1.58h-.06l.1.34a.79.79,0,0,0,.08-.3l-.09,0S165.9,92.48,165.9,92.46Zm0,3.41c0,.11.08.16.21.21l0-.23Zm.41,2.48-.18-.07c-.09,0-.12,0-.16,0l.06.2Zm-.15-6.87c.08,0,.17,0,.16-.08s-.06-.05-.06-.05h-.06a.08.08,0,0,0-.05.07Zm.59.52-.29,0c-.32.28-.3.21-.29.3s.11.19.32.46l.4,0a.48.48,0,0,1,.12,0,.26.26,0,0,0-.22-.12c-.09,0-.18,0-.31-.14.11,0,.19-.08.21-.14a.66.66,0,0,1,.16-.2C166.85,92,166.82,92,166.79,92Zm-.56-.2a.47.47,0,0,0,.47-.09.33.33,0,0,0-.25-.08l-.23,0Zm0-.53c.12,0,.14,0,.13-.13Zm.09,6.79.17,0c0-.09-.07-.08-.19-.1Zm0-2.3v.06l.15,0v0Zm.34-2.16s0,0-.1-.1a.12.12,0,0,1-.08,0s0,0,0,0l.18,0Zm-.16,5.68.32,0c0-.06-.07-.11-.14-.16a.49.49,0,0,1-.13.1Zm.79,1.26a.71.71,0,0,1-.12-.28l-.29,0a1.32,1.32,0,0,0,.37.34.07.07,0,0,0,0-.06S167.26,100.54,167.28,100.54Zm-.17-3-.2,0s0,.09,0,.08.06.05.09.08,0,0,.05-.09S167.11,97.55,167.11,97.53Zm0-1.59c0,.06.12.25.29.23s.15,0,.17,0,.06,0,.17-.05a.07.07,0,0,0-.09,0l-.13-.07s0-.11-.06-.26c0,.09,0,.12-.13.13Zm2.42,4.1c-.09-.28-.14-.51-.19-.68s-.11-.4-.2-.69a.67.67,0,0,1-.14-.13c0-.08-.07-.11-.07-.14s0-.12.12-.22c-.18-.06-.28-.14-.26-.23a.61.61,0,0,0-.13-.6.34.34,0,0,1-.11-.2c0-.06,0-.12.07-.12s0-.18-.1-.37l-.18.19a2.17,2.17,0,0,1-.19.17l-.09,0,0-.3c0-.11.07-.15.25-.17l.12.07,0-.23a1.59,1.59,0,0,0-.46-.09c-.17,0-.53.2-.51.38,0,0,0,0,.07.08s0,0,.12.07c-.05.07,0,.13,0,.21a.27.27,0,0,1,.12.07c.06,0,.07.05.07.05a.27.27,0,0,1-.2.08c-.17,0-.25.09-.24.18s0,.18,0,.21.21,0,.19.07,0,.06,0,.06,0,0,0,0,0,.06,0,.09,0,.1,0,.13l0,.26c.12,0,.66.16.36.34a1.42,1.42,0,0,0,.35,0,.24.24,0,0,0,.14,0l.18,0,0,.41h0v0h0l.1.08s0,.06.1.08a.06.06,0,0,0,.06,0s.07,0,.1.08,0,.14.06.25a.37.37,0,0,0,.23.21s0,.06,0,.09v.06c0,.09.24.3.32.29A.16.16,0,0,0,169.52,100ZM167.46,94l.18,0v0h-.18Zm.87,2.17.12,0v-.06l-.11,0Z"/><path class="cls-1" d="M184.94,88.85a8.63,8.63,0,0,1-.63,1.37.59.59,0,0,0,0-.36,1.09,1.09,0,0,0-.07-.35,1.18,1.18,0,0,1-.06-.28c0-.09,0-.15,0-.15h0a.83.83,0,0,0-.06-.29.54.54,0,0,1,.08-.33c-.12,0-.16-.07-.13-.13s0-.12-.05-.15l.24,2A5.5,5.5,0,0,1,182.74,92h0a14.26,14.26,0,0,1-3,1.59,11.5,11.5,0,0,1-1.33.48c-.08,0-.17,0-.25.09l-.23,0h0c0-.06,0-.06-.07-.06s-.14,0-.13.11,0,0,0,0l-.89.22.43,5.2a.51.51,0,0,1-.51.65l-3.57.41a.58.58,0,0,1-.66-.54L172.41,98l.06,0a.83.83,0,0,0,.27-.21l-.09,0-.15,0-.1.1-.13-1.55h.09a.06.06,0,0,0-.06,0l0,0-1-13.82a.54.54,0,0,1,.4-.58c4.54-1.5,5.22-1.72,5.91-1.89a6.63,6.63,0,0,0,.77-.18l.78-.12h0c3.16-.23,5.13,1.81,5.83,4.76A8,8,0,0,1,184.94,88.85Zm-12.63-3.06h.05v-.14h-.06Zm0,10.12.1.08a.26.26,0,0,0,.16-.11C172.5,95.81,172.33,95.83,172.34,95.91Zm0-.5.17,0V95.3l-.17,0Zm.29.76a.46.46,0,0,0-.29,0l.16.07s.08,0,.08,0S172.67,96.2,172.66,96.17Zm-.25-12.54h.06v-.09h-.06Zm.15,13.44h-.14v.09l.14,0Zm.08-.6c-.09,0-.16-.1-.17-.16a.13.13,0,0,0,0,.09.15.15,0,0,1,0,.09Zm-.08,1.86,0,0-.08,0v0Zm.52-5.15.15,0a.11.11,0,0,0,0,0,.29.29,0,0,1-.1-.08v.09A.07.07,0,0,0,173.08,93.18Zm.39,1.07c0,.15-.06.27-.07.39s-.06.27-.05.36,0,.06,0,.08.07.06,0,.09a.12.12,0,0,0-.07.18q.07.18,0,.24s0,0,0,.06a0,0,0,0,0,0,0c-.05,0-.05.07,0,.1a.08.08,0,0,0,0,.08s.07,0,0,.12a.11.11,0,0,1-.06,0h0c.06.08.1.13.08.22a.69.69,0,0,0,0,.45c0,.08,0,.14,0,.15a1,1,0,0,0,0,.64.24.24,0,0,0-.11.13.71.71,0,0,0-.09.16v.08a4.11,4.11,0,0,1,0,.56,5.53,5.53,0,0,0,0,.56.38.38,0,0,1,0,.15.21.21,0,0,0,0,.12,1.85,1.85,0,0,0,.27.8,1.32,1.32,0,0,0,.41,0,2.72,2.72,0,0,1,.39,0Zm-.22-2.89s0,.06.07.11l.05-.09a.11.11,0,0,0,0-.09h-.15Zm.26.44a.45.45,0,0,0,.2,0,.52.52,0,0,1,.2-.08,1.84,1.84,0,0,1-.16-.1c-.06,0-.1,0-.16,0a.3.3,0,0,0-.16.08c-.05.06-.11.1-.13.13s.12,0,.09.05A.17.17,0,0,0,173.51,91.8Zm0,.54-.11-.23h-.06l.11.22Zm0,0h-.06l-.08.1.07,0Zm0,1.51h-.06l0,.17h.06Zm.47-2.5a.34.34,0,0,0-.16-.13.15.15,0,0,1-.1-.11.29.29,0,0,1-.16.11s0,0-.06,0a.68.68,0,0,1,.34.11Zm.12,2,0-.06-.17.08v.06Zm.29-1.06-.18,0,0,.14.17,0Zm1,4,0,.1a.63.63,0,0,0,.08.22Zm0,.41,0,.3a.12.12,0,0,0,0,.09s0,.06,0,.06.07.14,0,.14a0,0,0,0,0-.05,0c0,.17,0,.17.16.36Zm2.56-7.34a6.09,6.09,0,0,0,2-1.32,2.2,2.2,0,0,0,.59-1.31c0-1.15-.68-2.8-2-2.39l-2.24.74.25,4.68A12.76,12.76,0,0,0,177.91,89.4Zm-1.09,10.85,0-.08h-.06l0,.09ZM177.6,91l0-.14h-.09l0,.14Zm.14,2.72-.18,0,0,.12.17,0Zm.15-.72-.19-.13s-.13.17-.12.22l.15.08Zm.33-1-.26-.15,0,.21Zm.85-.51c.06,0,.12,0,.21,0v.15l.18,0,.08,0a.62.62,0,0,0-.27-.09s0-.06,0-.09,0,0-.06-.08S179.06,91.45,179.07,91.51Zm.27.58.24,0,.44,0V92l0,0s0,0,0-.06h0l0,0-.11,0-.12,0-.08-.23A.73.73,0,0,0,179.34,92.09Zm.37.58c.07-.13.12-.19.11-.25a.15.15,0,0,0,0-.11s-.06,0-.1-.08,0,0-.05,0h0a0,0,0,0,0,0,0l0,0,0,.29A.22.22,0,0,1,179.71,92.67Zm.09-1.25-.21,0c.07.11.14.19.23.2A.18.18,0,0,0,179.8,91.42Zm.28,1.65A.17.17,0,0,0,180,93a.15.15,0,0,0-.13.14Zm0-.27h.06s0-.06,0-.12v-.08c-.15,0-.23,0-.22.14S180,92.81,180.1,92.8Zm0-.76a.26.26,0,0,0,0,.23h.12s0,0,.05,0S180.17,92.09,180.07,92Zm.25-.65s0,0,0,0v0a0,0,0,0,1,0,0l-.16.14Zm0,1.44c-.08,0-.13.08-.12.17l.14,0C180.35,92.92,180.35,92.86,180.31,92.83Zm.31-2.39-.24,0s0,0,0,.07h0c-.05,0-.05.06,0,.09s0,.09,0,.09h0a.28.28,0,0,0,.16,0,.18.18,0,0,0,.16-.11Zm-.32-.28v0l.18,0v0Zm.09-5.52c.07.08.15,0,.14,0a.1.1,0,0,1,.06,0l-.21,0S180.36,84.64,180.39,84.64Zm.28,7.71-.23.09v.08l.23-.08Zm.1-2.16.26-.06c0-.09-.13-.13-.22-.12Zm.35-1.57a.63.63,0,0,0-.35-.2Zm0-1.28a.25.25,0,0,0,.1-.21.24.24,0,0,1-.15,0l-.11.1c0,.06-.07.09,0,.12ZM181,87l.2,0a.15.15,0,0,0,0-.11s0,0-.06,0H181Zm.2,3.72-.13,0,0,.15h.12Zm0-6h.08v-.09l-.08,0Zm.11.7,0,.34a.38.38,0,0,0,.22-.11A.35.35,0,0,0,181.31,85.45Zm.48,2.12c-.13-.08-.19-.1-.19-.13s-.15,0-.17,0l-.06,0A1.27,1.27,0,0,0,181.79,87.57Zm0-1.47a.3.3,0,0,0-.07-.14.58.58,0,0,1-.11.1,0,0,0,0,0,0,0h0a.52.52,0,0,0-.16.14l.3,0C181.75,86.19,181.8,86.12,181.79,86.1Zm-.1,1.63-.13-.11-.11.08.19.09Zm.08,1.93-.29,0v.06l.29,0Zm0-2.59-.23,0,0,.15C181.66,87.23,181.74,87.16,181.73,87.07Zm.31-2.95-.12,0v.06l.11,0Zm.15,2.31c-.07-.11-.11-.19-.14-.19l-.06,0-.06,0a.11.11,0,0,0,.13.1Zm1.89.81a.53.53,0,0,0-.15-.25.1.1,0,0,0,0,.12c0,.06,0,.09,0,.12l-.2,0c0,.06,0,.09,0,.1a.54.54,0,0,0,.18,0,.29.29,0,0,0,.15,0s0,0,.05-.07A.15.15,0,0,0,184.08,87.24Zm0,.21H184l.07.67h.09Z"/><path class="cls-1" d="M200.4,87.05a8.21,8.21,0,0,1-.64,1.37.6.6,0,0,0,.05-.36,1.36,1.36,0,0,0-.07-.35,1.15,1.15,0,0,1-.06-.29c0-.08,0-.14,0-.15h0a.78.78,0,0,0-.06-.29.45.45,0,0,1,.07-.33c-.12,0-.15-.07-.13-.14s0-.11,0-.14l.23,2a5.58,5.58,0,0,1-1.56,1.74h0a13.84,13.84,0,0,1-3,1.58,8.2,8.2,0,0,1-1.32.48l-.26.09c-.09,0-.14,0-.23.06h0c0-.06,0-.05-.06-.05s-.14.05-.14.1,0,0,0,0l-.89.22.43,5.19a.51.51,0,0,1-.52.65l-3.57.42a.57.57,0,0,1-.65-.54l-.14-2.2.07.06a1,1,0,0,0,.27-.21l-.1-.05L188,96l-.11.1-.12-1.55h.09a.08.08,0,0,0-.07,0l0,0-1-13.81a.53.53,0,0,1,.4-.58c4.54-1.5,5.22-1.73,5.9-1.9.26-.06.52-.09.78-.17l.78-.12h0c3.15-.22,5.13,1.82,5.82,4.77A7.89,7.89,0,0,1,200.4,87.05ZM187.76,84h.06l0-.15h-.06Zm0,10.12.1.08a.25.25,0,0,0,.17-.11C188,94,187.78,94,187.79,94.11Zm0-.5.18,0V93.5l-.18,0Zm.3.76a.53.53,0,0,0-.29,0l.15.07a.2.2,0,0,1,.09,0A.06.06,0,0,0,188.12,94.37Zm-.26-12.55h.06v-.09h-.06ZM188,95.26l-.15,0v.09l.15,0Zm.07-.59c-.09,0-.15-.1-.16-.16a.1.1,0,0,0,0,.09s0,.06,0,.09ZM188,96.53l0,0-.09,0v0Zm.52-5.16h.14a.09.09,0,0,0,0-.06c-.07,0-.07,0-.1-.07v.08S188.53,91.35,188.54,91.37Zm.39,1.08c0,.15-.06.27-.08.39a3.25,3.25,0,0,0,0,.36.07.07,0,0,0,0,.08s.06,0,0,.09-.11.13-.07.18a.35.35,0,0,1,0,.23s0,0-.06.07,0,0,0,0-.05.06-.05.09a.12.12,0,0,0,0,.09s.07,0,0,.12,0,0-.05,0h0c.07.08.11.13.09.22s-.08.36,0,.44,0,.15,0,.15a1,1,0,0,0,0,.65.2.2,0,0,0-.1.12.6.6,0,0,0-.1.16v.09a3,3,0,0,1,0,.56,3.7,3.7,0,0,0,0,.56.26.26,0,0,1,0,.15s-.05.09,0,.12.1.67.27.79a1.3,1.3,0,0,0,.41,0,2.76,2.76,0,0,1,.38,0Zm-.22-2.89s0,0,.07.11l.05-.1a.1.1,0,0,0,0-.09l-.14,0ZM189,90a.58.58,0,0,0,.2,0,1,1,0,0,1,.2-.09,1.65,1.65,0,0,1-.16-.09.3.3,0,0,0-.15,0,.65.65,0,0,0-.17.08c0,.07-.1.1-.13.14s.12,0,.09,0A.21.21,0,0,0,189,90Zm0,.53-.12-.22h0l.11.22Zm0,.06h-.05l-.08.09.06,0Zm0,1.51h0l0,.18h.05Zm.48-2.5a.33.33,0,0,0-.16-.13.13.13,0,0,1-.1-.11.42.42,0,0,1-.17.11s0,0-.05,0a.61.61,0,0,1,.33.1Zm.11,2,0-.06-.17.08v.06Zm.29-1.07-.17,0v.15l.18,0Zm1,4,0,.09a.48.48,0,0,0,.09.23Zm.05.41,0,.29a.27.27,0,0,0,0,.1,0,0,0,0,1,0,.06c.07.11.08.14,0,.14s-.06,0-.06,0a.52.52,0,0,0,.16.37Zm2.56-7.34a6.36,6.36,0,0,0,2-1.32A2.19,2.19,0,0,0,196,85c.05-1.15-.68-2.81-2-2.39l-2.24.73L192,88A12.76,12.76,0,0,0,193.37,87.6Zm-1.09,10.85,0-.09h-.06l0,.08Zm.77-9.25v-.15H193v.15Zm.14,2.72-.17,0v.12l.18,0Zm.15-.72-.19-.13s-.13.16-.12.22l.16.07Zm.33-1-.25-.15,0,.2Zm.85-.52a1.28,1.28,0,0,0,.21,0l0,.15.17,0a.3.3,0,0,0,.09,0,.46.46,0,0,0-.28-.09s0-.06,0-.09,0-.06-.07-.08A.2.2,0,0,0,194.52,89.7Zm.28.59.23,0,.45,0v-.06l0,0a.11.11,0,0,1,0-.06h0l0,0-.12,0h-.11L195,90A.7.7,0,0,0,194.8,90.29Zm.36.58c.07-.13.13-.2.12-.25a.27.27,0,0,0,0-.12s-.07,0-.1-.07,0,0-.06,0h0s0,0,0,0a.09.09,0,0,0-.06,0l0,.29A.23.23,0,0,1,195.16,90.87Zm.09-1.25-.2,0a.41.41,0,0,0,.23.21A.17.17,0,0,0,195.25,89.62Zm.28,1.65a.15.15,0,0,0-.1-.11c-.09,0-.14.07-.13.13Zm0-.27h.06s0-.06,0-.12v-.09c-.14,0-.23.06-.22.15S195.47,91,195.56,91Zm0-.77a.23.23,0,0,0,0,.24h.11s0,0,.06,0S195.62,90.28,195.53,90.23Zm.25-.64s0,0,0,0V89.5a0,0,0,0,1,0,0l-.17.13Zm0,1.44c-.09,0-.14.08-.13.16h.15A.15.15,0,0,0,195.77,91Zm.31-2.39-.24,0s-.06,0-.05.06h0a.07.07,0,0,0,0,.09c0,.06,0,.09,0,.08h0a.22.22,0,0,0,.32-.07Zm-.33-.29v.06l.17,0v-.06Zm.09-5.51c.07.08.16,0,.15,0a.11.11,0,0,1,0,0l-.21,0S195.81,82.84,195.84,82.84Zm.28,7.71-.22.08v.09l.22-.08Zm.11-2.16.25-.06c0-.09-.13-.13-.22-.12Zm.34-1.57a.61.61,0,0,0-.34-.2Zm.06-1.28a.29.29,0,0,0,.09-.22c-.06,0-.11,0-.15,0l-.1.1c-.05.07-.08.1-.05.13Zm-.19-.33.21,0s0-.09-.05-.12,0,0-.06,0h-.11Zm.2,3.72-.12-.05,0,.15.12,0Zm0-6h.09v-.09h-.09Zm.11.69,0,.35a.56.56,0,0,0,.22-.11C197,83.82,197,83.71,196.76,83.64Zm.48,2.12c-.12-.07-.18-.09-.19-.12a.31.31,0,0,0-.17,0l0,0A1,1,0,0,0,197.24,85.76Zm0-1.47a.42.42,0,0,0-.08-.14.38.38,0,0,1-.1.1,0,0,0,0,0,0,0h0a.67.67,0,0,0-.16.14l.3,0C197.2,84.38,197.25,84.32,197.25,84.29Zm-.1,1.63-.13-.1-.11.07.18.1Zm.07,1.94-.29,0V88l.29,0Zm0-2.59-.24,0,0,.14C197.12,85.43,197.2,85.36,197.19,85.27Zm.3-3h-.12v.06h.12Zm.15,2.31c-.07-.11-.11-.19-.14-.19l-.06,0-.05,0a.11.11,0,0,0,.13.11Zm1.89.81a.42.42,0,0,0-.14-.25.09.09,0,0,0,0,.12.13.13,0,0,1,0,.12l-.2,0s0,.09-.05.09.09,0,.18,0a.42.42,0,0,0,.15,0s0,0,0-.06A.08.08,0,0,0,199.53,85.44Zm0,.21h-.09l.08.67h.09Z"/><rect class="cls-2" x="0.5" y="0.5" width="352.14" height="175.78" rx="5.33"/><line class="cls-3" x1="6.96" y1="6.38" x2="118.15" y2="69.39"/><line class="cls-3" x1="8.74" y1="170.08" x2="120.85" y2="111.28"/><line class="cls-3" x1="6.96" y1="6.38" x2="125.2" y2="73.07"/><line class="cls-2" x1="8.74" y1="170.08" x2="127.92" y2="112.17"/><line class="cls-2" x1="6.96" y1="6.38" x2="118.15" y2="69.39"/><line class="cls-2" x1="343.85" y1="9.41" x2="234.52" y2="73.07"/><line class="cls-2" x1="346.52" y1="168.08" x2="234.52" y2="105.74"/></g></g></svg>