<svg width="58" height="58" viewBox="0 0 58 58" fill="none" xmlns="http://www.w3.org/2000/svg">
<path d="M47.125 12.6875H10.875C8.87297 12.6875 7.25 14.3105 7.25 16.3125V41.6875C7.25 43.6895 8.87297 45.3125 10.875 45.3125H47.125C49.127 45.3125 50.75 43.6895 50.75 41.6875V16.3125C50.75 14.3105 49.127 12.6875 47.125 12.6875Z" stroke="white" stroke-width="2" stroke-linecap="round" stroke-linejoin="round"/>
<path d="M7.25 27.1875H20.1188C20.5362 27.1852 20.9413 27.3289 21.264 27.5936C21.5867 27.8584 21.8067 28.2277 21.8859 28.6375C22.2321 30.2677 23.1275 31.7295 24.4225 32.7784C25.7175 33.8273 27.3335 34.3996 29 34.3996C30.6665 34.3996 32.2825 33.8273 33.5775 32.7784C34.8725 31.7295 35.7679 30.2677 36.1141 28.6375C36.1933 28.2277 36.4133 27.8584 36.736 27.5936C37.0587 27.3289 37.4638 27.1852 37.8812 27.1875H50.75" stroke="white" stroke-width="2" stroke-linecap="round" stroke-linejoin="round"/>
<path d="M7.25 19.9375H50.75" stroke="white" stroke-width="2" stroke-linecap="round" stroke-linejoin="round"/>
</svg>
