<svg width="58" height="58" viewBox="0 0 58 58" fill="none" xmlns="http://www.w3.org/2000/svg">
<path d="M29 36.25C34.0051 36.25 38.0625 32.1926 38.0625 27.1875C38.0625 22.1824 34.0051 18.125 29 18.125C23.9949 18.125 19.9375 22.1824 19.9375 27.1875C19.9375 32.1926 23.9949 36.25 29 36.25Z" stroke="white" stroke-width="2" stroke-miterlimit="10"/>
<path d="M14.4541 45.1766C15.8178 42.4905 17.8987 40.2345 20.466 38.6586C23.0334 37.0828 25.987 36.2486 28.9994 36.2486C32.0118 36.2486 34.9654 37.0828 37.5328 38.6586C40.1002 40.2345 42.181 42.4905 43.5447 45.1766" stroke="white" stroke-width="2" stroke-linecap="round" stroke-linejoin="round"/>
<path d="M45.3125 16.3125C47.3145 16.3125 48.9375 14.6895 48.9375 12.6875C48.9375 10.6855 47.3145 9.0625 45.3125 9.0625C43.3105 9.0625 41.6875 10.6855 41.6875 12.6875C41.6875 14.6895 43.3105 16.3125 45.3125 16.3125Z" stroke="white" stroke-width="2" stroke-linecap="round" stroke-linejoin="round"/>
<path d="M45.3125 9.0625V6.34375" stroke="white" stroke-width="2" stroke-linecap="round" stroke-linejoin="round"/>
<path d="M42.1627 10.875L39.8291 9.51562" stroke="white" stroke-width="2" stroke-linecap="round" stroke-linejoin="round"/>
<path d="M42.1627 14.5L39.8291 15.8594" stroke="white" stroke-width="2" stroke-linecap="round" stroke-linejoin="round"/>
<path d="M45.3125 16.3125V19.0312" stroke="white" stroke-width="2" stroke-linecap="round" stroke-linejoin="round"/>
<path d="M48.4609 14.5L50.7945 15.8594" stroke="white" stroke-width="2" stroke-linecap="round" stroke-linejoin="round"/>
<path d="M48.4609 10.875L50.7945 9.51562" stroke="white" stroke-width="2" stroke-linecap="round" stroke-linejoin="round"/>
<path d="M50.5914 26.3945C50.7013 27.2586 50.7543 28.129 50.75 29C50.75 33.3018 49.4744 37.5069 47.0845 41.0837C44.6946 44.6604 41.2977 47.4482 37.3234 49.0944C33.3491 50.7406 28.9759 51.1713 24.7568 50.3321C20.5377 49.4929 16.6622 47.4214 13.6204 44.3796C10.5786 41.3378 8.50716 37.4623 7.66793 33.2432C6.8287 29.0241 7.25942 24.6509 8.90563 20.6766C10.5518 16.7024 13.3396 13.3055 16.9164 10.9155C20.4931 8.52563 24.6983 7.25001 29 7.25001C29.6733 7.24576 30.3463 7.27601 31.0164 7.34064" stroke="white" stroke-width="2" stroke-linecap="round" stroke-linejoin="round"/>
</svg>
