<svg width="69" height="62" viewBox="0 0 69 62" fill="none" xmlns="http://www.w3.org/2000/svg">
<path d="M66.6997 18.5968H65.3853C65.7807 17.3151 65.456 15.9408 64.5152 14.914C63.5745 13.8872 62.1357 13.3369 60.66 13.4395C59.7289 10.1342 56.621 7.68997 52.8515 7.29854C51.4817 5.13754 49.1087 3.63975 46.3817 3.21488C44.7815 1.35051 42.3717 0.188512 39.758 0.020961C37.1444 -0.14659 34.5754 0.696236 32.6968 2.3376C30.5252 1.58855 28.0734 2.41852 26.9917 4.26886C23.1581 3.6284 19.2915 5.22912 17.3422 8.26365C13.1127 8.2352 9.40322 10.7941 8.3412 14.4728C7.07343 14.4006 5.82888 14.8027 4.90255 15.5838C3.97623 16.3649 3.45061 17.4554 3.45029 18.5968H2.30031C1.03006 18.5968 0.000327859 19.5221 0.000327859 20.6634V22.73C0.000327859 23.8714 1.03006 24.7967 2.30031 24.7967H2.3923L4.60028 48.6063V51.7662C1.7081 52.2966 -0.26724 54.7087 0.0294447 57.3476C0.326129 59.9865 2.79845 61.9949 5.75027 61.9949C8.70209 61.9949 11.1744 59.9865 11.4711 57.3476C11.7678 54.7087 9.79244 52.2966 6.90026 51.7662V49.5962H13.0895L14.4361 52.0162C15.0171 53.0691 16.2137 53.7336 17.5216 53.7295H51.4784C52.7863 53.7336 53.9829 53.0691 54.5639 52.0162L55.9105 49.5962H62.0997V51.7662C59.2076 52.2966 57.2322 54.7087 57.5289 57.3476C57.8256 59.9865 60.2979 61.9949 63.2497 61.9949C66.2015 61.9949 68.6739 59.9865 68.9706 57.3476C69.2672 54.7087 67.2919 52.2966 64.3997 51.7662V48.6001L66.6077 24.7967H66.6997C67.9699 24.7967 68.9997 23.8714 68.9997 22.73V20.6634C68.9997 19.5221 67.9699 18.5968 66.6997 18.5968V18.5968ZM8.85524 16.6697C9.18673 16.7815 9.55707 16.7499 9.8592 16.584C10.1613 16.4181 10.3616 16.1364 10.402 15.8203C10.7981 12.6914 13.7455 10.3285 17.2502 10.3303C17.4721 10.3303 17.6906 10.3416 17.9068 10.3602C18.3911 10.4047 18.8533 10.1676 19.0568 9.77022C20.5182 6.96328 24.0618 5.55703 27.3551 6.47705C27.6601 6.56237 27.9907 6.52989 28.268 6.38741C28.5452 6.24492 28.744 6.00526 28.8168 5.72583C28.9845 5.06726 29.5015 4.52473 30.1999 4.2745C30.8983 4.02426 31.689 4.09825 32.315 4.47242C32.8019 4.75972 33.451 4.6745 33.8261 4.27403C35.2127 2.7906 37.2918 1.97555 39.4451 2.0713C41.5985 2.16705 43.5779 3.16257 44.7947 4.76175C44.9841 5.00965 45.2843 5.17111 45.6169 5.20401C47.9938 5.45045 50.0614 6.78028 51.0874 8.72244C51.2692 9.06839 51.6488 9.29579 52.0741 9.3135C55.4575 9.4394 58.2318 11.7659 58.6049 14.7901C58.6453 15.1061 58.8456 15.3879 59.1477 15.5538C59.4498 15.7197 59.8202 15.7513 60.1517 15.6394C60.8549 15.3896 61.6505 15.4716 62.2726 15.858C62.8947 16.2443 63.2612 16.8841 63.2497 17.5635C63.2487 17.9265 63.1412 18.2829 62.9381 18.5968H5.74991C5.73665 17.9152 6.10361 17.2728 6.72783 16.8853C7.35204 16.4979 8.15065 16.4169 8.85524 16.6697V16.6697ZM35.65 47.5296V24.7967H49.4016L48.347 47.5296H35.65ZM33.35 47.5296H20.653L19.5984 24.7967H33.35V47.5296ZM17.2973 24.7967L18.3519 47.5296H6.80826L4.70033 24.7967H17.2973ZM9.20024 56.8294C9.20751 58.4075 7.89422 59.7386 6.14974 59.9213C4.40527 60.104 2.78645 59.08 2.38958 57.5427C1.9927 56.0055 2.94445 54.4456 4.60028 53.9196V56.8294C4.60028 57.4001 5.11515 57.8627 5.75027 57.8627C6.38539 57.8627 6.90026 57.4001 6.90026 56.8294V53.9196C8.27375 54.3559 9.1942 55.5204 9.20024 56.8294ZM52.5065 51.0914C52.3131 51.4424 51.9144 51.6641 51.4784 51.6628H17.5216C17.0856 51.6641 16.6869 51.4424 16.4935 51.0914L15.6609 49.5962H53.3391L52.5065 51.0914ZM66.6997 56.8294C66.707 58.4075 65.3937 59.7386 63.6492 59.9213C61.9047 60.104 60.2859 59.08 59.889 57.5427C59.4921 56.0055 60.4439 54.4456 62.0997 53.9196V56.8294C62.0997 57.4001 62.6146 57.8627 63.2497 57.8627C63.8848 57.8627 64.3997 57.4001 64.3997 56.8294V53.9196C65.7732 54.3559 66.6937 55.5204 66.6997 56.8294ZM62.1917 47.5296H50.6481L51.7027 24.7967H64.3008L62.1917 47.5296ZM2.30031 22.73V20.6634H66.6997V22.73H2.30031Z" fill="#34B175"/>
<path d="M41.4 10.3303C42.0351 10.3303 42.55 9.86765 42.55 9.29697C42.55 8.72629 42.0351 8.26366 41.4 8.26366C40.7649 8.26366 40.25 8.72629 40.25 9.29697C40.25 9.86765 40.7649 10.3303 41.4 10.3303Z" fill="#34B175"/>
<path d="M20.7002 15.4968C21.3353 15.4968 21.8501 15.0342 21.8501 14.4635C21.8501 13.8929 21.3353 13.4302 20.7002 13.4302C20.065 13.4302 19.5502 13.8929 19.5502 14.4635C19.5502 15.0342 20.065 15.4968 20.7002 15.4968Z" fill="#34B175"/>
<path d="M26.45 11.3636C27.0852 11.3636 27.6 10.901 27.6 10.3303C27.6 9.7596 27.0852 9.29697 26.45 9.29697C25.8149 9.29697 25.3 9.7596 25.3 10.3303C25.3 10.901 25.8149 11.3636 26.45 11.3636Z" fill="#34B175"/>
<path d="M33.3499 16.5302C33.9851 16.5302 34.4999 16.0675 34.4999 15.4968C34.4999 14.9262 33.9851 14.4635 33.3499 14.4635C32.7148 14.4635 32.2 14.9262 32.2 15.4968C32.2 16.0675 32.7148 16.5302 33.3499 16.5302Z" fill="#34B175"/>
<path d="M33.3499 10.3303C33.9851 10.3303 34.4999 9.86765 34.4999 9.29697C34.4999 8.72629 33.9851 8.26366 33.3499 8.26366C32.7148 8.26366 32.2 8.72629 32.2 9.29697C32.2 9.86765 32.7148 10.3303 33.3499 10.3303Z" fill="#34B175"/>
<path d="M44.8499 16.5302C45.4851 16.5302 45.9999 16.0675 45.9999 15.4968C45.9999 14.9262 45.4851 14.4635 44.8499 14.4635C44.2148 14.4635 43.7 14.9262 43.7 15.4968C43.7 16.0675 44.2148 16.5302 44.8499 16.5302Z" fill="#34B175"/>
<path d="M50.5998 14.4635C51.2349 14.4635 51.7498 14.0009 51.7498 13.4302C51.7498 12.8595 51.2349 12.3969 50.5998 12.3969C49.9647 12.3969 49.4498 12.8595 49.4498 13.4302C49.4498 14.0009 49.9647 14.4635 50.5998 14.4635Z" fill="#34B175"/>
<path d="M4.93728 8.9942C5.38635 9.39759 6.1143 9.39759 6.56337 8.9942L7.71336 7.96089C8.14917 7.55544 8.14294 6.91095 7.69935 6.51237C7.25576 6.11378 6.5385 6.10818 6.08727 6.49978L5.75032 6.80254L5.41338 6.49978C4.96215 6.10818 4.24489 6.11378 3.8013 6.51237C3.35771 6.91095 3.35148 7.55544 3.78729 7.96089L4.93728 8.9942Z" fill="#34B175"/>
<path d="M11.8372 3.82764C12.2863 4.23102 13.0142 4.23102 13.4633 3.82764L14.6133 2.79432C15.0491 2.38887 15.0428 1.74439 14.5992 1.3458C14.1557 0.947219 13.4384 0.941618 12.9872 1.33322L12.6502 1.63598L12.3133 1.33322C11.862 0.941618 11.1448 0.947219 10.7012 1.3458C10.2576 1.74439 10.2514 2.38887 10.6872 2.79432L11.8372 3.82764Z" fill="#34B175"/>
<path d="M58.9867 6.92758C59.4358 7.33097 60.1637 7.33097 60.6128 6.92758L61.7628 5.89427C62.0617 5.63483 62.1816 5.25064 62.0764 4.88936C61.9712 4.52808 61.6572 4.24594 61.2551 4.15138C60.853 4.05681 60.4254 4.16454 60.1367 4.43316L59.7998 4.73592L59.4628 4.43316C59.0116 4.04156 58.2943 4.04716 57.8507 4.44575C57.4071 4.84433 57.4009 5.48882 57.8367 5.89427L58.9867 6.92758Z" fill="#34B175"/>
</svg>
