<svg width="84" height="55" viewBox="0 0 84 55" fill="none" xmlns="http://www.w3.org/2000/svg">
<path d="M30.5184 47.0808H23.4769C23.1609 47.0808 22.8578 46.9553 22.6344 46.7319C22.4109 46.5084 22.2854 46.2054 22.2854 45.8894C22.2854 45.5734 22.4109 45.2703 22.6344 45.0469C22.8578 44.8234 23.1609 44.6979 23.4769 44.6979H29.327V29.8892H10.4863C8.83988 29.8856 7.23093 30.3804 5.87098 31.3084C4.51104 32.2365 3.46377 33.5543 2.86686 35.0887C2.5274 36.0344 2.36386 37.0342 2.38432 38.0388V43.7304C2.38621 43.9885 2.49038 44.2353 2.67398 44.4167C2.85759 44.598 3.10563 44.6992 3.36371 44.6979H9.37228C9.68827 44.6979 9.99133 44.8234 10.2148 45.0469C10.4382 45.2703 10.5637 45.5734 10.5637 45.8894C10.5637 46.2054 10.4382 46.5084 10.2148 46.7319C9.99133 46.9553 9.68827 47.0808 9.37228 47.0808H3.36371C2.47374 47.0818 1.61977 46.7295 0.989348 46.1013C0.358927 45.4731 0.00359455 44.6204 0.00138513 43.7304V38.0388C-0.0196028 36.7413 0.19808 35.4509 0.643586 34.2321C1.41313 32.2482 2.76534 30.5438 4.52224 29.3432C6.27914 28.1427 8.35839 27.5023 10.4863 27.5062H30.5184C30.8344 27.5062 31.1375 27.6318 31.3609 27.8552C31.5844 28.0786 31.7099 28.3817 31.7099 28.6977V45.8894C31.7099 46.2054 31.5844 46.5084 31.3609 46.7319C31.1375 46.9553 30.8344 47.0808 30.5184 47.0808V47.0808Z" fill="#34B175"/>
<path d="M16.4258 54.1343C14.7957 54.1346 13.2022 53.6514 11.8467 52.7459C10.4912 51.8404 9.43472 50.5533 8.8108 49.0473C8.18688 47.5414 8.02357 45.8842 8.34153 44.2854C8.65949 42.6866 9.44443 41.2181 10.5971 40.0654C11.7497 38.9128 13.2183 38.1278 14.8171 37.8099C16.4159 37.4919 18.073 37.6552 19.579 38.2791C21.085 38.9031 22.3721 39.9596 23.2776 41.315C24.1831 42.6705 24.6662 44.264 24.666 45.8941C24.6635 48.0788 23.7945 50.1733 22.2497 51.718C20.7049 53.2628 18.6105 54.1318 16.4258 54.1343V54.1343ZM16.4258 40.0357C15.2671 40.0355 14.1343 40.3789 13.1707 41.0224C12.2071 41.666 11.4561 42.5809 11.0125 43.6514C10.5689 44.7219 10.4527 45.8998 10.6786 47.0363C10.9045 48.1728 11.4624 49.2168 12.2816 50.0363C13.1009 50.8557 14.1448 51.4138 15.2812 51.6399C16.4177 51.8661 17.5957 51.7501 18.6663 51.3067C19.7368 50.8634 20.6519 50.1125 21.2957 49.149C21.9394 48.1856 22.2831 47.0529 22.2831 45.8941C22.2815 44.3411 21.6639 42.8521 20.5658 41.7538C19.4678 40.6555 17.9789 40.0376 16.4258 40.0357V40.0357Z" fill="#34B175"/>
<path d="M16.4258 49.9892C15.6159 49.9892 14.8242 49.7491 14.1508 49.2992C13.4774 48.8492 12.9525 48.2098 12.6425 47.4615C12.3325 46.7133 12.2514 45.89 12.4093 45.0957C12.5672 44.3013 12.9571 43.5717 13.5297 42.9989C14.1023 42.4262 14.8318 42.036 15.6261 41.8779C16.4204 41.7198 17.2438 41.8007 17.9921 42.1105C18.7404 42.4202 19.38 42.9449 19.8301 43.6182C20.2802 44.2915 20.5206 45.0831 20.5208 45.893C20.5199 46.9789 20.0882 48.02 19.3204 48.788C18.5527 49.556 17.5117 49.988 16.4258 49.9892V49.9892ZM16.4258 44.182C16.0871 44.182 15.756 44.2825 15.4744 44.4706C15.1928 44.6588 14.9734 44.9263 14.8438 45.2392C14.7143 45.5521 14.6805 45.8965 14.7466 46.2286C14.8128 46.5608 14.976 46.8658 15.2155 47.1052C15.4551 47.3446 15.7603 47.5076 16.0925 47.5735C16.4247 47.6395 16.769 47.6054 17.0818 47.4756C17.3946 47.3459 17.6619 47.1262 17.8499 46.8445C18.0379 46.5628 18.1381 46.2316 18.1379 45.893C18.1373 45.4392 17.9566 45.0042 17.6357 44.6834C17.3147 44.3627 16.8796 44.1823 16.4258 44.182V44.182Z" fill="#34B175"/>
<path d="M64.5861 54.1343C62.956 54.1346 61.3624 53.6514 60.007 52.7459C58.6515 51.8404 57.595 50.5533 56.9711 49.0473C56.3472 47.5414 56.1839 45.8842 56.5018 44.2854C56.8198 42.6866 57.6047 41.2181 58.7574 40.0654C59.91 38.9128 61.3786 38.1278 62.9774 37.8099C64.5761 37.4919 66.2333 37.6552 67.7393 38.2791C69.2452 38.9031 70.5324 39.9596 71.4378 41.315C72.3433 42.6705 72.8265 44.264 72.8263 45.8941C72.8237 48.0788 71.9548 50.1733 70.41 51.718C68.8652 53.2628 66.7707 54.1318 64.5861 54.1343V54.1343ZM64.5861 40.0357C63.4273 40.0355 62.2945 40.3789 61.331 41.0224C60.3674 41.666 59.6163 42.5809 59.1727 43.6514C58.7291 44.7219 58.6129 45.8998 58.8389 47.0363C59.0648 48.1728 59.6227 49.2168 60.4419 50.0363C61.2612 50.8557 62.3051 51.4138 63.4415 51.6399C64.578 51.8661 65.756 51.7501 66.8265 51.3067C67.8971 50.8634 68.8121 50.1125 69.4559 49.149C70.0997 48.1856 70.4433 47.0529 70.4433 45.8941C70.4418 44.3411 69.8242 42.8521 68.7261 41.7538C67.628 40.6555 66.1391 40.0376 64.5861 40.0357V40.0357Z" fill="#34B175"/>
<path d="M47.6338 28.426H46.0003C45.5314 28.4258 45.0704 28.3048 44.6618 28.0746C44.2532 27.8444 43.9108 27.5128 43.6676 27.1118C43.4245 26.7108 43.2887 26.254 43.2734 25.7852C43.2582 25.3165 43.3639 24.8518 43.5805 24.4358L48.9862 14.07C49.056 13.9271 49.1537 13.7996 49.2736 13.6951C49.3935 13.5905 49.5331 13.5111 49.6842 13.4613C49.8353 13.4116 49.9948 13.3926 50.1534 13.4055C50.3119 13.4184 50.4663 13.463 50.6073 13.5365C50.7484 13.61 50.8733 13.711 50.9747 13.8336C51.0761 13.9561 51.1519 14.0978 51.1977 14.2501C51.2435 14.4024 51.2583 14.5624 51.2413 14.7206C51.2243 14.8787 51.1758 15.0319 51.0986 15.171L45.6929 25.5367C45.6647 25.5893 45.6509 25.6485 45.653 25.7081C45.6551 25.7678 45.673 25.8258 45.7049 25.8763C45.7347 25.928 45.7778 25.9707 45.8298 26.0001C45.8818 26.0294 45.9407 26.0443 46.0003 26.0431H47.6338C47.9498 26.0431 48.2529 26.1686 48.4763 26.3921C48.6998 26.6155 48.8253 26.9186 48.8253 27.2346C48.8253 27.5506 48.6998 27.8536 48.4763 28.0771C48.2529 28.3005 47.9498 28.426 47.6338 28.426V28.426Z" fill="#34B175"/>
<path d="M60.3885 20.2824C60.1713 20.2826 59.9581 20.2235 59.772 20.1113C59.586 19.9992 59.4341 19.8383 59.3329 19.6461L54.3287 10.162C54.1643 9.84153 53.8724 9.85106 53.7139 10.162L52.9371 11.6514C52.7883 11.9267 52.5371 12.1325 52.2378 12.2242C51.9386 12.3158 51.6152 12.2861 51.3377 12.1413C51.0602 11.9965 50.8509 11.7484 50.7548 11.4505C50.6588 11.1526 50.6839 10.8288 50.8246 10.5493L51.6003 9.05992C51.8311 8.61767 52.1787 8.24714 52.6053 7.98857C53.0319 7.73 53.5213 7.59329 54.0201 7.59329C54.519 7.59329 55.0083 7.73 55.4349 7.98857C55.8616 8.24714 56.2092 8.61767 56.44 9.05992L61.4442 18.5392C61.54 18.7208 61.5874 18.924 61.5816 19.1293C61.5758 19.3345 61.5171 19.5347 61.4111 19.7106C61.3051 19.8865 61.1555 20.0319 60.9768 20.1329C60.798 20.234 60.5962 20.2871 60.3909 20.2871L60.3885 20.2824Z" fill="#34B175"/>
<path d="M62.0351 28.426H51.8766C51.5607 28.426 51.2576 28.3005 51.0342 28.0771C50.8107 27.8536 50.6852 27.5506 50.6852 27.2346C50.6852 26.9186 50.8107 26.6155 51.0342 26.3921C51.2576 26.1686 51.5607 26.0431 51.8766 26.0431H62.0327C62.0924 26.0443 62.1513 26.0294 62.2033 26.0001C62.2552 25.9707 62.2984 25.928 62.3282 25.8763C62.3601 25.8258 62.378 25.7678 62.3801 25.7081C62.3822 25.6485 62.3684 25.5893 62.3401 25.5367L61.5061 23.9461C61.431 23.8072 61.3843 23.6547 61.3687 23.4976C61.3531 23.3404 61.3688 23.1817 61.4151 23.0307C61.4614 22.8797 61.5372 22.7394 61.6381 22.618C61.7391 22.4966 61.8632 22.3964 62.0032 22.3233C62.1432 22.2503 62.2964 22.2058 62.4537 22.1925C62.6111 22.1792 62.7695 22.1972 62.9198 22.2457C63.0701 22.2941 63.2093 22.372 63.3293 22.4747C63.4492 22.5774 63.5476 22.7029 63.6186 22.844L64.4526 24.4346C64.6694 24.8506 64.7754 25.3155 64.7603 25.7844C64.7452 26.2533 64.6095 26.7104 64.3662 27.1115C64.123 27.5127 63.7805 27.8444 63.3718 28.0747C62.963 28.3049 62.5019 28.4259 62.0327 28.426H62.0351Z" fill="#34B175"/>
<path d="M50.864 19.6318C50.5918 19.6317 50.3278 19.5383 50.116 19.3673C49.9042 19.1962 49.7574 18.9578 49.6999 18.6917L49.1792 16.2731L46.8976 17.2262C46.6077 17.3385 46.2854 17.333 45.9995 17.2109C45.7136 17.0888 45.4867 16.8599 45.3673 16.5728C45.2479 16.2858 45.2454 15.9635 45.3603 15.6746C45.4753 15.3858 45.6986 15.1533 45.9825 15.0268L49.5855 13.5279C49.7469 13.4609 49.9209 13.4303 50.0954 13.438C50.2699 13.4458 50.4406 13.4919 50.5953 13.5729C50.75 13.654 50.885 13.7681 50.9907 13.9071C51.0965 14.0461 51.1703 14.2067 51.2071 14.3774L52.0304 18.1901C52.0969 18.499 52.038 18.8217 51.8666 19.0871C51.6952 19.3525 51.4254 19.5391 51.1166 19.6056C51.0335 19.623 50.9489 19.6318 50.864 19.6318Z" fill="#34B175"/>
<path d="M60.3873 20.2824C60.2479 20.2822 60.1095 20.2576 59.9786 20.2097L56.3101 18.8717C56.0132 18.7633 55.7715 18.5414 55.6383 18.2548C55.505 17.9683 55.491 17.6405 55.5994 17.3436C55.7078 17.0467 55.9296 16.8051 56.2162 16.6718C56.5028 16.5385 56.8305 16.5245 57.1274 16.6329L59.452 17.4812L59.8654 15.0447C59.8916 14.8904 59.948 14.7428 60.0312 14.6103C60.1145 14.4778 60.223 14.363 60.3506 14.2724C60.4782 14.1819 60.6225 14.1173 60.775 14.0825C60.9276 14.0477 61.0855 14.0432 61.2398 14.0694C61.3941 14.0957 61.5417 14.152 61.6742 14.2352C61.8067 14.3185 61.9215 14.427 62.012 14.5546C62.1026 14.6823 62.1671 14.8265 62.2019 14.979C62.2368 15.1316 62.2412 15.2895 62.215 15.4438L61.5621 19.2899C61.5151 19.5674 61.3713 19.8194 61.1562 20.001C60.9412 20.1827 60.6688 20.2824 60.3873 20.2824Z" fill="#34B175"/>
<path d="M54.7267 31.0937C54.4243 31.0943 54.1331 30.9792 53.9129 30.772L51.0641 28.1055C50.9366 27.9861 50.8369 27.8401 50.7721 27.6779C50.7072 27.5157 50.6789 27.3412 50.689 27.1668C50.6991 26.9924 50.7475 26.8224 50.8306 26.6688C50.9138 26.5151 51.0297 26.3817 51.1701 26.2778L54.3108 23.9568C54.5652 23.7736 54.8814 23.698 55.1911 23.7464C55.5008 23.7947 55.7789 23.9632 55.9653 24.2152C56.1517 24.4672 56.2312 24.7825 56.1867 25.0928C56.1422 25.403 55.9772 25.6833 55.7275 25.8727L53.7365 27.3442L55.5416 29.0325C55.7161 29.1959 55.8375 29.408 55.8898 29.6412C55.9422 29.8744 55.9232 30.118 55.8353 30.3403C55.7474 30.5626 55.5947 30.7534 55.397 30.8877C55.1993 31.0221 54.9657 31.0939 54.7267 31.0937V31.0937Z" fill="#34B175"/>
<path d="M30.5185 31.873C30.2025 31.873 29.8994 31.7474 29.676 31.524C29.4525 31.3005 29.327 30.9975 29.327 30.6815V12.483H16.788C16.2147 12.4806 15.656 12.663 15.1945 13.0032C14.7331 13.3433 14.3936 13.8232 14.2263 14.3715L9.57962 29.2756C9.48482 29.5775 9.27396 29.8294 8.99342 29.9759C8.71289 30.1223 8.38566 30.1514 8.08373 30.0566C7.78179 29.9618 7.52988 29.7509 7.38342 29.4704C7.23695 29.1898 7.20792 28.8626 7.30272 28.5607L11.9494 13.6578C12.2673 12.624 12.9094 11.72 13.7807 11.0793C14.6521 10.4386 15.7065 10.0953 16.788 10.1001H30.5185C30.8345 10.1001 31.1375 10.2256 31.361 10.449C31.5844 10.6725 31.7099 10.9755 31.7099 11.2915V30.6815C31.7099 30.9975 31.5844 31.3005 31.361 31.524C31.1375 31.7474 30.8345 31.873 30.5185 31.873Z" fill="#34B175"/>
<path d="M79.744 47.0796H71.6313C71.3153 47.0796 71.0122 46.9541 70.7888 46.7307C70.5653 46.5072 70.4398 46.2042 70.4398 45.8882C70.4398 45.5722 70.5653 45.2691 70.7888 45.0457C71.0122 44.8222 71.3153 44.6967 71.6313 44.6967H79.744C80.0824 44.6964 80.4069 44.5619 80.6464 44.3227C80.8858 44.0835 81.0206 43.7591 81.0212 43.4206V17.3537C81.0208 17.1456 80.9766 16.9399 80.8914 16.75C80.8062 16.5601 80.6819 16.3903 80.5268 16.2516L65.4273 2.75825C65.1558 2.51689 64.8052 2.38337 64.442 2.38293H33.1874C32.7954 2.38325 32.4197 2.53917 32.1426 2.81643C31.8656 3.09369 31.71 3.4696 31.71 3.86155V44.6967H57.5338C57.8498 44.6967 58.1529 44.8222 58.3763 45.0457C58.5998 45.2691 58.7253 45.5722 58.7253 45.8882C58.7253 46.2042 58.5998 46.5072 58.3763 46.7307C58.1529 46.9541 57.8498 47.0796 57.5338 47.0796H30.5185C30.2025 47.0796 29.8994 46.9541 29.676 46.7307C29.4526 46.5072 29.327 46.2042 29.327 45.8882V3.86155C29.328 2.8379 29.735 1.85643 30.4587 1.13249C31.1824 0.408545 32.1637 0.00126177 33.1874 3.93957e-09H64.442C65.3907 -4.28165e-05 66.3063 0.348987 67.0143 0.980578L82.115 14.4751C82.5201 14.8374 82.8443 15.281 83.0665 15.777C83.2886 16.273 83.4037 16.8103 83.4042 17.3537V43.4206C83.4029 44.3909 83.0168 45.321 82.3307 46.007C81.6445 46.6929 80.7142 47.0787 79.744 47.0796V47.0796Z" fill="#34B175"/>
<path d="M64.586 49.9892C63.776 49.9902 62.9838 49.7508 62.3098 49.3015C61.6357 48.8521 61.1101 48.213 60.7994 47.4648C60.4887 46.7167 60.4069 45.8932 60.5642 45.0986C60.7216 44.3039 61.1111 43.5738 61.6835 43.0006C62.2559 42.4274 62.9855 42.0368 63.7799 41.8783C64.5743 41.7197 65.3979 41.8004 66.1465 42.11C66.8951 42.4196 67.535 42.9443 67.9853 43.6177C68.4356 44.2911 68.6761 45.0829 68.6764 45.8929C68.6751 46.9779 68.2439 48.0182 67.4773 48.7859C66.7107 49.5537 65.671 49.9864 64.586 49.9892V49.9892ZM64.586 44.182C64.2472 44.1811 63.9156 44.2807 63.6334 44.4683C63.3512 44.6559 63.131 44.9231 63.0007 45.2359C62.8704 45.5487 62.8359 45.8932 62.9016 46.2257C62.9672 46.5581 63.13 46.8637 63.3694 47.1035C63.6087 47.3434 63.9139 47.5069 64.2462 47.5732C64.5786 47.6395 64.9231 47.6057 65.2362 47.4761C65.5493 47.3464 65.8169 47.1268 66.0051 46.845C66.1933 46.5632 66.2937 46.2318 66.2934 45.8929C66.2928 45.44 66.1128 45.0057 65.7929 44.6851C65.4729 44.3645 65.039 44.1836 64.586 44.182V44.182Z" fill="#34B175"/>
<path d="M4.14884 41.1902H1.19281C0.876813 41.1902 0.573759 41.0647 0.350315 40.8412C0.126872 40.6178 0.00134277 40.3147 0.00134277 39.9988C0.00134277 39.6828 0.126872 39.3797 0.350315 39.1563C0.573759 38.9328 0.876813 38.8073 1.19281 38.8073H4.14884C4.1778 38.8056 4.20515 38.7934 4.22577 38.773C4.24639 38.7526 4.25886 38.7254 4.26084 38.6965V37.7219C4.259 37.6939 4.24619 37.6679 4.22521 37.6493C4.20423 37.6308 4.17678 37.6213 4.14884 37.623H1.30957C0.993577 37.623 0.690523 37.4974 0.467079 37.274C0.243636 37.0506 0.118106 36.7475 0.118106 36.4315C0.118106 36.1155 0.243636 35.8125 0.467079 35.589C0.690523 35.3656 0.993577 35.24 1.30957 35.24H4.14884C4.80856 35.2391 5.44172 35.4998 5.90944 35.9651C6.37716 36.4304 6.64125 37.0621 6.64377 37.7219V38.6953C6.64189 39.3564 6.37842 39.9899 5.91094 40.4574C5.44346 40.9249 4.80996 41.1883 4.14884 41.1902V41.1902Z" fill="#34B175"/>
</svg>
