<svg width="69" height="65" viewBox="0 0 69 65" fill="none" xmlns="http://www.w3.org/2000/svg">
<path d="M68.0484 14.3906C67.7642 14.2588 67.4482 14.211 67.1377 14.2528C66.8272 14.2947 66.5352 14.4244 66.296 14.6268L54.7619 24.3864V15.881C54.7619 15.5677 54.6723 15.2609 54.5037 14.9968C54.3351 14.7328 54.0945 14.5224 53.8103 14.3906C53.5261 14.2588 53.2101 14.211 52.8996 14.2528C52.5891 14.2946 52.2971 14.4244 52.0579 14.6268L40.5238 24.3864V15.881C40.5238 15.5677 40.4342 15.2609 40.2656 14.9968C40.097 14.7328 39.8564 14.5224 39.5722 14.3906C39.288 14.2588 38.972 14.211 38.6615 14.2528C38.351 14.2946 38.059 14.4244 37.8198 14.6268L24.8284 25.6195L20.7872 1.37274C20.7233 0.989144 20.5253 0.640665 20.2286 0.389301C19.9318 0.137937 19.5556 -9.9899e-06 19.1667 5.42609e-10H6.02381C5.63492 -9.9899e-06 5.25863 0.137937 4.96189 0.389301C4.66516 0.640665 4.46721 0.989144 4.40327 1.37274L0.0223155 27.6585C0.0199881 27.6721 0.0197143 27.6858 0.0177976 27.6995C0.013006 27.7335 0.00903571 27.768 0.00629762 27.8023C0.00438095 27.8281 0.00328573 27.8537 0.0024643 27.8793C0.0024643 27.8957 0 27.9117 0 27.9282V62.9762C0 63.4119 0.173086 63.8298 0.481182 64.1379C0.789277 64.446 1.20714 64.619 1.64286 64.619H67.3571C67.7929 64.619 68.2107 64.446 68.5188 64.1379C68.8269 63.8298 69 63.4119 69 62.9762V15.881C69 15.5677 68.9104 15.2609 68.7418 14.9968C68.5732 14.7328 68.3326 14.5224 68.0484 14.3906ZM65.7143 19.4231V26.2857H57.6039L65.7143 19.4231ZM51.4762 19.4231V26.2857H43.3658L51.4762 19.4231ZM37.2381 19.4231V26.2857H29.1277L37.2381 19.4231ZM7.41558 3.28571H17.7749L21.6082 26.2857H3.58225L7.41558 3.28571ZM65.7143 61.3333H37.4595C37.8933 59.743 38.9274 58.3648 40.2017 57.0876C40.5843 57.3904 40.9965 57.6539 41.4319 57.8742C42.5606 58.4398 43.8058 58.7343 45.0684 58.7342C46.6341 58.7291 48.1674 58.2873 49.4957 57.4584C52.1075 55.8443 53.6667 52.9938 53.6667 49.8333C53.6667 42.3676 46.6492 37.7003 46.3505 37.5053C46.0035 37.2756 45.5833 37.1835 45.1721 37.247C44.7608 37.3106 44.388 37.5252 44.1266 37.849C43.8722 38.1645 43.7464 38.5645 43.7743 38.9689C43.8022 39.3732 43.9818 39.7521 44.2772 40.0297C44.3288 40.0921 44.5577 40.3884 44.5213 40.6841C44.4791 41.0264 44.0873 41.4678 43.4464 41.895C40.234 44.0365 38.2189 45.5308 37.323 48.2185C36.5721 50.4712 37.0034 52.7538 38.0582 54.5921C37.4127 55.2211 36.8128 55.8951 36.2629 56.6092C35.5455 54.4605 34.4911 52.4396 33.1392 50.622C34.9233 48.6344 35.9375 45.6633 34.9638 42.7423C34.0679 40.0546 32.0528 38.5603 28.8404 36.4188C28.1995 35.9916 27.8077 35.5502 27.7655 35.2079C27.7291 34.9122 27.958 34.616 28.0096 34.5535C28.305 34.2759 28.4846 33.897 28.5125 33.4927C28.5405 33.0883 28.4146 32.6883 28.1602 32.3728C27.8987 32.0491 27.526 31.8345 27.1147 31.771C26.7035 31.7074 26.2833 31.7995 25.9363 32.0291C25.6365 32.2241 18.619 36.8914 18.619 44.3571C18.619 47.5176 20.1783 50.3681 22.79 51.9827C24.1183 52.8117 25.6516 53.2536 27.2174 53.2585C28.3463 53.258 29.4626 53.0218 30.495 52.565C32.1576 54.8477 33.5617 57.5757 33.8823 61.3339H3.28571V29.5714H65.7143V61.3333ZM40.4395 49.2583C40.9563 47.708 42.0985 46.7428 45.2684 44.6294C46.1591 44.0357 46.8187 43.3755 47.2428 42.6556C48.7707 44.3462 50.381 46.8391 50.381 49.8333C50.381 51.8768 49.4286 53.6372 47.7683 54.6635C47.0485 55.1225 46.2228 55.3887 45.3704 55.4363C44.5181 55.4839 43.6678 55.3114 42.9014 54.9354C42.8415 54.9054 42.7812 54.872 42.7207 54.8369C42.8985 54.6886 43.0765 54.5408 43.2546 54.3935C45.7929 52.2888 48.1905 50.3009 48.1905 47.6429C48.1905 47.2071 48.0174 46.7893 47.7093 46.4812C47.4012 46.1731 46.9833 46 46.5476 46C46.1119 46 45.694 46.1731 45.3859 46.4812C45.0778 46.7893 44.9048 47.2071 44.9048 47.6429C44.9048 48.7568 42.9996 50.3366 41.1573 51.8642C40.9747 52.0156 40.7898 52.1692 40.6025 52.3251C40.1756 51.3571 40.1176 50.2662 40.4395 49.2583ZM31.0363 47.9925C30.8508 47.7759 30.6686 47.5644 30.4896 47.358C28.7527 45.3481 27.381 43.7605 27.381 42.1667C27.381 41.7309 27.2079 41.3131 26.8998 41.005C26.5917 40.6969 26.1738 40.5238 25.7381 40.5238C25.3024 40.5238 24.8845 40.6969 24.5764 41.005C24.2683 41.3131 24.0952 41.7309 24.0952 42.1667C24.0952 44.9833 25.9934 47.1802 28.003 49.5061C28.1005 49.6189 28.1984 49.7323 28.2967 49.8463C26.9995 50.1326 25.6418 49.8958 24.5181 49.1873C22.8571 48.161 21.9048 46.4006 21.9048 44.3571C21.9048 41.3625 23.5152 38.8696 25.0429 37.1785C25.4668 37.8987 26.125 38.5567 27.0173 39.1526C30.1872 41.266 31.3298 42.2311 31.8462 43.7815C32.3603 45.3237 31.8577 46.8681 31.0363 47.9925Z" fill="#34B175"/>
</svg>
