<svg width="82" height="75" viewBox="0 0 82 75" fill="none" xmlns="http://www.w3.org/2000/svg">
<path d="M82 66.129C82 61.7525 78.441 58.1936 74.0645 58.1936C71.7222 58.1936 69.6208 59.2197 68.1659 60.8387H61.447C59.9934 59.2197 57.892 58.1936 55.5484 58.1936C53.2048 58.1936 51.1047 59.2197 49.6497 60.8387H26.4516V25.129C26.4516 24.3993 25.8607 23.8065 25.129 23.8065H3.96774C3.61579 23.8065 3.27997 23.9453 3.03264 24.1939L0.387475 26.8391C0.138845 27.0864 0 27.4235 0 27.7742V30.4194C0 31.1491 0.590899 31.7419 1.32258 31.7419H2.64516V44.4201L0.387475 46.6778C0.138845 46.9251 0 47.261 0 47.6129V60.8387C0 61.1907 0.138845 61.5265 0.387475 61.7738L4.35522 65.7416C4.60256 65.9902 4.93837 66.129 5.29032 66.129H10.5806C10.5806 70.5056 14.1396 74.0645 18.5161 74.0645C21.964 74.0645 24.8965 71.852 25.9886 68.7742H48.0759C49.168 71.852 52.1005 74.0645 55.5484 74.0645C58.9963 74.0645 61.9288 71.852 63.0208 68.7742H66.5921C67.6841 71.852 70.6166 74.0645 74.0645 74.0645C78.441 74.0645 82 70.5056 82 66.129ZM18.5161 31.7419V42.3226H5.29032V31.7419H18.5161ZM11.0437 63.4839H5.83795L2.64516 60.2911V48.1605L5.83795 44.9677H19.8387C20.5704 44.9677 21.1613 44.3768 21.1613 43.6452V30.4194C21.1613 29.6896 20.5704 29.0968 19.8387 29.0968H2.64516V28.3218L4.51537 26.4516H23.8065V60.2304C22.4006 58.9685 20.5504 58.1936 18.5161 58.1936C15.0682 58.1936 12.1357 60.406 11.0437 63.4839ZM18.5161 71.4194C15.5984 71.4194 13.2258 69.0467 13.2258 66.129C13.2258 63.2114 15.5984 60.8387 18.5161 60.8387C21.4338 60.8387 23.8065 63.2114 23.8065 66.129C23.8065 69.0467 21.4338 71.4194 18.5161 71.4194ZM26.4516 66.129C26.4516 65.2004 26.2824 64.3131 25.9886 63.4839H48.0759C47.7821 64.3131 47.6129 65.2004 47.6129 66.129H26.4516ZM55.5484 71.4194C52.6307 71.4194 50.2581 69.0467 50.2581 66.129C50.2581 63.2114 52.6307 60.8387 55.5484 60.8387C58.4661 60.8387 60.8387 63.2114 60.8387 66.129C60.8387 69.0467 58.4661 71.4194 55.5484 71.4194ZM63.4839 66.129C63.4839 65.2004 63.3147 64.3131 63.0208 63.4839H66.5921C66.2982 64.3131 66.129 65.2004 66.129 66.129H63.4839ZM74.0645 71.4194C71.1468 71.4194 68.7742 69.0467 68.7742 66.129C68.7742 63.2114 71.1468 60.8387 74.0645 60.8387C76.9822 60.8387 79.3548 63.2114 79.3548 66.129C79.3548 69.0467 76.9822 71.4194 74.0645 71.4194Z" fill="#34B175"/>
<path d="M14.5483 47.6129H19.8387V50.2581H14.5483V47.6129Z" fill="#34B175"/>
<path d="M18.5161 62.1613C16.3288 62.1613 14.5483 63.9417 14.5483 66.129C14.5483 68.3163 16.3288 70.0968 18.5161 70.0968C20.7034 70.0968 22.4838 68.3163 22.4838 66.129C22.4838 63.9417 20.7034 62.1613 18.5161 62.1613ZM18.5161 67.4516C17.7863 67.4516 17.1935 66.8588 17.1935 66.129C17.1935 65.3993 17.7863 64.8064 18.5161 64.8064C19.2458 64.8064 19.8387 65.3993 19.8387 66.129C19.8387 66.8588 19.2458 67.4516 18.5161 67.4516Z" fill="#34B175"/>
<path d="M55.5484 62.1613C53.3611 62.1613 51.5807 63.9417 51.5807 66.129C51.5807 68.3163 53.3611 70.0968 55.5484 70.0968C57.7357 70.0968 59.5162 68.3163 59.5162 66.129C59.5162 63.9417 57.7357 62.1613 55.5484 62.1613ZM55.5484 67.4516C54.8187 67.4516 54.2258 66.8588 54.2258 66.129C54.2258 65.3993 54.8187 64.8064 55.5484 64.8064C56.2782 64.8064 56.871 65.3993 56.871 66.129C56.871 66.8588 56.2782 67.4516 55.5484 67.4516Z" fill="#34B175"/>
<path d="M74.0645 62.1613C71.8772 62.1613 70.0968 63.9417 70.0968 66.129C70.0968 68.3163 71.8772 70.0968 74.0645 70.0968C76.2518 70.0968 78.0323 68.3163 78.0323 66.129C78.0323 63.9417 76.2518 62.1613 74.0645 62.1613ZM74.0645 67.4516C73.3348 67.4516 72.742 66.8588 72.742 66.129C72.742 65.3993 73.3348 64.8064 74.0645 64.8064C74.7943 64.8064 75.3871 65.3993 75.3871 66.129C75.3871 66.8588 74.7943 67.4516 74.0645 67.4516Z" fill="#34B175"/>
<path d="M78.0323 25.4784V19.8387C78.0323 19.109 77.4414 18.5161 76.7097 18.5161H66.1291C65.3974 18.5161 64.8065 19.109 64.8065 19.8387V23.8065H62.1613V19.8387C62.1613 19.109 61.5704 18.5161 60.8387 18.5161H50.2581C49.5264 18.5161 48.9355 19.109 48.9355 19.8387V23.8065H46.2904V19.8387C46.2904 19.109 45.6995 18.5161 44.9678 18.5161H34.3871C33.6554 18.5161 33.0645 19.109 33.0645 19.8387V25.4784C30.6693 27.1536 29.0968 29.9273 29.0968 33.0645V46.2903C29.0968 51.394 33.2512 55.5484 38.3549 55.5484H72.742C77.8457 55.5484 82 51.394 82 46.2903V33.0645C82 29.926 80.4275 27.1523 78.0323 25.4784ZM67.4516 21.1613H75.3871V24.1965C74.5489 23.9453 73.6609 23.8065 72.742 23.8065H67.4516V21.1613ZM51.5807 21.1613H59.5162V23.8065H51.5807V21.1613ZM41 39.6774H38.3549V37.0323H41V39.6774ZM41 34.3871H38.3549V31.7419H41V34.3871ZM38.3549 42.3226H41V44.9678H38.3549V42.3226ZM41 29.0968H38.3549V26.4516H41V29.0968ZM35.7097 21.1613H43.6452V23.8065H38.3549C37.4359 23.8065 36.5479 23.9453 35.7097 24.1965V21.1613ZM31.742 46.2903V33.0645C31.742 30.36 33.3778 28.0364 35.7097 27.0122V52.3427C33.3778 51.3185 31.742 48.9949 31.742 46.2903ZM38.3549 47.6129H41V52.9032H38.3549V47.6129ZM79.3549 46.2903C79.3549 49.9365 76.3881 52.9032 72.742 52.9032H43.6452V26.4516H72.742C76.3881 26.4516 79.3549 29.4184 79.3549 33.0645V46.2903Z" fill="#34B175"/>
<path d="M73.1294 30.8068L70.1219 33.8143C69.3347 33.3487 68.4306 33.0645 67.4516 33.0645C66.4726 33.0645 65.5684 33.3487 64.7812 33.8143L61.7738 30.8068L59.9036 32.677L62.911 35.6845C62.4454 36.4717 62.1613 37.3758 62.1613 38.3548C62.1613 40.8121 63.8526 42.8663 66.129 43.4572V48.9355H68.7742V43.4572C71.0506 42.8663 72.7419 40.8121 72.7419 38.3548C72.7419 37.3758 72.4577 36.4717 71.9921 35.6845L74.9996 32.677L73.1294 30.8068ZM67.4516 41C65.9927 41 64.8064 39.8137 64.8064 38.3548C64.8064 36.896 65.9927 35.7097 67.4516 35.7097C68.9104 35.7097 70.0967 36.896 70.0967 38.3548C70.0967 39.8137 68.9104 41 67.4516 41Z" fill="#34B175"/>
<path d="M3.96774 15.871H33.0645C35.2518 15.871 37.0323 14.0905 37.0323 11.9032C37.0323 10.1338 35.8672 8.62971 34.2644 8.12083C33.7432 5.74819 31.6231 3.96774 29.0968 3.96774C28.4897 3.96774 27.8943 4.07365 27.3299 4.27578C26.387 1.76559 23.9731 0 21.1613 0C18.4722 0 16.0996 1.62158 15.0786 4.0362C14.7466 4.08786 14.4199 4.16213 14.1041 4.27578C13.1612 1.76559 10.7473 0 7.93548 0C4.28935 0 1.32258 2.96677 1.32258 6.6129C1.32258 7.311 1.43882 8.00846 1.66614 8.6775C0.649666 9.40595 0 10.5994 0 11.9032C0 14.0905 1.78045 15.871 3.96774 15.871ZM21.1613 2.64516C23.264 2.64516 24.9941 4.29839 25.1026 6.41077C25.1303 6.92224 25.4493 7.37235 25.9227 7.56674C26.3922 7.75983 26.9385 7.66554 27.3176 7.31811C27.8136 6.86282 28.4458 6.6129 29.0968 6.6129C30.5556 6.6129 31.7419 7.79922 31.7419 9.25806C31.7419 9.98781 32.3328 10.5806 33.0645 10.5806C33.7943 10.5806 34.3871 11.1748 34.3871 11.9032C34.3871 12.6317 33.7943 13.2258 33.0645 13.2258H23.563C23.7115 12.8106 23.8065 12.3688 23.8065 11.9032C23.8065 10.1338 22.6414 8.62971 21.0386 8.12083C20.664 6.41852 19.4603 5.03524 17.8826 4.3804C18.6046 3.31937 19.8174 2.64516 21.1613 2.64516ZM3.69005 10.6123C4.10659 10.5225 4.45596 10.2371 4.62516 9.84509C4.79565 9.45374 4.76529 9.00427 4.54572 8.63746C4.16212 7.99877 3.96774 7.31811 3.96774 6.6129C3.96774 4.42561 5.74819 2.64516 7.93548 2.64516C10.0382 2.64516 11.7683 4.29839 11.8767 6.41077C11.9045 6.92224 12.2235 7.37235 12.6969 7.56674C13.1677 7.75983 13.7127 7.66554 14.0918 7.31811C14.5878 6.86282 15.22 6.6129 15.871 6.6129C17.3298 6.6129 18.5161 7.79922 18.5161 9.25806C18.5161 9.98781 19.107 10.5806 19.8387 10.5806C20.5685 10.5806 21.1613 11.1748 21.1613 11.9032C21.1613 12.6317 20.5685 13.2258 19.8387 13.2258H3.96774C3.238 13.2258 2.64516 12.6317 2.64516 11.9032C2.64516 11.2846 3.0843 10.7421 3.69005 10.6123Z" fill="#34B175"/>
<path d="M62.1613 15.871H78.0323C80.2196 15.871 82.0001 14.0905 82.0001 11.9032C82.0001 10.1338 80.835 8.62971 79.2322 8.12083C78.711 5.74819 76.5909 3.96774 74.0646 3.96774C73.4575 3.96774 72.8621 4.07365 72.2977 4.27578C71.3548 1.76559 68.9409 0 66.1291 0C62.4829 0 59.5162 2.96677 59.5162 6.6129C59.5162 7.311 59.6324 8.00846 59.8597 8.6775C58.8433 9.40595 58.1936 10.5994 58.1936 11.9032C58.1936 14.0905 59.9741 15.871 62.1613 15.871ZM61.8824 10.6123C62.3002 10.5225 62.6496 10.2371 62.8188 9.84509C62.9893 9.45374 62.9589 9.00427 62.7393 8.63746C62.3557 7.99877 62.1613 7.31811 62.1613 6.6129C62.1613 4.42561 63.9418 2.64516 66.1291 2.64516C68.2318 2.64516 69.9619 4.29839 70.0704 6.41077C70.0981 6.92224 70.4171 7.37235 70.8905 7.56674C71.36 7.75983 71.9063 7.66554 72.2854 7.31811C72.7814 6.86282 73.4136 6.6129 74.0646 6.6129C75.5234 6.6129 76.7097 7.79922 76.7097 9.25806C76.7097 9.98781 77.3006 10.5806 78.0323 10.5806C78.7621 10.5806 79.3549 11.1748 79.3549 11.9032C79.3549 12.6317 78.7621 13.2258 78.0323 13.2258H62.1613C61.4316 13.2258 60.8388 12.6317 60.8388 11.9032C60.8388 11.2846 61.2779 10.7421 61.8824 10.6123Z" fill="#34B175"/>
</svg>
