<svg width="67" height="67" viewBox="0 0 67 67" fill="none" xmlns="http://www.w3.org/2000/svg">
<path d="M0 0V67H67V0H0ZM63.0742 15.834H51.166V3.92578H63.0742V15.834ZM35.4629 15.834V3.92578H47.2402V15.834H35.4629ZM31.5371 15.834H19.7598V3.92578H31.5371V15.834ZM47.2402 19.7598V47.2402H19.7598V19.7598H47.2402ZM15.834 31.5371H3.92578V19.7598H15.834V31.5371ZM15.834 35.4629V47.2402H3.92578V35.4629H15.834ZM31.5371 51.166V63.0742H19.7598V51.166H31.5371ZM35.4629 51.166H47.2402V63.0742H35.4629V51.166ZM51.166 35.4629H63.0742V47.2402H51.166V35.4629ZM51.166 31.5371V19.7598H63.0742V31.5371H51.166ZM15.834 3.92578V15.834H3.92578V3.92578H15.834ZM3.92578 51.166H15.834V63.0742H3.92578V51.166ZM51.166 63.0742V51.166H63.0742V63.0742H51.166Z" fill="#34B175"/>
<path d="M26.5096 41.8565L27.7736 42.0921C27.8341 42.1034 29.2785 42.3685 31.2166 42.3685C33.9556 42.3685 37.7537 41.8354 40.2932 39.2958C44.5681 35.021 43.152 27.1108 43.0896 26.776L42.854 25.512L41.59 25.2764C41.5295 25.2651 40.0851 25 38.147 25C35.408 25 31.6098 25.5331 29.0703 28.0727C24.7955 32.3475 26.2116 40.2578 26.274 40.5925L26.5096 41.8565ZM31.722 30.7244C33.3538 29.0925 36.1166 28.75 38.147 28.75C38.6747 28.75 39.1577 28.7737 39.5668 28.8055C39.7383 31.0657 39.5638 34.7219 37.6416 36.644C36.0097 38.2759 33.247 38.6184 31.2166 38.6184C30.6933 38.6184 30.214 38.5949 29.8071 38.5636C29.655 36.5486 29.6853 32.7609 31.722 30.7244Z" fill="#34B175"/>
</svg>
