<svg width="37" height="32" viewBox="0 0 37 32" fill="none" xmlns="http://www.w3.org/2000/svg">
<path d="M18.0641 7V22.5" stroke="#8D3286" stroke-width="2" stroke-linecap="round" stroke-linejoin="round"/>
<path d="M26.4047 19.05C27.5196 19.1 30.5115 18.8875 31.6122 15C32.713 11.1125 33.715 6 29.3542 6C24.9934 6 18.0642 12 18.0642 16C18.0642 12 11.1349 6 6.77408 6C2.41329 6 3.38706 11 4.51606 15C5.64507 19 8.60872 19.1 9.72361 19.05" stroke="#8D3286" stroke-width="2" stroke-linecap="round" stroke-linejoin="round"/>
<path d="M12.4191 18.025C11.4445 18.1215 10.5223 18.4658 9.76378 19.0162C9.00524 19.5667 8.44276 20.2998 8.14421 21.1271C7.84567 21.9545 7.82383 22.8407 8.08133 23.6788C8.33882 24.5168 8.86465 25.271 9.59535 25.8503C10.3261 26.4295 11.2304 26.8091 12.1993 26.9432C13.1681 27.0773 14.1601 26.9601 15.0555 26.6059C15.9508 26.2517 16.7114 25.6756 17.2452 24.947C17.7791 24.2184 18.0635 23.3686 18.0641 22.5C18.0647 23.3686 18.3491 24.2184 18.883 24.947C19.4169 25.6756 20.1774 26.2517 21.0727 26.6059C21.9681 26.9601 22.9601 27.0773 23.9289 26.9432C24.8978 26.8091 25.8022 26.4295 26.5329 25.8503C27.2636 25.271 27.7894 24.5168 28.0469 23.6788C28.3044 22.8407 28.2825 21.9545 27.984 21.1271C27.6855 20.2998 27.123 19.5667 26.3644 19.0162C25.6059 18.4658 24.6837 18.1215 23.7091 18.025" stroke="#8D3286" stroke-width="2" stroke-linecap="round" stroke-linejoin="round"/>
</svg>
