<svg width="34" height="32" viewBox="0 0 34 32" fill="none" xmlns="http://www.w3.org/2000/svg">
<path d="M7.23068 25.1875C6.01009 24.0375 6.8194 21.625 6.19583 20.2125C5.57227 18.8 3.18414 17.5625 3.18414 16C3.18414 14.4375 5.54573 13.25 6.19583 11.7875C6.84593 10.325 6.01009 7.9625 7.23068 6.8125C8.45128 5.6625 11.0119 6.425 12.5111 5.8375C14.0103 5.25 15.3238 3 16.9822 3C18.6406 3 19.901 5.225 21.4533 5.8375C23.0056 6.45 25.5131 5.6625 26.7337 6.8125C27.9543 7.9625 27.145 10.375 27.7685 11.7875C28.3921 13.2 30.7802 14.4375 30.7802 16C30.7802 17.5625 28.4186 18.75 27.7685 20.2125C27.1184 21.675 27.9543 24.0375 26.7337 25.1875C25.5131 26.3375 22.9525 25.575 21.4533 26.1625C19.9541 26.75 18.6406 29 16.9822 29C15.3238 29 14.0634 26.775 12.5111 26.1625C10.9588 25.55 8.45128 26.3375 7.23068 25.1875Z" stroke="#8D3286" stroke-width="2" stroke-linecap="round" stroke-linejoin="round"/>
<path d="M22.8199 13L15.0319 20L11.1446 16.5" stroke="#8D3286" stroke-width="2" stroke-linecap="round" stroke-linejoin="round"/>
</svg>
