<svg width="34" height="32" viewBox="0 0 34 32" fill="none" xmlns="http://www.w3.org/2000/svg">
<path d="M28.3126 13.7L17.6987 4.61249C17.503 4.44384 17.2474 4.35031 16.9822 4.35031C16.717 4.35031 16.4614 4.44384 16.2658 4.61249L5.6519 13.7C5.54509 13.795 5.45955 13.9092 5.40031 14.0359C5.34107 14.1626 5.30932 14.2991 5.30695 14.4375V26C5.30695 26.2652 5.41877 26.5196 5.61782 26.7071C5.81687 26.8946 6.08684 27 6.36833 27H27.5961C27.8776 27 28.1476 26.8946 28.3466 26.7071C28.5457 26.5196 28.6575 26.2652 28.6575 26V14.4375C28.6551 14.2991 28.6234 14.1626 28.5641 14.0359C28.5049 13.9092 28.4194 13.795 28.3126 13.7V13.7Z" stroke="#8D3286" stroke-width="2" stroke-linecap="round" stroke-linejoin="round"/>
</svg> 
