<svg width="35" height="32" viewBox="0 0 35 32" fill="none" xmlns="http://www.w3.org/2000/svg">
<path d="M17.0193 22.5C19.9567 22.5 22.3379 20.2614 22.3379 17.5C22.3379 14.7386 19.9567 12.5 17.0193 12.5C14.082 12.5 11.7008 14.7386 11.7008 17.5C11.7008 20.2614 14.082 22.5 17.0193 22.5Z" stroke="#8D3286" stroke-width="2" stroke-linecap="round" stroke-linejoin="round"/>
<path d="M26.0608 14.5C27.2997 14.4981 28.5219 14.7683 29.63 15.2892C30.7381 15.81 31.7014 16.5671 32.443 17.5" stroke="#8D3286" stroke-width="2" stroke-linecap="round" stroke-linejoin="round"/>
<path d="M1.59558 17.5C2.33725 16.5671 3.30054 15.81 4.40862 15.2892C5.51671 14.7683 6.73893 14.4981 7.97781 14.5" stroke="#8D3286" stroke-width="2" stroke-linecap="round" stroke-linejoin="round"/>
<path d="M9.36063 27C10.0611 25.6514 11.1504 24.5148 12.5045 23.7198C13.8585 22.9247 15.4229 22.5032 17.0193 22.5032C18.6157 22.5032 20.1801 22.9247 21.5341 23.7198C22.8882 24.5148 23.9775 25.6514 24.678 27" stroke="#8D3286" stroke-width="2" stroke-linecap="round" stroke-linejoin="round"/>
<path d="M7.97778 14.5C7.17021 14.5008 6.37909 14.2855 5.69685 13.8792C5.01461 13.473 4.46943 12.8927 4.12501 12.206C3.78059 11.5193 3.65115 10.7546 3.75182 10.0014C3.85249 9.24809 4.17911 8.5373 4.69352 7.95206C5.20793 7.36681 5.88887 6.93127 6.6568 6.69634C7.42473 6.4614 8.24791 6.43677 9.03018 6.62532C9.81244 6.81388 10.5215 7.20782 11.0744 7.76113C11.6274 8.31444 12.0014 9.00427 12.1528 9.75" stroke="#8D3286" stroke-width="2" stroke-linecap="round" stroke-linejoin="round"/>
<path d="M21.8857 9.75C22.0372 9.00427 22.4112 8.31444 22.9642 7.76113C23.5171 7.20782 24.2261 6.81388 25.0084 6.62532C25.7907 6.43677 26.6139 6.4614 27.3818 6.69634C28.1497 6.93127 28.8307 7.36681 29.3451 7.95206C29.8595 8.5373 30.1861 9.24809 30.2868 10.0014C30.3874 10.7546 30.258 11.5193 29.9136 12.206C29.5692 12.8927 29.024 13.473 28.3417 13.8792C27.6595 14.2855 26.8684 14.5008 26.0608 14.5" stroke="#8D3286" stroke-width="2" stroke-linecap="round" stroke-linejoin="round"/>
</svg>
