<svg width="34" height="32" viewBox="0 0 34 32" fill="none" xmlns="http://www.w3.org/2000/svg">
<path d="M27.9012 4.48749L3.17088 11.05C2.96036 11.1042 2.7727 11.2183 2.63347 11.3766C2.49423 11.5349 2.41019 11.7299 2.39279 11.9348C2.37538 12.1398 2.42546 12.3448 2.53621 12.522C2.64696 12.6992 2.81298 12.8399 3.01167 12.925L14.3685 17.9875C14.591 18.0846 14.7697 18.2529 14.8727 18.4625L20.246 29.1625C20.3363 29.3497 20.4856 29.5061 20.6737 29.6105C20.8617 29.7148 21.0793 29.762 21.2969 29.7456C21.5144 29.7292 21.7213 29.65 21.8894 29.5188C22.0575 29.3876 22.1785 29.2108 22.2361 29.0125L29.2014 5.71249C29.2542 5.54246 29.2575 5.36219 29.2109 5.19056C29.1643 5.01894 29.0695 4.86228 28.9366 4.73702C28.8036 4.61175 28.6374 4.52249 28.4552 4.47859C28.273 4.43469 28.0817 4.43776 27.9012 4.48749V4.48749Z" stroke="#8D3286" stroke-width="2" stroke-linecap="round" stroke-linejoin="round"/>
<path d="M14.7134 18.1375L20.7103 12.4875" stroke="#8D3286" stroke-width="2" stroke-linecap="round" stroke-linejoin="round"/>
</svg>
