<svg width="34" height="34" viewBox="0 0 34 34" fill="none" xmlns="http://www.w3.org/2000/svg">
<path d="M17 21.25C19.934 21.25 22.3125 18.8715 22.3125 15.9375C22.3125 13.0035 19.934 10.625 17 10.625C14.066 10.625 11.6875 13.0035 11.6875 15.9375C11.6875 18.8715 14.066 21.25 17 21.25Z" stroke="#8D3286" stroke-width="2" stroke-miterlimit="10"/>
<path d="M8.47345 26.4828C9.27286 24.9082 10.4927 23.5857 11.9977 22.6619C13.5027 21.7382 15.2341 21.2492 17 21.2492C18.7659 21.2492 20.4973 21.7382 22.0023 22.6619C23.5073 23.5857 24.7272 24.9082 25.5266 26.4828" stroke="#8D3286" stroke-width="2" stroke-linecap="round" stroke-linejoin="round"/>
<path d="M26.5625 9.5625C27.7361 9.5625 28.6875 8.61111 28.6875 7.4375C28.6875 6.26389 27.7361 5.3125 26.5625 5.3125C25.3889 5.3125 24.4375 6.26389 24.4375 7.4375C24.4375 8.61111 25.3889 9.5625 26.5625 9.5625Z" stroke="#8D3286" stroke-width="2" stroke-linecap="round" stroke-linejoin="round"/>
<path d="M26.5625 5.3125V3.71875" stroke="#8D3286" stroke-width="2" stroke-linecap="round" stroke-linejoin="round"/>
<path d="M24.7164 6.375L23.3484 5.57812" stroke="#8D3286" stroke-width="2" stroke-linecap="round" stroke-linejoin="round"/>
<path d="M24.7164 8.5L23.3484 9.29688" stroke="#8D3286" stroke-width="2" stroke-linecap="round" stroke-linejoin="round"/>
<path d="M26.5625 9.5625V11.1563" stroke="#8D3286" stroke-width="2" stroke-linecap="round" stroke-linejoin="round"/>
<path d="M28.4086 8.5L29.7765 9.29688" stroke="#8D3286" stroke-width="2" stroke-linecap="round" stroke-linejoin="round"/>
<path d="M28.4086 6.375L29.7765 5.57812" stroke="#8D3286" stroke-width="2" stroke-linecap="round" stroke-linejoin="round"/>
<path d="M29.657 15.4727C29.7215 15.9792 29.7525 16.4894 29.75 17C29.75 19.5217 29.0022 21.9868 27.6012 24.0835C26.2003 26.1803 24.209 27.8145 21.8792 28.7795C19.5495 29.7445 16.9859 29.997 14.5126 29.505C12.0393 29.0131 9.76751 27.7988 7.98439 26.0156C6.20127 24.2325 4.98696 21.9607 4.49499 19.4874C4.00303 17.0142 4.25552 14.4506 5.22054 12.1208C6.18556 9.79105 7.81976 7.79977 9.91649 6.39878C12.0132 4.99779 14.4783 4.25002 17 4.25002C17.3947 4.24753 17.7892 4.26526 18.182 4.30314" stroke="#8D3286" stroke-width="2" stroke-linecap="round" stroke-linejoin="round"/>
</svg>
