<svg width="164" height="138" viewBox="0 0 164 138" fill="none" xmlns="http://www.w3.org/2000/svg">
<g filter="url(#filter0_d_714_9)">
<path d="M18.88 70.184L9.28 73.16C8.32 72.52 7.36 71.624 6.4 70.472C5.44 69.32 4.96 67.72 4.96 65.672C4.96 61.832 7.296 59.144 11.968 57.608L22.72 53.96H26.272C29.024 53.96 31.2 54.76 32.8 56.36C34.4 57.96 35.2 60.136 35.2 62.888V112.904C34.496 113.032 33.44 113.192 32.032 113.384C30.688 113.64 29.312 113.768 27.904 113.768C26.496 113.768 25.216 113.672 24.064 113.48C22.976 113.288 22.048 112.904 21.28 112.328C20.512 111.752 19.904 110.984 19.456 110.024C19.072 109 18.88 107.688 18.88 106.088V70.184Z" fill="white"/>
<path d="M63.456 55.304C64.672 54.92 66.048 54.6 67.584 54.344C69.184 54.088 70.624 53.96 71.904 53.96C73.376 53.96 74.784 54.12 76.128 54.44C77.536 54.696 78.784 55.176 79.872 55.88C80.96 56.52 81.824 57.416 82.464 58.568C83.104 59.72 83.424 61.16 83.424 62.888V88.424H91.968C92.352 89.128 92.736 90.056 93.12 91.208C93.504 92.36 93.696 93.576 93.696 94.856C93.696 97.288 93.152 99.016 92.064 100.04C90.976 101.064 89.6 101.576 87.936 101.576H83.424V112.904C82.72 113.032 81.664 113.192 80.256 113.384C78.848 113.64 77.504 113.768 76.224 113.768C74.816 113.768 73.568 113.704 72.48 113.576C71.392 113.448 70.464 113.16 69.696 112.712C68.992 112.2 68.448 111.496 68.064 110.6C67.68 109.704 67.488 108.488 67.488 106.952V101.576H43.392C41.92 100.808 40.64 99.688 39.552 98.216C38.528 96.68 38.016 94.824 38.016 92.648C38.016 91.432 38.176 90.088 38.496 88.616C38.816 87.144 39.36 85.864 40.128 84.776L63.456 55.304ZM68.352 70.376H68.064L55.296 88.424H68.352V70.376Z" fill="white"/>
<path d="M76.64 113.54C75.72 113.34 75.1 112.96 74.78 112.4C74.5 111.8 74.36 111.16 74.36 110.48C74.36 109.6 74.64 108.7 75.2 107.78C75.76 106.82 76.26 106.1 76.7 105.62C75.82 105.58 75.14 105.32 74.66 104.84C74.18 104.32 73.94 103.88 73.94 103.52C73.94 103.24 74.06 103.1 74.3 103.1C74.5 103.1 74.68 103.16 74.84 103.28C75.64 103.64 76.62 103.82 77.78 103.82C78.26 103.1 79.04 102.04 80.12 100.64C81.24 99.2 82.52 97.6 83.96 95.84C85.44 94.04 86.98 92.24 88.58 90.44C90.22 88.64 91.82 86.98 93.38 85.46C94.98 83.9 96.44 82.66 97.76 81.74C99.12 80.78 100.22 80.3 101.06 80.3C101.86 80.3 102.56 80.54 103.16 81.02C103.8 81.5 104.3 81.98 104.66 82.46C105.06 82.94 105.26 83.18 105.26 83.18C104.5 84.26 103.64 85.86 102.68 87.98C101.72 90.06 100.8 92.38 99.92 94.94C99.08 97.5 98.36 100 97.76 102.44C98.36 102.44 98.9 102.7 99.38 103.22C99.9 103.74 100.16 104.28 100.16 104.84C100.16 104.84 99.86 104.7 99.26 104.42C98.66 104.14 98.02 104.04 97.34 104.12C97.22 104.56 97.06 105.24 96.86 106.16C96.7 107.04 96.54 108 96.38 109.04C96.22 110.04 96.14 110.96 96.14 111.8C96.14 112.08 96.14 112.34 96.14 112.58C96.18 112.78 96.22 112.98 96.26 113.18C95.38 113.38 94.74 113.04 94.34 112.16C93.98 111.28 93.8 110.22 93.8 108.98C93.8 107.18 94.06 105.54 94.58 104.06C90.7 104.22 87.6 104.54 85.28 105.02C83 105.5 81.4 105.92 80.48 106.28C79.68 107.4 78.92 108.66 78.2 110.06C77.48 111.42 76.96 112.58 76.64 113.54ZM82.16 103.64C83.48 103.4 84.98 103.18 86.66 102.98C88.38 102.74 90 102.54 91.52 102.38C93.04 102.22 94.22 102.16 95.06 102.2C95.22 101.64 95.5 100.68 95.9 99.32C96.3 97.92 96.8 96.3 97.4 94.46C98.04 92.62 98.8 90.68 99.68 88.64C100.56 86.6 101.56 84.64 102.68 82.76C102.56 82.56 102.36 82.46 102.08 82.46C101.48 82.46 100.64 82.88 99.56 83.72C98.52 84.52 97.32 85.58 95.96 86.9C94.64 88.22 93.26 89.68 91.82 91.28C90.42 92.88 89.06 94.48 87.74 96.08C86.46 97.68 85.32 99.14 84.32 100.46C83.36 101.78 82.64 102.84 82.16 103.64ZM99.2117 113.36C100.932 110.16 102.352 107.08 103.472 104.12C104.632 101.12 105.952 98.1 107.432 95.06C107.872 94.26 108.432 93.72 109.112 93.44C109.792 93.12 110.452 92.96 111.092 92.96C111.612 92.96 112.072 93.02 112.472 93.14C112.352 93.42 112.032 93.98 111.512 94.82C111.032 95.62 110.512 96.54 109.952 97.58C109.552 98.3 108.952 99.42 108.152 100.94C107.352 102.42 106.612 103.96 105.932 105.56C106.292 105.12 106.852 104.4 107.612 103.4C108.372 102.4 109.252 101.32 110.252 100.16C111.252 98.96 112.292 97.82 113.372 96.74C114.492 95.62 115.572 94.72 116.612 94.04C117.692 93.32 118.652 92.96 119.492 92.96C120.132 92.96 120.692 93.16 121.172 93.56C121.652 93.96 121.892 94.5 121.892 95.18C121.892 96.18 121.472 97.36 120.632 98.72C119.792 100.04 118.952 101.34 118.112 102.62C117.952 102.86 117.652 103.32 117.212 104C116.812 104.68 116.372 105.46 115.892 106.34C115.412 107.18 114.992 108 114.632 108.8C114.312 109.56 114.152 110.16 114.152 110.6C114.152 111.04 114.332 111.26 114.692 111.26C115.452 111.26 116.232 110.96 117.032 110.36C117.872 109.76 118.672 109.08 119.432 108.32C120.192 107.52 120.792 106.86 121.232 106.34C121.672 105.86 122.072 105.4 122.432 104.96C122.792 104.52 123.152 104.1 123.512 103.7C123.632 103.58 123.732 103.52 123.812 103.52C124.052 103.52 124.172 103.7 124.172 104.06C124.172 104.3 124.092 104.5 123.932 104.66C123.492 105.18 123.052 105.72 122.612 106.28C122.172 106.8 121.712 107.32 121.232 107.84C120.792 108.36 120.332 108.88 119.852 109.4C119.412 109.88 118.952 110.34 118.472 110.78C116.752 112.38 115.152 113.18 113.672 113.18C112.672 113.18 111.992 112.88 111.632 112.28C111.312 111.68 111.152 110.94 111.152 110.06C111.152 109.1 111.412 108.06 111.932 106.94C112.452 105.82 113.092 104.68 113.852 103.52C114.612 102.32 115.372 101.16 116.132 100.04C116.932 98.92 117.592 97.9 118.112 96.98C118.632 96.02 118.892 95.22 118.892 94.58C118.892 94.34 118.752 94.22 118.472 94.22C118.232 94.22 117.752 94.52 117.032 95.12C116.352 95.68 115.612 96.36 114.812 97.16C114.012 97.92 113.252 98.66 112.532 99.38C111.852 100.1 111.392 100.62 111.152 100.94C110.152 102.02 109.172 103.18 108.212 104.42C107.292 105.66 106.412 106.86 105.572 108.02C105.092 108.7 104.672 109.4 104.312 110.12C103.952 110.8 103.552 111.52 103.112 112.28C102.912 112.64 102.632 112.86 102.272 112.94C101.952 112.98 101.512 113.02 100.952 113.06C100.552 113.06 100.232 113.06 99.9917 113.06C99.7517 113.1 99.4917 113.2 99.2117 113.36ZM126.389 113.42C124.909 113.42 123.789 112.94 123.029 111.98C122.309 111.02 121.949 109.8 121.949 108.32C121.949 106.64 122.389 104.8 123.269 102.8C124.069 101 125.089 99.36 126.329 97.88C127.609 96.4 128.989 95.22 130.469 94.34C131.949 93.42 133.369 92.96 134.729 92.96C136.369 92.96 137.569 93.46 138.329 94.46C139.089 95.46 139.469 96.72 139.469 98.24C139.469 99.88 139.049 101.64 138.209 103.52C137.769 104.48 137.129 105.52 136.289 106.64C135.449 107.76 134.489 108.84 133.409 109.88C132.329 110.92 131.169 111.78 129.929 112.46C128.729 113.1 127.549 113.42 126.389 113.42ZM127.529 112.22C128.369 112.22 129.209 111.94 130.049 111.38C130.889 110.78 131.689 110.06 132.449 109.22C133.209 108.38 133.869 107.54 134.429 106.7C135.029 105.82 135.469 105.08 135.749 104.48C136.429 103.2 136.929 101.98 137.249 100.82C137.569 99.62 137.729 98.58 137.729 97.7C137.729 95.78 137.009 94.82 135.569 94.82C134.689 94.82 133.749 95.18 132.749 95.9C131.789 96.58 130.849 97.5 129.929 98.66C129.009 99.82 128.209 101.12 127.529 102.56C126.089 105.44 125.369 107.78 125.369 109.58C125.369 111.02 125.829 111.86 126.749 112.1C126.869 112.14 126.989 112.18 127.109 112.22C127.229 112.22 127.369 112.22 127.529 112.22ZM146.778 114.38C145.258 114.38 143.658 113.76 141.978 112.52C141.258 112 140.638 111.28 140.118 110.36C139.838 109.88 139.698 109.36 139.698 108.8C139.698 108.16 139.918 107.84 140.358 107.84C140.558 107.84 140.798 108.02 141.078 108.38C141.398 108.7 141.678 109.12 141.918 109.64C142.278 110.44 142.658 111.14 143.058 111.74C143.458 112.3 144.098 112.58 144.978 112.58C145.778 112.58 146.438 112.12 146.958 111.2C147.478 110.28 147.878 109.1 148.158 107.66C148.478 106.22 148.698 104.7 148.818 103.1C148.978 101.5 149.078 100.04 149.118 98.72C149.158 97.36 149.198 96.32 149.238 95.6C147.358 97.88 145.578 100.04 143.898 102.08C142.258 104.08 140.698 105.96 139.218 107.72C139.058 107.92 138.918 108.02 138.798 108.02C138.678 108.02 138.618 107.9 138.618 107.66C138.618 107.22 138.718 106.86 138.918 106.58C139.718 105.62 140.598 104.56 141.558 103.4C142.518 102.2 143.478 101 144.438 99.8C145.438 98.6 146.318 97.54 147.078 96.62C147.878 95.66 148.458 94.94 148.818 94.46C148.818 93.26 149.098 92.32 149.658 91.64C150.218 90.92 150.898 90.4 151.698 90.08C152.498 89.76 153.258 89.6 153.978 89.6C154.658 89.6 155.158 89.68 155.478 89.84C155.758 89.96 155.898 90.1 155.898 90.26C155.898 90.38 155.698 90.5 155.298 90.62C154.338 90.86 153.658 91.38 153.258 92.18C152.858 92.94 152.598 93.88 152.478 95C152.398 96.08 152.358 97.24 152.358 98.48C152.358 100.32 152.278 102.26 152.118 104.3C151.958 106.34 151.698 108.06 151.338 109.46C151.258 109.74 151.138 110.04 150.978 110.36C150.858 110.68 150.738 111 150.618 111.32C151.738 110.52 152.838 109.66 153.918 108.74C154.998 107.78 155.838 106.98 156.438 106.34C156.878 105.9 157.258 105.48 157.578 105.08C157.938 104.64 158.298 104.2 158.658 103.76C158.738 103.64 158.838 103.58 158.958 103.58C159.198 103.58 159.318 103.74 159.318 104.06C159.318 104.26 159.218 104.46 159.018 104.66C158.178 105.66 157.318 106.72 156.438 107.84C155.598 108.96 154.658 109.94 153.618 110.78C153.178 111.14 152.618 111.6 151.938 112.16C151.258 112.72 150.578 113.18 149.898 113.54C148.778 114.1 147.738 114.38 146.778 114.38Z" fill="#1FEF8B"/>
</g>
<defs>
<filter id="filter0_d_714_9" x="0.959961" y="53.96" width="162.358" height="68.42" filterUnits="userSpaceOnUse" color-interpolation-filters="sRGB">
<feFlood flood-opacity="0" result="BackgroundImageFix"/>
<feColorMatrix in="SourceAlpha" type="matrix" values="0 0 0 0 0 0 0 0 0 0 0 0 0 0 0 0 0 0 127 0" result="hardAlpha"/>
<feOffset dy="4"/>
<feGaussianBlur stdDeviation="2"/>
<feComposite in2="hardAlpha" operator="out"/>
<feColorMatrix type="matrix" values="0 0 0 0 0 0 0 0 0 0 0 0 0 0 0 0 0 0 0.25 0"/>
<feBlend mode="normal" in2="BackgroundImageFix" result="effect1_dropShadow_714_9"/>
<feBlend mode="normal" in="SourceGraphic" in2="effect1_dropShadow_714_9" result="shape"/>
</filter>
</defs>
</svg>
