<svg width="26" height="26" viewBox="0 0 26 26" fill="none" xmlns="http://www.w3.org/2000/svg">
<path d="M4.61072 17.9766C3.401 15.9356 2.97785 13.5232 3.42072 11.1924C3.86359 8.86149 5.14202 6.77243 7.01601 5.31735C8.88999 3.86227 11.2307 3.14125 13.5986 3.28965C15.9665 3.43805 18.1988 4.44566 19.8765 6.12331C21.5541 7.80097 22.5618 10.0333 22.7102 12.4012C22.8585 14.7691 22.1375 17.1098 20.6825 18.9838C19.2274 20.8578 17.1383 22.1362 14.8074 22.5791C12.4766 23.022 10.0642 22.5988 8.02322 21.3891V21.3891L4.65135 22.3438C4.5132 22.3842 4.36673 22.3867 4.22728 22.351C4.08784 22.3153 3.96055 22.2428 3.85878 22.141C3.757 22.0392 3.68447 21.912 3.6488 21.7725C3.61313 21.6331 3.61563 21.4866 3.65604 21.3485L4.61072 17.9766Z" stroke="white" stroke-linecap="round" stroke-linejoin="round"/>
<path d="M15.4477 18.6875C14.3786 18.6902 13.3195 18.4816 12.3313 18.0737C11.3431 17.6658 10.4452 17.0667 9.68928 16.3107C8.93333 15.5548 8.3342 14.6569 7.92632 13.6687C7.51844 12.6805 7.30985 11.6214 7.31253 10.5523C7.31521 9.79989 7.61601 9.07917 8.14902 8.54806C8.68204 8.01695 9.40382 7.71874 10.1563 7.71874V7.71874C10.2804 7.71775 10.4025 7.75024 10.5098 7.8128C10.617 7.87535 10.7054 7.96566 10.7657 8.07421L11.9539 10.1461C12.0246 10.272 12.0609 10.4144 12.0591 10.5588C12.0573 10.7032 12.0175 10.8446 11.9438 10.9687L10.9891 12.5633C11.4781 13.6511 12.3489 14.5219 13.4367 15.0109L15.0313 14.0562C15.1554 13.9825 15.2968 13.9427 15.4412 13.9409C15.5857 13.9392 15.728 13.9754 15.8539 14.0461L17.9258 15.2344C18.0344 15.2946 18.1247 15.383 18.1872 15.4902C18.2498 15.5975 18.2823 15.7196 18.2813 15.8437C18.2786 16.5954 17.9795 17.3156 17.449 17.8481C16.9185 18.3805 16.1993 18.6821 15.4477 18.6875V18.6875Z" stroke="white" stroke-linecap="round" stroke-linejoin="round"/>
</svg>
